<?xml version="1.0" encoding="utf-8"?>
<!-- Generator: Adobe Illustrator 26.0.3, SVG Export Plug-In . SVG Version: 6.00 Build 0)  -->
<svg version="1.1" id="Layer_1" xmlns="http://www.w3.org/2000/svg" xmlns:xlink="http://www.w3.org/1999/xlink" x="0px" y="0px"
	 viewBox="0 0 42.5 42" style="enable-background:new 0 0 42.5 42;" xml:space="preserve">
<style type="text/css">
	.st0{fill:url(#SVGID_1_);}
	.st1{fill:url(#SVGID_00000180345004121746341620000003144101195397988789_);}
</style>
<g>
	<g>
		<g>
			
				<linearGradient id="SVGID_1_" gradientUnits="userSpaceOnUse" x1="10.1918" y1="1162.5227" x2="27.1918" y2="1195.0227" gradientTransform="matrix(1 0 0 1 0 -1156)">
				<stop  offset="0" style="stop-color:#540C97"/>
				<stop  offset="0.6264" style="stop-color:#F94B15"/>
				<stop  offset="1" style="stop-color:#F9AB15"/>
			</linearGradient>
			<path class="st0" d="M27,37c0.3,0.4,0.5,0.9,0.6,1.3c0.1,0.5,0,1-0.2,1.5s-0.5,0.9-0.9,1.2s-0.9,0.5-1.3,0.6
				c-1.5,0.3-3,0.4-4.5,0.4C9.2,41.7-0.1,32.3,0,20.8c0-3.2,0.8-6.3,2.2-9.2c1.4-2.8,3.5-5.3,6-7.3c2.5-1.9,5.5-3.3,8.7-3.9
				c3.1-0.6,6.4-0.6,9.5,0.2c0.5,0.1,0.9,0.4,1.3,0.7s0.6,0.8,0.8,1.2c0.2,0.5,0.2,1,0.1,1.5S28.3,5,28,5.3c-0.4,0.4-0.8,0.8-1.4,1
				c-0.5,0.2-1.1,0.2-1.7,0.1C23.8,6.1,22.6,6,21.3,6C13,6,6.1,12.8,6.1,21.1S13,36.2,21.3,36.2c0.9,0,1.8-0.1,2.8-0.3
				c0.5-0.1,1.1-0.1,1.6,0.1C26.2,36.3,26.6,36.6,27,37z"/>
			
				<linearGradient id="SVGID_00000145023490579736438770000013055235489096544936_" gradientUnits="userSpaceOnUse" x1="23.2652" y1="1161.978" x2="33.715" y2="1195.342" gradientTransform="matrix(1 0 0 1 0 -1156)">
				<stop  offset="0" style="stop-color:#540C97"/>
				<stop  offset="0.6875" style="stop-color:#F94B15"/>
				<stop  offset="1" style="stop-color:#F9AB15"/>
			</linearGradient>
			<path style="fill:url(#SVGID_00000145023490579736438770000013055235489096544936_);" d="M42.5,21c0,3.2-0.7,6.3-2.1,9.1
				c-1.4,2.8-3.4,5.3-5.9,7.3c-0.3,0.2-0.6,0.4-1,0.5S32.7,38,32.4,38c-0.4,0-0.8-0.2-1.1-0.3s-0.6-0.4-0.9-0.7
				c-0.5-0.6-0.7-1.4-0.6-2.1c0.1-0.8,0.5-1.5,1.1-1.9c0.6-0.5,1.2-1.1,1.8-1.7c1.9-2.1,0.4-5.5-2.4-5.6c-0.5,0-1,0.1-1.5,0.3
				c-0.5,0.2-0.9,0.5-1.2,0.9c-1,1-2.2,1.8-3.5,2.2c-0.9,0.3-1.7,0.4-2.6,0.4c-0.1,0-0.3,0-0.4,0c-2.3-0.1-4.4-1-5.9-2.6
				c-1.6-1.6-2.4-3.8-2.3-6s1-4.3,2.6-5.9c1.6-1.5,3.8-2.4,6.1-2.3c0.3,0,0.5,0,0.8,0c1,0.1,1.9,0.3,2.8,0.8c1.1,0.5,2,1.2,2.8,2.1
				c0.3,0.4,0.7,0.7,1.2,0.9c0.4,0.2,0.9,0.3,1.4,0.3c0.6,0,1.3-0.2,1.8-0.5c0.5-0.3,1-0.8,1.2-1.4c0.3-0.6,0.4-1.2,0.3-1.9
				c-0.1-0.6-0.4-1.2-0.8-1.7c-0.4-0.5-0.9-1-1.4-1.5c-0.6-0.5-0.9-1.2-1-1.9s0.2-1.5,0.6-2.1l0.1-0.1C31.6,5.4,32,5.1,32.3,5
				c0.4-0.2,0.7-0.3,1.1-0.3c0.4,0,0.8,0,1.2,0.1s0.7,0.3,1,0.6c2.2,2,4,4.4,5.2,7.1C41.8,15.1,42.5,18.1,42.5,21z"/>
		</g>
	</g>
</g>
</svg>
