<svg width="259" height="189" viewBox="0 0 259 189" fill="none" xmlns="http://www.w3.org/2000/svg">
<path d="M25.9941 146.633L89.7325 183.816L138.015 156.06L74.2762 118.877L25.9941 146.633Z" fill="#E9ECF5"/>
<path d="M22.6617 105.123L19.2574 103.134L19.0586 31.2057L22.4629 33.2203L22.6617 105.123Z" fill="#FAC947"/>
<path d="M22.4629 33.2197L19.0586 31.2051L62.2466 6.28406L65.6509 8.27377L22.4629 33.2197Z" fill="#FFDF55"/>
<path d="M65.6646 8.27344L65.8385 80.2013L22.6754 105.122L22.4766 33.2194L65.6646 8.27344Z" fill="#F4A242"/>
<path d="M34.6902 112.087L24.2535 106.068L24.0547 35.4833L34.4914 41.527L34.6902 112.087Z" fill="#DDBE90"/>
<path d="M34.4914 41.5274L24.0547 35.4836L63.888 12.4528L74.3247 18.4965L34.4914 41.5274Z" fill="#F4E9B8"/>
<path d="M74.3275 18.4965L74.5263 89.0813L34.6929 112.087L34.4941 41.5273L74.3275 18.4965Z" fill="#C7A37E"/>
<path d="M38.0973 114.102L34.6929 112.087L34.4941 40.1842L37.8985 42.1739L38.0973 114.102Z" fill="#FAC947"/>
<path d="M37.8985 42.1737L34.4941 40.184L77.6573 15.238L81.0616 17.2526L37.8985 42.1737Z" fill="#FFDF55"/>
<path d="M81.0616 17.2527L81.2604 89.1557L38.0972 114.102L37.8984 42.1738L81.0616 17.2527Z" fill="#F4A242"/>
<path d="M32.0155 114.574L18.2242 106.49L18.0254 34.5873L31.8167 42.6456L32.0155 114.574Z" fill="#FAC947"/>
<path d="M20.881 57.121L20.707 41.5764L29.1309 46.5258L29.3297 62.0704L20.881 57.121Z" fill="#FFDF55"/>
<path d="M31.8167 42.6457L18.0254 34.5874L21.4297 32.5231L35.2211 40.6063L31.8167 42.6457Z" fill="#FFDF55"/>
<path d="M35.2129 40.6064L35.4117 112.509L32.0074 114.574L31.8086 42.6459L35.2129 40.6064Z" fill="#F4A242"/>
<path d="M98.4564 102.164L84.6402 93.9312L84.4414 22.0033L98.2576 30.2606L98.4564 102.164Z" fill="#EA1F27"/>
<path d="M98.2576 30.2606L84.4414 22.0033L87.8457 19.9639L101.662 28.1963L98.2576 30.2606Z" fill="#EA1F27"/>
<path d="M101.664 28.196L101.863 100.124L98.4586 102.163L98.2598 30.2604L101.664 28.196Z" fill="#B80000"/>
<path d="M43.9313 120.295L40.5269 118.305L40.3281 46.402L43.7325 48.3917L43.9313 120.295Z" fill="#EA1F27"/>
<path d="M43.7325 48.3916L40.3281 46.4019L83.4913 21.4559L86.8956 23.4456L43.7325 48.3916Z" fill="#EA1F27"/>
<path d="M86.8897 23.4453L87.0885 95.3732L43.9254 120.294L43.7266 48.3913L86.8897 23.4453Z" fill="#B80000"/>
<path d="M59.3858 125.319L47.2593 118.28L47.0605 49.3617L59.187 56.4003L59.3858 125.319Z" fill="#DDBE90"/>
<path d="M59.187 56.4L47.0605 49.3615L86.8939 26.3555L99.0203 33.3941L59.187 56.4Z" fill="#F4E9B8"/>
<path d="M99.0248 33.3939L99.2235 102.312L59.3902 125.318L59.1914 56.3999L99.0248 33.3939Z" fill="#C7A37E"/>
<path d="M56.482 127.756L53.0777 125.766L52.8789 53.8634L56.2832 55.8531L56.482 127.756Z" fill="#EA1F27"/>
<path d="M56.2832 55.8531L52.8789 53.8634L96.0421 28.9175L99.4464 30.9072L56.2832 55.8531Z" fill="#EA1F27"/>
<path d="M99.4424 30.907L99.6412 102.835L56.4781 127.756L56.2793 55.8529L99.4424 30.907Z" fill="#B80000"/>
<path d="M66.8414 130.069L63.4371 128.079L63.2383 56.1514L66.6426 58.1411L66.8414 130.069Z" fill="#4E4A82"/>
<path d="M66.6426 58.1409L63.2383 56.1512L106.426 31.2301L109.831 33.2198L66.6426 58.1409Z" fill="#716FB1"/>
<path d="M109.829 33.22L110.003 105.148L66.8394 130.069L66.6406 58.1411L109.829 33.22Z" fill="#252159"/>
<path d="M82.1192 138.948L66.7872 130.044L66.6133 59.4591L81.9204 68.3631L82.1192 138.948Z" fill="#DDBE90"/>
<path d="M81.9204 68.3631L66.6133 59.4591L106.422 36.4531L121.754 45.3571L81.9204 68.3631Z" fill="#F4E9B8"/>
<path d="M121.753 45.3572L121.927 115.942L82.1187 138.948L81.9199 68.3632L121.753 45.3572Z" fill="#C7A37E"/>
<path d="M68.4807 60.5534L67.2383 59.8321L107.072 36.8013L108.289 37.5225L68.4807 60.5534Z" fill="#EDDAA4"/>
<path d="M71.012 62.0208L69.7695 61.2995L109.603 38.2687L110.845 39.0148L71.012 62.0208Z" fill="#EDDAA4"/>
<path d="M73.5471 63.4882L72.3047 62.7669L112.138 39.7361L113.381 40.4822L73.5471 63.4882Z" fill="#EDDAA4"/>
<path d="M76.0843 64.9555L74.8418 64.2343L114.675 41.2283L115.918 41.9495L76.0843 64.9555Z" fill="#EDDAA4"/>
<path d="M78.618 66.4228L77.4004 65.7015L117.209 42.6956L118.451 43.4168L78.618 66.4228Z" fill="#EDDAA4"/>
<path d="M81.1493 67.8905L79.9316 67.1692L119.74 44.1632L120.983 44.8845L81.1493 67.8905Z" fill="#EDDAA4"/>
<path d="M85.506 140.937L82.1265 138.948L81.9277 67.0447L85.3321 69.0344L85.506 140.937Z" fill="#4E4A82"/>
<path d="M85.3321 69.0349L81.9277 67.0452L125.091 42.0992L128.495 44.089L85.3321 69.0349Z" fill="#716FB1"/>
<path d="M128.483 44.089L128.682 116.017L85.4943 140.938L85.3203 69.0349L128.483 44.089Z" fill="#2B2A51"/>
<path d="M79.4106 141.41L62.2398 131.412L62.041 59.5087L79.2367 69.5069L79.4106 141.41Z" fill="#4E4A82"/>
<path d="M64.8947 82.0421L64.7207 66.4976L76.5489 73.3869L76.7229 88.9315L64.8947 82.0421Z" fill="#343362"/>
<path d="M79.2367 69.5071L62.041 59.5088L65.4454 57.4445L82.641 67.4427L79.2367 69.5071Z" fill="#716FB1"/>
<path d="M82.6407 67.4429L82.8146 139.371L79.4103 141.41L79.2363 69.5072L82.6407 67.4429Z" fill="#252159"/>
<path d="M84.0586 143.151L131.893 170.957L180.175 143.201L132.341 115.395L84.0586 143.151Z" fill="#E9ECF5"/>
<path d="M164.645 123.404V124.772L116.811 152.553L116.835 151.21L164.645 123.404Z" fill="#7F6BAF"/>
<path d="M116.812 160.611L164.647 132.78V134.148L116.787 161.954L116.812 160.611Z" fill="#7F6BAF"/>
<path d="M164.645 132.78L116.811 160.611V152.578L157.737 128.801L164.645 132.78Z" fill="#463A64"/>
<path d="M116.837 151.21L116.787 161.954L81.0039 141.286L81.0288 130.517L116.837 151.21Z" fill="#685890"/>
<path d="M82.1719 140.59L82.1967 132.557L116.812 152.553V160.611L82.1719 140.59Z" fill="#463A64"/>
<path d="M116.813 152.553V158.522L83.4902 139.272L83.5151 133.328L116.813 152.553Z" fill="#F4E9B8"/>
<path d="M164.645 123.404L116.835 151.21L81.0273 130.517L128.862 102.711L164.645 123.404Z" fill="#343362"/>
<path d="M162.608 125.966L162.583 131.91L116.811 158.522V152.553L162.608 125.966Z" fill="#E0BD98"/>
<path d="M134.628 106.069L86.8179 133.875L85.0039 132.855L132.864 105.024L134.628 106.069Z" fill="#685890"/>
<path d="M0.272461 122.309V123.503L42.1186 147.827V146.658L0.272461 122.309Z" fill="#7F6BAF"/>
<path d="M42.1434 154.865L0.272461 130.541V131.735L42.1434 156.059V154.865Z" fill="#7F6BAF"/>
<path d="M0.272461 130.541L42.1434 154.866L42.1186 147.852L6.33568 127.035L0.272461 130.541Z" fill="#463A64"/>
<path d="M42.1191 146.658L42.144 156.059L73.4789 137.953L73.4292 128.552L42.1191 146.658Z" fill="#685890"/>
<path d="M72.4352 137.381L72.4104 130.342L42.1191 147.827L42.144 154.865L72.4352 137.381Z" fill="#463A64"/>
<path d="M42.1191 147.827L42.144 153.05L71.2922 136.212L71.2673 130.989L42.1191 147.827Z" fill="#F4E9B8"/>
<path d="M73.4286 128.552L70.074 130.492L46.7406 143.997L42.1186 146.658L0.272461 122.309L31.6074 104.227L73.4286 128.552Z" fill="#343362"/>
<path d="M2.08594 124.547V129.745L42.1429 153.05L42.1181 147.827L2.08594 124.547Z" fill="#E0BD98"/>
<path d="M26.5371 107.163L68.3832 131.487L69.9487 130.591L28.1026 106.242L26.5371 107.163Z" fill="#685890"/>
<path d="M70.073 130.492L46.7396 143.997L35.6816 137.53L58.8908 123.975L70.073 130.492Z" fill="#7F6BAF"/>
<path d="M124.823 107.784L107.105 118.106L119.356 125.169L137.074 114.873L124.823 107.784Z" fill="#FEFAEF"/>
<path d="M137.065 114.872V115.992L119.348 126.313V125.169L137.065 114.872Z" fill="#9B9074"/>
<path d="M119.362 125.17V126.314L107.111 119.225V118.106L119.362 125.17Z" fill="#C8BB99"/>
<path d="M133.642 115.022L132.872 115.445L123.852 110.222L124.597 109.799L133.642 115.022Z" fill="#AEA898"/>
<path d="M131.978 115.967L131.233 116.415L122.188 111.192L122.933 110.744L131.978 115.967Z" fill="#AEA898"/>
<path d="M130.31 116.937L129.565 117.385L120.52 112.162L121.265 111.714L130.31 116.937Z" fill="#AEA898"/>
<path d="M128.65 117.907L127.904 118.355L118.859 113.132L119.63 112.684L128.65 117.907Z" fill="#AEA898"/>
<path d="M125.347 119.847L124.576 120.295L115.531 115.072L116.302 114.624L125.347 119.847Z" fill="#AEA898"/>
<path d="M122.013 121.787L121.242 122.21L112.197 116.987L112.968 116.564L122.013 121.787Z" fill="#AEA898"/>
<path d="M126.98 118.877L126.235 119.324L117.189 114.101L117.96 113.654L126.98 118.877Z" fill="#AEA898"/>
<path d="M123.673 120.816L122.903 121.264L113.857 116.016L114.628 115.594L123.673 120.816Z" fill="#AEA898"/>
<path d="M120.349 122.732L119.579 123.18L110.559 117.957L111.304 117.509L120.349 122.732Z" fill="#AEA898"/>
<path d="M124.819 106.665L107.102 116.986L119.352 124.05L137.07 113.753L124.819 106.665Z" fill="#FEFAEF"/>
<path d="M137.067 113.754V114.873L119.35 125.169V124.05L137.067 113.754Z" fill="#C5B794"/>
<path d="M119.356 124.05V125.169L107.105 118.106V116.987L119.356 124.05Z" fill="#DBD4C4"/>
<path d="M133.644 113.877L132.874 114.325L123.854 109.102L124.599 108.654L133.644 113.877Z" fill="#AEA898"/>
<path d="M131.976 114.847L131.231 115.295L122.186 110.072L122.931 109.624L131.976 114.847Z" fill="#AEA898"/>
<path d="M130.312 115.817L129.567 116.265L120.521 111.042L121.267 110.594L130.312 115.817Z" fill="#AEA898"/>
<path d="M128.652 116.787L127.906 117.235L118.861 112.012L119.632 111.564L128.652 116.787Z" fill="#AEA898"/>
<path d="M125.343 118.727L124.572 119.15L115.527 113.927L116.298 113.504L125.343 118.727Z" fill="#AEA898"/>
<path d="M122.015 120.642L121.244 121.09L112.199 115.867L112.97 115.419L122.015 120.642Z" fill="#AEA898"/>
<path d="M126.982 117.757L126.237 118.205L117.191 112.982L117.962 112.534L126.982 117.757Z" fill="#AEA898"/>
<path d="M123.675 119.697L122.905 120.12L113.859 114.897L114.63 114.474L123.675 119.697Z" fill="#AEA898"/>
<path d="M120.343 121.613L119.573 122.06L110.553 116.837L111.298 116.39L120.343 121.613Z" fill="#AEA898"/>
<path d="M124.823 105.546L107.105 115.842L119.356 122.931L137.074 112.634L124.823 105.546Z" fill="#FEFAEF"/>
<path d="M137.065 112.634V113.753L119.348 124.05V122.931L137.065 112.634Z" fill="#9B9074"/>
<path d="M119.362 122.931V124.05L107.111 116.986V115.842L119.362 122.931Z" fill="#C8BB99"/>
<path d="M133.642 112.758L132.872 113.206L123.852 107.983L124.597 107.535L133.642 112.758Z" fill="#AEA898"/>
<path d="M131.978 113.728L131.233 114.176L122.188 108.953L122.933 108.505L131.978 113.728Z" fill="#AEA898"/>
<path d="M130.31 114.698L129.565 115.146L120.52 109.923L121.265 109.475L130.31 114.698Z" fill="#AEA898"/>
<path d="M128.65 115.668L127.904 116.116L118.859 110.868L119.63 110.445L128.65 115.668Z" fill="#AEA898"/>
<path d="M125.347 117.583L124.576 118.031L115.531 112.808L116.302 112.36L125.347 117.583Z" fill="#AEA898"/>
<path d="M122.013 119.524L121.242 119.971L112.197 114.748L112.968 114.301L122.013 119.524Z" fill="#AEA898"/>
<path d="M126.98 116.638L126.235 117.061L117.189 111.838L117.96 111.415L126.98 116.638Z" fill="#AEA898"/>
<path d="M123.673 118.553L122.903 119.001L113.857 113.778L114.628 113.33L123.673 118.553Z" fill="#AEA898"/>
<path d="M120.349 120.493L119.579 120.941L110.559 115.718L111.304 115.27L120.349 120.493Z" fill="#AEA898"/>
<path d="M124.819 104.426L107.102 114.723L119.352 121.811L137.07 111.49L124.819 104.426Z" fill="#FEFAEF"/>
<path d="M137.067 111.49V112.634L119.35 122.93V121.811L137.067 111.49Z" fill="#C5B794"/>
<path d="M119.356 121.811V122.931L107.105 115.842V114.723L119.356 121.811Z" fill="#DBD4C4"/>
<path d="M133.644 111.639L132.874 112.086L123.854 106.863L124.599 106.416L133.644 111.639Z" fill="#AEA898"/>
<path d="M131.976 112.609L131.231 113.057L122.186 107.834L122.931 107.386L131.976 112.609Z" fill="#AEA898"/>
<path d="M130.312 113.579L129.567 114.002L120.521 108.779L121.267 108.356L130.312 113.579Z" fill="#AEA898"/>
<path d="M128.652 114.549L127.906 114.971L118.861 109.748L119.632 109.326L128.652 114.549Z" fill="#AEA898"/>
<path d="M125.343 116.464L124.572 116.912L115.527 111.689L116.298 111.241L125.343 116.464Z" fill="#AEA898"/>
<path d="M122.015 118.404L121.244 118.852L112.199 113.629L112.97 113.181L122.015 118.404Z" fill="#AEA898"/>
<path d="M126.982 115.494L126.237 115.942L117.191 110.719L117.962 110.271L126.982 115.494Z" fill="#AEA898"/>
<path d="M123.675 117.434L122.905 117.882L113.859 112.659L114.63 112.211L123.675 117.434Z" fill="#AEA898"/>
<path d="M120.343 119.374L119.573 119.821L110.553 114.598L111.298 114.151L120.343 119.374Z" fill="#AEA898"/>
<path d="M124.823 103.307L107.105 113.604L119.356 120.693L137.074 110.371L124.823 103.307Z" fill="#FEFAEF"/>
<path d="M137.065 110.371V111.49L119.348 121.812V120.693L137.065 110.371Z" fill="#9B9074"/>
<path d="M119.362 120.693V121.812L107.111 114.724V113.604L119.362 120.693Z" fill="#C8BB99"/>
<path d="M133.642 110.52L132.872 110.968L123.852 105.745L124.597 105.297L133.642 110.52Z" fill="#AEA898"/>
<path d="M131.978 111.491L131.233 111.913L122.188 106.69L122.933 106.268L131.978 111.491Z" fill="#AEA898"/>
<path d="M130.31 112.435L129.565 112.883L120.52 107.66L121.265 107.212L130.31 112.435Z" fill="#AEA898"/>
<path d="M128.65 113.405L127.904 113.853L118.859 108.63L119.63 108.182L128.65 113.405Z" fill="#AEA898"/>
<path d="M125.347 115.345L124.576 115.793L115.531 110.57L116.302 110.122L125.347 115.345Z" fill="#AEA898"/>
<path d="M122.013 117.285L121.242 117.733L112.197 112.51L112.968 112.062L122.013 117.285Z" fill="#AEA898"/>
<path d="M126.98 114.375L126.235 114.823L117.189 109.6L117.96 109.152L126.98 114.375Z" fill="#AEA898"/>
<path d="M123.673 116.316L122.903 116.763L113.857 111.54L114.628 111.093L123.673 116.316Z" fill="#AEA898"/>
<path d="M120.349 118.255L119.579 118.678L110.559 113.455L111.304 113.032L120.349 118.255Z" fill="#AEA898"/>
<path d="M124.819 102.163L107.102 112.485L119.352 119.548L137.07 109.252L124.819 102.163Z" fill="#FEFAEF"/>
<path d="M137.067 109.252V110.371L119.35 120.693V119.549L137.067 109.252Z" fill="#C5B794"/>
<path d="M119.356 119.548V120.692L107.105 113.604V112.485L119.356 119.548Z" fill="#DBD4C4"/>
<path d="M133.644 109.401L132.874 109.824L123.854 104.601L124.599 104.178L133.644 109.401Z" fill="#AEA898"/>
<path d="M131.976 110.346L131.231 110.794L122.186 105.571L122.931 105.123L131.976 110.346Z" fill="#AEA898"/>
<path d="M130.312 111.316L129.567 111.764L120.521 106.541L121.267 106.093L130.312 111.316Z" fill="#AEA898"/>
<path d="M128.652 112.286L127.906 112.734L118.861 107.511L119.632 107.063L128.652 112.286Z" fill="#AEA898"/>
<path d="M125.343 114.226L124.572 114.673L115.527 109.451L116.298 109.003L125.343 114.226Z" fill="#AEA898"/>
<path d="M122.015 116.166L121.244 116.589L112.199 111.366L112.97 110.943L122.015 116.166Z" fill="#AEA898"/>
<path d="M126.982 113.256L126.237 113.704L117.191 108.481L117.962 108.033L126.982 113.256Z" fill="#AEA898"/>
<path d="M123.675 115.196L122.905 115.618L113.859 110.395L114.63 109.973L123.675 115.196Z" fill="#AEA898"/>
<path d="M120.343 117.111L119.573 117.558L110.553 112.335L111.298 111.888L120.343 117.111Z" fill="#AEA898"/>
<path d="M103.767 131.089C104.239 131.089 104.687 131.189 105.159 131.214C106.252 131.313 107.37 131.313 108.464 131.214C109.11 131.139 109.781 131.015 110.253 130.592C110.799 130.069 110.775 129.398 110.899 128.726C111.048 127.806 111.172 126.911 111.123 125.991C111.098 125.593 111.048 125.195 110.824 124.871C110.75 124.797 110.675 124.722 110.576 124.697C110.402 124.647 110.203 124.772 110.104 124.946C110.029 125.095 110.004 125.294 109.979 125.493C109.93 126.314 109.806 127.135 109.607 127.93C109.433 128.677 109.209 129.373 108.439 129.671C108.091 129.796 107.718 129.846 107.345 129.87C106.327 129.92 105.283 129.846 104.264 129.771C103.751 129.738 103.237 129.705 102.723 129.671C102.326 129.647 102.102 129.572 101.779 129.348C101.556 129.174 101.158 129.025 100.984 129.348C100.711 129.846 101.083 130.716 101.506 131.015C101.73 131.164 101.978 131.263 102.251 131.263C102.723 131.263 103.196 131.089 103.668 131.089C103.701 131.089 103.734 131.089 103.767 131.089Z" fill="#F68D70"/>
<path d="M109.16 124.374C108.837 125.095 108.812 125.916 108.812 126.712C108.795 127.541 108.787 128.37 108.787 129.199C109.566 129.365 110.344 129.522 111.123 129.671C111.09 128.046 111.057 126.421 111.024 124.796C111.024 124.324 111.123 123.429 110.477 123.304C109.905 123.205 109.359 123.951 109.16 124.374Z" fill="#DEDFE0"/>
<path d="M99.6925 157.353C99.4192 157.776 98.9719 158.099 98.5246 158.373C97.804 158.845 97.0585 159.318 96.2385 159.617C95.4433 159.915 94.5239 160.039 93.7038 159.766C93.5548 159.716 93.356 159.641 93.3311 159.467C93.3063 159.343 93.3808 159.243 93.4305 159.144C94.0517 158.149 95.1451 157.552 96.0645 156.806C96.7603 156.284 97.3815 155.662 97.9034 154.99C98.301 154.518 98.5992 153.996 98.8973 153.424C98.9222 153.374 98.947 153.299 98.9967 153.225C99.3695 153.026 99.7919 152.901 100.339 152.976C100.612 152.976 100.91 153.05 101.084 153.249C101.134 153.299 101.167 153.341 101.183 153.374C101.034 153.672 100.885 153.971 100.736 154.294C100.463 154.891 100.239 155.538 100.065 156.209C99.9658 156.607 99.8913 157.005 99.6925 157.353Z" fill="#464546"/>
<path d="M107.446 159.965C107.346 160.462 107.023 160.91 106.725 161.308C106.203 162.004 105.681 162.701 105.01 163.273C104.364 163.845 103.544 164.267 102.675 164.317C102.501 164.317 102.302 164.292 102.203 164.143C102.153 164.044 102.178 163.919 102.203 163.82C102.451 162.676 103.246 161.731 103.867 160.711C104.315 159.99 104.687 159.194 104.961 158.373C105.16 157.776 105.284 157.179 105.334 156.557C105.334 156.483 105.358 156.408 105.358 156.334C105.632 156.01 106.004 155.761 106.526 155.612C106.8 155.538 107.098 155.513 107.346 155.637C107.396 155.654 107.437 155.679 107.471 155.712C107.446 156.035 107.396 156.383 107.371 156.707C107.321 157.403 107.321 158.05 107.396 158.746C107.446 159.144 107.52 159.567 107.446 159.965Z" fill="#464546"/>
<path d="M111.472 123.18C111.323 123.13 111.174 123.056 111.025 123.031C110.528 122.956 110.08 123.304 109.583 123.279C109.086 123.279 108.664 122.881 108.341 122.459C107.819 121.762 107.521 120.917 107.173 120.121C106.751 119.25 106.626 118.231 106.552 117.285C106.428 115.719 107.223 114.649 108.614 114.027C109.708 113.53 111.049 113.48 112.193 113.779C113.609 114.152 114.354 115.296 114.851 116.614C115.821 119.101 114.528 121.464 112.516 122.956C112.317 123.105 112.093 123.255 111.82 123.255C111.72 123.255 111.596 123.23 111.472 123.18Z" fill="#7C4640"/>
<path d="M117.335 140.068C117.335 140.491 117.261 140.889 117.087 141.262C116.863 141.759 116.441 142.157 115.994 142.505C115.596 142.779 115.124 143.027 114.627 142.978C114.105 142.928 113.683 142.555 113.285 142.182C113.103 142.033 112.929 141.883 112.763 141.734C112.465 141.436 112.167 141.162 111.844 140.864C111.711 140.748 111.579 140.632 111.446 140.515C111.397 140.466 111.372 140.441 111.322 140.416C110.8 139.943 110.03 139.819 109.607 139.222C109.259 138.7 109.458 137.829 109.607 137.257C109.607 137.208 109.632 137.158 109.632 137.083C109.665 136.901 109.698 136.727 109.732 136.561C110.204 134.099 110.229 131.587 110.129 129.075C110.055 127.756 109.781 126.339 109.831 125.021C109.881 124.324 110.055 123.155 110.924 123.155C112.465 123.106 114.055 123.006 115.497 123.553C115.869 123.678 116.242 123.877 116.466 124.175C116.665 124.449 116.764 124.747 116.839 125.07C117.037 126.115 116.839 127.309 116.814 128.353C116.739 131.263 116.59 134.099 116.913 136.959C116.963 137.431 117.037 137.929 117.137 138.401C117.211 138.949 117.335 139.521 117.335 140.068Z" fill="#FBB382"/>
<path d="M98.6218 155.338C99.3176 155.537 100.138 155.513 100.883 155.463C101.206 155.438 102.275 150.464 102.424 149.941C102.896 148.374 103.343 146.758 104.213 145.365C104.784 144.42 105.53 143.574 106.474 143.002C107.22 142.53 109.058 141.336 109.928 141.609C109.879 142.53 108.015 143.624 107.418 144.296C106.499 145.29 106.052 146.584 105.853 147.902C105.48 150.29 105.058 152.677 104.735 155.065C104.635 155.786 104.064 157.676 104.511 158.298C104.983 158.92 107.046 158.82 107.741 158.796C107.741 157.104 108.164 155.637 108.363 153.946C108.561 152.851 108.785 151.757 109.009 150.663C109.208 149.767 109.406 148.897 109.829 148.101C110.574 146.658 111.643 145.838 113.01 145.067C113.78 144.594 114.575 144.221 115.32 143.699C116.041 143.201 116.737 142.555 117.085 141.734C117.333 141.211 117.433 140.615 117.333 140.067C117.333 139.52 117.209 138.948 117.134 138.401C117.035 137.904 116.961 137.431 116.911 136.958C116.886 136.934 116.886 136.934 116.861 136.934C116.638 136.784 116.364 136.784 116.066 136.784C115.867 136.768 115.66 136.735 115.445 136.685C114.674 136.561 113.929 136.262 113.159 136.063C112.339 135.864 111.071 135.615 110.301 136.138C110.102 136.262 109.928 136.411 109.729 136.561C109.332 136.884 108.959 137.182 108.512 137.456C108.446 137.489 108.379 137.522 108.313 137.555C108.263 137.58 108.189 137.63 108.114 137.655C108.114 137.655 108.089 137.655 108.089 137.68C107.791 137.829 107.493 137.978 107.195 138.103C107.17 138.103 107.145 138.103 107.145 138.127C106.375 138.525 105.654 138.973 104.958 139.446C104.089 140.018 103.219 140.416 102.449 141.137C100.436 142.928 99.8643 146.26 99.2927 148.772C99.0194 149.916 98.7957 151.061 98.4727 152.18C98.2242 153.042 97.926 153.888 97.5781 154.717C97.8763 155.04 98.2242 155.214 98.6218 155.338Z" fill="#2A2C2D"/>
<path d="M117.136 137.158C117.161 137.531 117.061 137.904 116.788 138.227C116.415 138.625 115.844 138.774 115.297 138.899C114.8 138.973 114.278 139.048 113.756 138.998C112.166 138.924 110.75 138.028 109.433 137.158C109.333 137.083 109.234 137.008 109.209 136.909C109.209 136.809 109.259 136.735 109.308 136.66C110.302 135.044 109.979 133.551 109.88 131.785C109.814 130.608 109.772 129.431 109.756 128.254C109.731 126.886 109.358 124.623 110.277 123.454C110.427 123.279 110.65 123.155 110.924 123.155C111.189 123.155 111.445 123.147 111.694 123.13C112.265 123.105 112.837 123.105 113.408 123.13C114.129 123.18 114.825 123.304 115.496 123.553C115.869 123.677 116.241 123.876 116.465 124.175C116.581 124.324 116.672 124.49 116.738 124.672C116.763 124.797 116.813 124.921 116.838 125.07C117.036 126.115 116.838 127.309 116.813 128.353C116.813 128.552 116.788 128.751 116.788 128.95C116.788 129.373 116.763 129.796 116.763 130.219V130.99C116.73 131.902 116.73 132.813 116.763 133.725C116.788 134.024 116.788 134.297 116.813 134.596C116.838 135.292 116.912 135.989 117.061 136.66C117.094 136.826 117.119 136.992 117.136 137.158Z" fill="white"/>
<path d="M102.477 129.124C102.477 128.08 100.663 126.264 100.663 126.264L100.166 126.438L102.328 129.547H108.664L108.789 128.826C105.956 128.105 102.477 129.124 102.477 129.124Z" fill="#FFF3DC"/>
<path d="M108.789 128.826L111.696 134.894L111.597 135.317L108.516 129.547L108.789 128.826Z" fill="#DEBC90"/>
<path d="M111.569 135.267L108.91 129.497H102.301L99.8405 125.99L99.6914 126.04L100.362 126.985L102.425 131.089L105.407 135.367L111.395 135.267L111.495 135.441L111.569 135.267Z" fill="#142038"/>
<path d="M102.227 129.671H108.812L111.495 135.441L105.258 135.417L102.227 129.671Z" fill="#27354C"/>
<path d="M102.226 129.671L99.6914 126.04L102.276 131.139L105.258 135.417L102.226 129.671Z" fill="#31415B"/>
<path d="M117.809 131.736C117.809 132.018 117.801 132.291 117.784 132.556C117.66 134.472 115.274 134.223 113.883 134.098C113.112 134.049 112.317 133.974 111.572 133.825C110.603 133.626 109.459 133.701 108.565 134.098C108.49 134.148 108.416 134.173 108.341 134.123C108.292 134.098 108.267 134.024 108.292 133.949C108.316 133.899 108.366 133.85 108.416 133.8C108.565 133.676 108.913 133.327 109.087 133.278C108.755 133.361 108.416 133.419 108.068 133.452C107.944 133.452 107.795 133.452 107.77 133.327C107.72 133.203 107.869 133.104 107.993 133.054C108.308 132.921 108.615 132.789 108.913 132.656C108.565 132.639 108.209 132.631 107.844 132.631C107.745 132.631 107.645 132.606 107.596 132.532C107.546 132.407 107.695 132.308 107.819 132.283C108.333 132.117 108.838 131.951 109.335 131.785C109.534 131.736 109.733 131.711 109.857 131.562C109.956 131.437 109.882 131.238 110.056 131.164C110.155 131.114 110.279 131.213 110.329 131.288C110.876 131.885 111.795 132.283 112.541 132.556C113.46 132.88 114.479 133.004 115.423 132.755C115.597 132.706 115.796 132.656 115.92 132.507C116.392 132.059 116.094 131.363 115.97 130.815C115.796 130.169 115.647 129.497 115.622 128.801C115.622 128.677 115.622 128.552 115.697 128.453C115.771 128.303 115.945 128.279 116.094 128.254C116.442 128.179 116.79 128.154 117.088 128.328C117.66 128.701 117.734 129.423 117.784 130.044C117.834 130.592 117.834 131.189 117.809 131.736Z" fill="#FBB382"/>
<path d="M118.302 130.218C118.054 130.268 117.805 130.343 117.557 130.417C117.458 130.442 117.383 130.467 117.284 130.492C117.101 130.542 116.927 130.591 116.762 130.641C116.745 130.641 116.737 130.641 116.737 130.641C116.439 130.741 116.141 130.815 115.842 130.89C115.743 130.923 115.652 130.956 115.569 130.989C115.494 130.989 115.445 131.014 115.37 131.014C115.171 130.989 115.097 130.716 115.072 130.492C114.997 129.522 114.848 128.527 114.625 127.582C114.575 127.383 114.55 127.184 114.476 127.01C114.351 126.512 114.202 125.99 114.252 125.493C114.277 125.12 114.476 124.747 114.774 124.473C115.196 124.05 115.817 123.876 116.364 124.249C116.513 124.374 116.638 124.498 116.737 124.672C116.911 124.921 117.035 125.244 117.135 125.542C117.607 126.985 118.004 128.452 118.228 129.945C118.253 130.044 118.278 130.119 118.302 130.218Z" fill="#DEDFE0"/>
<path d="M111.273 124.026C111.124 124.424 111.273 124.896 111.646 125.145C111.721 125.17 111.82 125.22 111.919 125.245C111.969 125.269 112.019 125.269 112.044 125.294C112.416 125.369 112.789 125.344 113.112 125.17C113.41 124.996 113.659 124.673 113.634 124.324C113.634 124.2 113.609 124.101 113.584 124.001C113.51 123.752 113.46 123.479 113.435 123.23C113.419 123.131 113.394 123.031 113.361 122.932C113.261 122.384 113.137 121.837 112.963 121.315C112.946 121.265 112.93 121.215 112.913 121.166C112.897 121.149 112.888 121.141 112.888 121.141C112.872 121.124 112.864 121.116 112.864 121.116C112.847 121.099 112.83 121.083 112.814 121.066C112.739 121.016 112.665 121.016 112.565 120.992C112.218 120.992 111.646 121.041 111.348 121.29C111.224 121.39 111.199 121.489 111.174 121.588C111.174 121.787 111.348 122.011 111.422 122.235C111.522 122.509 111.696 122.857 111.696 123.155C111.696 123.305 111.646 123.429 111.596 123.553C111.522 123.678 111.447 123.752 111.348 123.852C111.315 123.902 111.29 123.96 111.273 124.026Z" fill="#FBB382"/>
<path d="M111.348 123.851C111.315 123.901 111.29 123.959 111.273 124.026C111.29 124.026 111.306 124.026 111.323 124.026C111.522 124.075 111.721 124.026 111.919 123.951C112.342 123.802 112.963 123.553 113.261 123.13C113.311 123.064 113.344 122.998 113.361 122.931C113.261 122.384 113.137 121.837 112.963 121.315C112.946 121.265 112.93 121.215 112.913 121.165C112.897 121.149 112.888 121.141 112.888 121.141C112.872 121.124 112.864 121.116 112.864 121.116C112.847 121.099 112.83 121.082 112.814 121.066C112.739 121.016 112.665 121.016 112.565 120.991C112.242 120.966 111.621 121.041 111.373 121.265C111.373 121.265 111.364 121.273 111.348 121.29C111.273 121.364 111.224 121.464 111.174 121.588C111.174 121.787 111.348 122.011 111.422 122.235C111.522 122.508 111.696 122.857 111.696 123.155C111.696 123.304 111.646 123.429 111.596 123.553C111.522 123.677 111.447 123.752 111.348 123.851Z" fill="#F68D70"/>
<path d="M112.861 121.862C112.736 122.11 112.612 122.309 112.463 122.483C111.916 123.205 111.295 123.826 110.351 123.926C109.481 124.025 108.661 123.528 108.264 122.782C107.692 121.787 107.816 120.618 107.518 119.549C107.369 119.026 107.195 118.479 107.145 117.957C107.096 117.733 107.096 117.509 107.096 117.285C107.121 117.211 107.22 116.912 107.195 116.838C107.195 116.838 107.593 117.783 108.785 117.982C109.978 118.206 112.14 118.927 112.364 119.847C112.364 119.847 112.438 118.056 113.482 118.678C114.029 118.977 113.681 119.971 113.532 120.394C113.358 120.842 113.134 121.389 112.861 121.862Z" fill="#FBB382"/>
<path d="M146.114 144.868L130.533 153.946L141.293 160.163L156.873 151.11L146.114 144.868Z" fill="#FEFAEF"/>
<path d="M156.883 151.11V152.08L141.303 161.133V160.163L156.883 151.11Z" fill="#AEA17F"/>
<path d="M141.293 160.164V161.134L130.533 154.916V153.946L141.293 160.164Z" fill="#D8D0B9"/>
<path d="M151.558 152.553L141.37 158.497L133.418 153.896L143.631 147.951L151.558 152.553Z" fill="#C8C4B9"/>
<path d="M153.993 151.135L152.652 151.906L144.725 147.33L146.066 146.534L153.993 151.135Z" fill="#C8C4B9"/>
<path d="M146.114 143.897L130.533 152.95L141.293 159.168L156.873 150.115L146.114 143.897Z" fill="#FEFAEF"/>
<path d="M156.883 150.115V151.11L141.303 160.163V159.168L156.883 150.115Z" fill="#C9C19D"/>
<path d="M141.293 159.168V160.163L130.533 153.945V152.95L141.293 159.168Z" fill="#AA9F81"/>
<path d="M151.558 151.557L141.37 157.502L133.418 152.9L143.631 146.981L151.558 151.557Z" fill="#C8C4B9"/>
<path d="M153.993 150.14L152.652 150.936L144.725 146.335L146.066 145.564L153.993 150.14Z" fill="#C8C4B9"/>
<path d="M146.114 142.903L130.533 151.956L141.293 158.174L156.873 149.12L146.114 142.903Z" fill="#FEFAEF"/>
<path d="M156.883 149.12V150.115L141.303 159.168V158.174L156.883 149.12Z" fill="#AEA17F"/>
<path d="M141.293 158.174V159.169L130.533 152.951V151.956L141.293 158.174Z" fill="#D8D0B9"/>
<path d="M151.558 150.588L141.37 156.507L133.418 151.931L143.631 145.987L151.558 150.588Z" fill="#C8C4B9"/>
<path d="M153.993 149.17L152.652 149.941L144.725 145.34L146.066 144.569L153.993 149.17Z" fill="#C8C4B9"/>
<path d="M146.114 141.907L130.533 150.961L141.293 157.203L156.873 148.125L146.114 141.907Z" fill="#FEFAEF"/>
<path d="M156.883 148.125V149.12L141.303 158.173V157.203L156.883 148.125Z" fill="#C9C19D"/>
<path d="M141.293 157.203V158.173L130.533 151.955V150.961L141.293 157.203Z" fill="#AA9F81"/>
<path d="M151.558 149.593L141.37 155.537L133.418 150.936L143.631 144.991L151.558 149.593Z" fill="#C8C4B9"/>
<path d="M153.993 148.175L152.652 148.946L144.725 144.37L146.066 143.574L153.993 148.175Z" fill="#C8C4B9"/>
<path d="M146.114 140.938L130.533 149.991L141.293 156.209L156.873 147.156L146.114 140.938Z" fill="#FEFAEF"/>
<path d="M156.883 147.156V148.126L141.303 157.204V156.209L156.883 147.156Z" fill="#AEA17F"/>
<path d="M141.293 156.209V157.204L130.533 150.961V149.991L141.293 156.209Z" fill="#D8D0B9"/>
<path d="M151.558 148.598L141.37 154.542L133.418 149.941L143.631 144.022L151.558 148.598Z" fill="#C8C4B9"/>
<path d="M153.993 147.18L152.652 147.951L144.725 143.375L146.066 142.604L153.993 147.18Z" fill="#C8C4B9"/>
<path d="M146.114 139.943L130.533 148.996L141.293 155.214L156.873 146.161L146.114 139.943Z" fill="#FEFAEF"/>
<path d="M156.883 146.161V147.156L141.303 156.209V155.214L156.883 146.161Z" fill="#C9C19D"/>
<path d="M141.293 155.214V156.209L130.533 149.991V148.996L141.293 155.214Z" fill="#AA9F81"/>
<path d="M151.558 147.603L141.37 153.548L133.418 148.971L143.631 143.027L151.558 147.603Z" fill="#C8C4B9"/>
<path d="M153.993 146.186L152.652 146.982L144.725 142.38L146.066 141.609L153.993 146.186Z" fill="#C8C4B9"/>
<path d="M63.6162 143.897L48.0605 152.95L58.8203 159.168L74.3759 150.115L63.6162 143.897Z" fill="#FEFAEF"/>
<path d="M74.3759 150.115V151.11L58.8203 160.163V159.169L74.3759 150.115Z" fill="#AEA17F"/>
<path d="M58.8261 159.168V160.163L48.0664 153.945V152.95L58.8261 159.168Z" fill="#D8D0B9"/>
<path d="M69.0808 151.557L58.8678 157.502L50.916 152.9L61.1291 146.981L69.0808 151.557Z" fill="#C8C4B9"/>
<path d="M71.5163 150.14L70.1744 150.936L62.2227 146.334L63.5645 145.563L71.5163 150.14Z" fill="#C8C4B9"/>
<path d="M63.6162 142.903L48.0605 151.956L58.8203 158.174L74.3759 149.12L63.6162 142.903Z" fill="#FEFAEF"/>
<path d="M74.3759 149.12V150.115L58.8203 159.168V158.173L74.3759 149.12Z" fill="#C9C19D"/>
<path d="M58.8261 158.174V159.169L48.0664 152.951V151.956L58.8261 158.174Z" fill="#AA9F81"/>
<path d="M69.0808 150.588L58.8678 156.507L50.916 151.931L61.1291 145.987L69.0808 150.588Z" fill="#C8C4B9"/>
<path d="M71.5163 149.17L70.1744 149.941L62.2227 145.34L63.5645 144.569L71.5163 149.17Z" fill="#C8C4B9"/>
<path d="M63.6162 141.907L48.0605 150.961L58.8203 157.203L74.3759 148.125L63.6162 141.907Z" fill="#FEFAEF"/>
<path d="M74.3759 148.125V149.12L58.8203 158.173V157.203L74.3759 148.125Z" fill="#AEA17F"/>
<path d="M58.8261 157.203V158.173L48.0664 151.955V150.96L58.8261 157.203Z" fill="#D8D0B9"/>
<path d="M69.0808 149.593L58.8678 155.537L50.916 150.936L61.1291 144.991L69.0808 149.593Z" fill="#C8C4B9"/>
<path d="M71.5163 148.175L70.1744 148.946L62.2227 144.37L63.5645 143.574L71.5163 148.175Z" fill="#C8C4B9"/>
<path d="M63.6162 140.938L48.0605 149.991L58.8203 156.209L74.3759 147.156L63.6162 140.938Z" fill="#FEFAEF"/>
<path d="M74.3759 147.155V148.125L58.8203 157.203V156.209L74.3759 147.155Z" fill="#C9C19D"/>
<path d="M58.8261 156.209V157.204L48.0664 150.961V149.991L58.8261 156.209Z" fill="#AA9F81"/>
<path d="M69.0808 148.598L58.8678 154.542L50.916 149.941L61.1291 144.022L69.0808 148.598Z" fill="#C8C4B9"/>
<path d="M71.5163 147.18L70.1744 147.951L62.2227 143.375L63.5645 142.604L71.5163 147.18Z" fill="#C8C4B9"/>
<path d="M63.6162 139.943L48.0605 148.996L58.8203 155.214L74.3759 146.16L63.6162 139.943Z" fill="#FEFAEF"/>
<path d="M74.3759 146.16V147.155L58.8203 156.208V155.213L74.3759 146.16Z" fill="#AEA17F"/>
<path d="M58.8261 155.213V156.208L48.0664 149.99V148.996L58.8261 155.213Z" fill="#D8D0B9"/>
<path d="M69.0808 147.603L58.8678 153.547L50.916 148.971L61.1291 143.026L69.0808 147.603Z" fill="#C8C4B9"/>
<path d="M71.5163 146.185L70.1744 146.981L62.2227 142.38L63.5645 141.609L71.5163 146.185Z" fill="#C8C4B9"/>
<path d="M63.6162 138.948L48.0605 148.001L58.8203 154.219L74.3759 145.165L63.6162 138.948Z" fill="#FEFAEF"/>
<path d="M74.3759 145.165V146.16L58.8203 155.213V154.218L74.3759 145.165Z" fill="#C9C19D"/>
<path d="M58.8261 154.218V155.213L48.0664 148.995V148L58.8261 154.218Z" fill="#AA9F81"/>
<path d="M69.0808 146.633L58.8678 152.552L50.916 147.976L61.1291 142.032L69.0808 146.633Z" fill="#C8C4B9"/>
<path d="M71.5163 145.215L70.1744 145.986L62.2227 141.385L63.5645 140.614L71.5163 145.215Z" fill="#C8C4B9"/>
<path d="M32.3699 106.491L8.51465 120.27L43.9745 140.888L67.805 127.109L32.3699 106.491Z" fill="#DBCF97"/>
<path d="M8.51465 120.27V121.886L43.9745 142.53V140.888L8.51465 120.27Z" fill="#C4A373"/>
<path d="M43.9805 140.888V142.53L67.8357 128.751L67.8109 127.109L43.9805 140.888Z" fill="#AE8963"/>
<path d="M24.3926 117.584L25.312 118.131L35.9723 111.963L35.0529 111.441L24.3926 117.584Z" fill="#A87E62"/>
<path d="M40.8457 118.454L41.7403 118.977L44.8961 117.161L44.0016 116.639L40.8457 118.454Z" fill="#A87E62"/>
<path d="M20.4473 119.897L21.3418 120.419L22.7831 119.573L21.8885 119.051L20.4473 119.897Z" fill="#A87E62"/>
<path d="M15.1289 120.718L16.0235 121.24L21.8382 117.907L20.9188 117.385L15.1289 120.718Z" fill="#A87E62"/>
<path d="M17.0664 121.837L17.961 122.359L20.8435 120.693L19.9489 120.171L17.0664 121.837Z" fill="#A87E62"/>
<path d="M48.0801 122.682L48.9995 123.205L52.1554 121.364L51.2608 120.842L48.0801 122.682Z" fill="#A87E62"/>
<path d="M24.3008 126.065L25.1954 126.587L28.1027 124.921L27.2081 124.374L24.3008 126.065Z" fill="#A87E62"/>
<path d="M28.7734 121.265L29.668 121.787L31.6063 120.668L30.7117 120.121L28.7734 121.265Z" fill="#A87E62"/>
<path d="M25.9844 127.035L26.8789 127.557L36.0235 122.284L35.1289 121.762L25.9844 127.035Z" fill="#A87E62"/>
<path d="M29.6172 129.149L30.5366 129.671L36.3265 126.338L35.4319 125.816L29.6172 129.149Z" fill="#A87E62"/>
<path d="M46.1445 130.244L47.0639 130.766L57.6994 124.598L56.8049 124.075L46.1445 130.244Z" fill="#A87E62"/>
<path d="M36.0059 125.468L36.9004 125.99L38.8387 124.871L37.9441 124.349L36.0059 125.468Z" fill="#A87E62"/>
<path d="M33.2422 131.263L34.1368 131.785L43.2813 126.513L42.3619 125.99L33.2422 131.263Z" fill="#A87E62"/>
<path d="M35.0566 132.307L35.9512 132.83L44.0521 128.154L43.1575 127.632L35.0566 132.307Z" fill="#A87E62"/>
<path d="M42.1934 132.532L43.0879 133.054L44.5292 132.233L43.6346 131.711L42.1934 132.532Z" fill="#A87E62"/>
<path d="M38.7832 134.496L39.7026 135.019L42.5851 133.327L41.6906 132.805L38.7832 134.496Z" fill="#A87E62"/>
<path d="M43.2559 129.671L44.1504 130.219L46.0887 129.075L45.1941 128.552L43.2559 129.671Z" fill="#A87E62"/>
<path d="M40.4766 135.466L41.396 135.989L50.5157 130.716L49.6211 130.193L40.4766 135.466Z" fill="#A87E62"/>
<path d="M26.5625 114.127L27.4571 114.649L34.0421 110.844L33.1475 110.321L26.5625 114.127Z" fill="#A87E62"/>
<path d="M33.5879 114.251L34.5073 114.773L37.6632 112.933L36.7437 112.411L33.5879 114.251Z" fill="#A87E62"/>
<path d="M31.7285 115.32L32.6231 115.843L34.114 114.997L33.2195 114.475L31.7285 115.32Z" fill="#A87E62"/>
<path d="M24.0508 115.569L24.9454 116.091L26.8836 114.972L25.989 114.45L24.0508 115.569Z" fill="#A87E62"/>
<path d="M29.9395 116.365L30.834 116.887L32.325 116.017L31.4304 115.495L29.9395 116.365Z" fill="#A87E62"/>
<path d="M21.5137 117.037L22.4082 117.559L24.3465 116.44L23.4519 115.918L21.5137 117.037Z" fill="#A87E62"/>
<path d="M28.1465 117.385L29.0411 117.932L30.532 117.062L29.6374 116.539L28.1465 117.385Z" fill="#A87E62"/>
<path d="M33.791 118.33L34.7104 118.852L41.2955 115.047L40.4009 114.525L33.791 118.33Z" fill="#A87E62"/>
<path d="M22.332 118.802L23.2266 119.325L24.6679 118.479L23.7733 117.957L22.332 118.802Z" fill="#A87E62"/>
<path d="M28.9902 119.001L29.8848 119.524L39.4766 114.002L38.5572 113.48L28.9902 119.001Z" fill="#A87E62"/>
<path d="M38.9648 119.549L39.8843 120.071L41.3752 119.2L40.4558 118.678L38.9648 119.549Z" fill="#A87E62"/>
<path d="M31.2852 119.797L32.2046 120.32L34.1428 119.2L33.2234 118.678L31.2852 119.797Z" fill="#A87E62"/>
<path d="M37.1758 120.568L38.0952 121.091L39.5862 120.245L38.6916 119.723L37.1758 120.568Z" fill="#A87E62"/>
<path d="M35.4062 121.613L36.3008 122.135L37.7918 121.265L36.8972 120.742L35.4062 121.613Z" fill="#A87E62"/>
<path d="M31.6523 121.812L32.5469 122.334L43.2072 116.166L42.3127 115.644L31.6523 121.812Z" fill="#A87E62"/>
<path d="M41.0449 122.558L41.9395 123.08L48.5245 119.275L47.63 118.753L41.0449 122.558Z" fill="#A87E62"/>
<path d="M18.7598 122.832L19.6543 123.354L28.7989 118.081L27.8794 117.559L18.7598 122.832Z" fill="#A87E62"/>
<path d="M29.5879 123.006L30.4825 123.528L31.9237 122.707L31.0291 122.16L29.5879 123.006Z" fill="#A87E62"/>
<path d="M36.248 123.23L37.1426 123.752L46.7096 118.206L45.815 117.683L36.248 123.23Z" fill="#A87E62"/>
<path d="M46.2168 123.752L47.1114 124.274L48.6023 123.429L47.7078 122.906L46.2168 123.752Z" fill="#A87E62"/>
<path d="M20.5684 123.876L21.4629 124.399L29.5638 119.723L28.6444 119.201L20.5684 123.876Z" fill="#A87E62"/>
<path d="M38.5332 124L39.4278 124.523L41.366 123.404L40.4714 122.881L38.5332 124Z" fill="#A87E62"/>
<path d="M27.6816 124.1L28.6011 124.622L30.0423 123.801L29.1229 123.279L27.6816 124.1Z" fill="#A87E62"/>
<path d="M44.4277 124.796L45.3223 125.319L46.8133 124.448L45.9187 123.926L44.4277 124.796Z" fill="#A87E62"/>
<path d="M22.3828 124.946L23.2774 125.468L29.0673 122.11L28.1727 121.588L22.3828 124.946Z" fill="#A87E62"/>
<path d="M42.6387 125.816L43.5332 126.339L45.0242 125.493L44.1296 124.971L42.6387 125.816Z" fill="#A87E62"/>
<path d="M38.9102 126.015L39.8047 126.537L50.4651 120.394L49.5705 119.872L38.9102 126.015Z" fill="#A87E62"/>
<path d="M48.3008 126.761L49.1954 127.284L55.7804 123.478L54.8858 122.956L48.3008 126.761Z" fill="#A87E62"/>
<path d="M55.3379 126.886L56.2325 127.408L59.3883 125.592L58.4937 125.07L55.3379 126.886Z" fill="#A87E62"/>
<path d="M36.8242 127.209L37.7436 127.756L39.1849 126.911L38.2655 126.388L36.8242 127.209Z" fill="#A87E62"/>
<path d="M43.4766 127.433L44.396 127.955L53.9629 122.434L53.0684 121.912L43.4766 127.433Z" fill="#A87E62"/>
<path d="M53.4707 127.98L54.3653 128.502L55.8562 127.632L54.9617 127.109L53.4707 127.98Z" fill="#A87E62"/>
<path d="M27.8027 128.104L28.7222 128.627L36.7982 123.951L35.9036 123.429L27.8027 128.104Z" fill="#A87E62"/>
<path d="M45.7676 128.229L46.687 128.751L48.6252 127.632L47.7307 127.109L45.7676 128.229Z" fill="#A87E62"/>
<path d="M34.9355 128.328L35.8301 128.85L37.2714 128.005L36.3768 127.483L34.9355 128.328Z" fill="#A87E62"/>
<path d="M51.6816 129L52.5762 129.522L54.0672 128.676L53.1726 128.154L51.6816 129Z" fill="#A87E62"/>
<path d="M49.8984 130.044L50.793 130.567L52.284 129.696L51.3894 129.174L49.8984 130.044Z" fill="#A87E62"/>
<path d="M31.5566 130.268L32.4512 130.791L35.3586 129.124L34.4392 128.602L31.5566 130.268Z" fill="#A87E62"/>
<path d="M44.0801 131.437L44.9747 131.959L46.4159 131.138L45.5213 130.591L44.0801 131.437Z" fill="#A87E62"/>
<path d="M50.7422 131.661L51.6368 132.184L61.2286 126.637L60.3091 126.115L50.7422 131.661Z" fill="#A87E62"/>
<path d="M36.875 133.377L37.7696 133.899L43.5595 130.542L42.6649 130.02L36.875 133.377Z" fill="#A87E62"/>
<path d="M42.3145 136.536L43.209 137.058L51.285 132.382L50.3905 131.86L42.3145 136.536Z" fill="#A87E62"/>
<path d="M32.3699 104.874L8.51465 118.653L43.9745 139.271L67.805 125.492L32.3699 104.874Z" fill="#F4E9B8"/>
<path d="M8.51465 118.653V120.269L43.9745 140.913V139.271L8.51465 118.653Z" fill="#DDBE90"/>
<path d="M43.9805 139.271V140.913L67.8357 127.134L67.8109 125.493L43.9805 139.271Z" fill="#C7A37E"/>
<path d="M24.3926 115.992L25.312 116.514L35.9723 110.346L35.0529 109.823L24.3926 115.992Z" fill="#C1987D"/>
<path d="M40.8438 116.837L41.7383 117.36L44.8942 115.544L43.9996 115.022L40.8438 116.837Z" fill="#C1987D"/>
<path d="M20.4473 118.28L21.3418 118.802L22.7831 117.956L21.8885 117.434L20.4473 118.28Z" fill="#C1987D"/>
<path d="M15.1289 119.101L16.0235 119.623L21.8382 116.29L20.9188 115.768L15.1289 119.101Z" fill="#C1987D"/>
<path d="M17.0664 120.22L17.961 120.742L20.8435 119.076L19.9489 118.553L17.0664 120.22Z" fill="#C1987D"/>
<path d="M48.0801 121.066L48.9995 121.588L52.1554 119.747L51.2608 119.225L48.0801 121.066Z" fill="#C1987D"/>
<path d="M24.3027 124.448L25.1973 124.97L28.1047 123.304L27.2101 122.781L24.3027 124.448Z" fill="#C1987D"/>
<path d="M28.7734 119.648L29.668 120.17L31.6063 119.051L30.7117 118.504L28.7734 119.648Z" fill="#C1987D"/>
<path d="M25.9844 125.418L26.8789 125.941L36.0235 120.668L35.1289 120.146L25.9844 125.418Z" fill="#C1987D"/>
<path d="M29.6172 127.532L30.5366 128.055L36.3265 124.722L35.4319 124.199L29.6172 127.532Z" fill="#C1987D"/>
<path d="M46.1445 128.626L47.0639 129.149L57.6994 122.981L56.8049 122.458L46.1445 128.626Z" fill="#C1987D"/>
<path d="M36.0059 123.851L36.9004 124.374L38.8387 123.254L37.9441 122.732L36.0059 123.851Z" fill="#C1987D"/>
<path d="M33.2422 129.646L34.1368 130.168L43.2813 124.896L42.3619 124.373L33.2422 129.646Z" fill="#C1987D"/>
<path d="M35.0566 130.691L35.9512 131.213L44.0521 126.537L43.1575 126.015L35.0566 130.691Z" fill="#C1987D"/>
<path d="M42.1934 130.915L43.0879 131.437L44.5292 130.616L43.6346 130.094L42.1934 130.915Z" fill="#C1987D"/>
<path d="M38.7832 132.88L39.7026 133.402L42.5851 131.736L41.6906 131.188L38.7832 132.88Z" fill="#C1987D"/>
<path d="M43.2559 128.079L44.1504 128.601L46.0887 127.457L45.1941 126.935L43.2559 128.079Z" fill="#C1987D"/>
<path d="M40.4766 133.85L41.396 134.372L50.5157 129.099L49.6211 128.577L40.4766 133.85Z" fill="#C1987D"/>
<path d="M26.5625 112.509L27.4571 113.032L34.0421 109.226L33.1475 108.704L26.5625 112.509Z" fill="#C1987D"/>
<path d="M33.5879 112.634L34.5073 113.156L37.6632 111.341L36.7437 110.794L33.5879 112.634Z" fill="#C1987D"/>
<path d="M31.7285 113.704L32.6231 114.251L34.114 113.38L33.2195 112.858L31.7285 113.704Z" fill="#C1987D"/>
<path d="M24.0508 113.952L24.9454 114.475L26.8836 113.355L25.989 112.833L24.0508 113.952Z" fill="#C1987D"/>
<path d="M29.9395 114.748L30.834 115.27L32.325 114.4L31.4304 113.878L29.9395 114.748Z" fill="#C1987D"/>
<path d="M21.5137 115.42L22.4082 115.942L24.3465 114.823L23.4519 114.301L21.5137 115.42Z" fill="#C1987D"/>
<path d="M28.1465 115.768L29.0411 116.315L30.532 115.444L29.6374 114.922L28.1465 115.768Z" fill="#C1987D"/>
<path d="M33.791 116.713L34.7104 117.235L41.2955 113.43L40.4009 112.908L33.791 116.713Z" fill="#C1987D"/>
<path d="M22.332 117.186L23.2266 117.708L24.6679 116.862L23.7733 116.34L22.332 117.186Z" fill="#C1987D"/>
<path d="M28.9902 117.385L29.8848 117.907L39.4766 112.386L38.5572 111.863L28.9902 117.385Z" fill="#C1987D"/>
<path d="M38.9648 117.932L39.8843 118.454L41.3752 117.583L40.4558 117.061L38.9648 117.932Z" fill="#C1987D"/>
<path d="M31.2852 118.18L32.2046 118.703L34.1428 117.583L33.2234 117.061L31.2852 118.18Z" fill="#C1987D"/>
<path d="M37.1758 118.951L38.0952 119.499L39.5862 118.628L38.6916 118.106L37.1758 118.951Z" fill="#C1987D"/>
<path d="M35.4062 119.996L36.3008 120.519L37.7918 119.648L36.8972 119.126L35.4062 119.996Z" fill="#C1987D"/>
<path d="M31.6523 120.195L32.5469 120.717L43.2072 114.549L42.3127 114.027L31.6523 120.195Z" fill="#C1987D"/>
<path d="M41.0449 120.941L41.9395 121.464L48.5245 117.658L47.63 117.136L41.0449 120.941Z" fill="#C1987D"/>
<path d="M18.7598 121.215L19.6543 121.737L28.7989 116.464L27.8794 115.942L18.7598 121.215Z" fill="#C1987D"/>
<path d="M29.5879 121.389L30.4825 121.911L31.9237 121.091L31.0291 120.568L29.5879 121.389Z" fill="#C1987D"/>
<path d="M36.248 121.613L37.1426 122.135L46.7096 116.589L45.815 116.066L36.248 121.613Z" fill="#C1987D"/>
<path d="M46.2168 122.135L47.1114 122.657L48.6023 121.812L47.7078 121.289L46.2168 122.135Z" fill="#C1987D"/>
<path d="M20.5684 122.259L21.4629 122.781L29.5638 118.106L28.6444 117.583L20.5684 122.259Z" fill="#C1987D"/>
<path d="M38.5332 122.384L39.4278 122.906L41.366 121.787L40.4714 121.265L38.5332 122.384Z" fill="#C1987D"/>
<path d="M27.6816 122.483L28.6011 123.006L30.0423 122.185L29.1229 121.662L27.6816 122.483Z" fill="#C1987D"/>
<path d="M44.4277 123.18L45.3223 123.702L46.8133 122.831L45.9187 122.309L44.4277 123.18Z" fill="#C1987D"/>
<path d="M22.3828 123.329L23.2774 123.851L29.0673 120.493L28.1727 119.971L22.3828 123.329Z" fill="#C1987D"/>
<path d="M42.6387 124.199L43.5332 124.722L45.0242 123.876L44.1296 123.354L42.6387 124.199Z" fill="#C1987D"/>
<path d="M38.9102 124.398L39.8047 124.946L50.4651 118.777L49.5705 118.255L38.9102 124.398Z" fill="#C1987D"/>
<path d="M48.3008 125.144L49.1954 125.667L55.7804 121.861L54.8858 121.339L48.3008 125.144Z" fill="#C1987D"/>
<path d="M55.3379 125.269L56.2325 125.791L59.3883 123.976L58.4937 123.453L55.3379 125.269Z" fill="#C1987D"/>
<path d="M36.8242 125.617L37.7436 126.139L39.1849 125.294L38.2655 124.771L36.8242 125.617Z" fill="#C1987D"/>
<path d="M43.4766 125.816L44.396 126.338L53.9629 120.817L53.0684 120.294L43.4766 125.816Z" fill="#C1987D"/>
<path d="M53.4707 126.363L54.3653 126.885L55.8562 126.015L54.9617 125.492L53.4707 126.363Z" fill="#C1987D"/>
<path d="M27.8027 126.487L28.7222 127.01L36.7982 122.334L35.9036 121.812L27.8027 126.487Z" fill="#C1987D"/>
<path d="M45.7676 126.612L46.687 127.134L48.6252 126.015L47.7307 125.492L45.7676 126.612Z" fill="#C1987D"/>
<path d="M34.9355 126.711L35.8301 127.233L37.2714 126.388L36.3768 125.865L34.9355 126.711Z" fill="#C1987D"/>
<path d="M51.6816 127.383L52.5762 127.905L54.0672 127.06L53.1726 126.537L51.6816 127.383Z" fill="#C1987D"/>
<path d="M49.8984 128.427L50.793 128.95L52.284 128.079L51.3894 127.557L49.8984 128.427Z" fill="#C1987D"/>
<path d="M31.5566 128.651L32.4512 129.174L35.3586 127.507L34.4392 126.985L31.5566 128.651Z" fill="#C1987D"/>
<path d="M44.0801 129.82L44.9747 130.343L46.4159 129.522L45.5213 128.975L44.0801 129.82Z" fill="#C1987D"/>
<path d="M50.7422 130.044L51.6368 130.566L61.2286 125.02L60.3091 124.498L50.7422 130.044Z" fill="#C1987D"/>
<path d="M36.875 131.76L37.7696 132.282L43.5595 128.925L42.6649 128.402L36.875 131.76Z" fill="#C1987D"/>
<path d="M42.3145 134.919L43.209 135.441L51.285 130.765L50.3905 130.243L42.3145 134.919Z" fill="#C1987D"/>
<path d="M32.3699 103.357L8.51465 117.136L43.9745 137.754L67.805 123.975L32.3699 103.357Z" fill="#DBCF97"/>
<path d="M8.51465 117.136V118.752L43.9745 139.371V137.754L8.51465 117.136Z" fill="#C4A373"/>
<path d="M43.9805 137.754V139.37L67.8357 125.617L67.8109 123.975L43.9805 137.754Z" fill="#AE8963"/>
<path d="M24.3926 114.45L25.312 114.972L35.9723 108.829L35.0529 108.307L24.3926 114.45Z" fill="#A87E62"/>
<path d="M40.8457 115.32L41.7403 115.843L44.8961 114.027L44.0016 113.505L40.8457 115.32Z" fill="#A87E62"/>
<path d="M20.4473 116.763L21.3418 117.286L22.7831 116.44L21.8885 115.918L20.4473 116.763Z" fill="#A87E62"/>
<path d="M15.1289 117.584L16.0235 118.106L21.8382 114.773L20.9188 114.251L15.1289 117.584Z" fill="#A87E62"/>
<path d="M17.0664 118.703L17.961 119.225L20.8435 117.559L19.9489 117.037L17.0664 118.703Z" fill="#A87E62"/>
<path d="M48.0801 119.549L48.9995 120.071L52.1554 118.23L51.2608 117.708L48.0801 119.549Z" fill="#A87E62"/>
<path d="M24.3008 122.931L25.1954 123.453L28.1027 121.762L27.2081 121.24L24.3008 122.931Z" fill="#A87E62"/>
<path d="M28.7734 118.106L29.668 118.628L31.6063 117.509L30.7117 116.987L28.7734 118.106Z" fill="#A87E62"/>
<path d="M25.9844 123.901L26.8789 124.423L36.0235 119.15L35.1289 118.628L25.9844 123.901Z" fill="#A87E62"/>
<path d="M29.6172 126.015L30.5366 126.538L36.3265 123.205L35.4319 122.658L29.6172 126.015Z" fill="#A87E62"/>
<path d="M46.1445 127.109L47.0639 127.632L57.6994 121.464L56.8049 120.941L46.1445 127.109Z" fill="#A87E62"/>
<path d="M36.0059 122.334L36.9004 122.856L38.8387 121.737L37.9441 121.215L36.0059 122.334Z" fill="#A87E62"/>
<path d="M33.2422 128.129L34.1368 128.651L43.2813 123.354L42.3619 122.832L33.2422 128.129Z" fill="#A87E62"/>
<path d="M35.0566 129.174L35.9512 129.696L44.0521 125.02L43.1575 124.498L35.0566 129.174Z" fill="#A87E62"/>
<path d="M42.1934 129.397L43.0879 129.92L44.5292 129.099L43.6346 128.552L42.1934 129.397Z" fill="#A87E62"/>
<path d="M38.7832 131.362L39.7026 131.885L42.5851 130.193L41.6906 129.671L38.7832 131.362Z" fill="#A87E62"/>
<path d="M43.2559 126.537L44.1504 127.059L46.0887 125.94L45.1941 125.418L43.2559 126.537Z" fill="#A87E62"/>
<path d="M40.4766 132.333L41.396 132.855L50.5157 127.582L49.6211 127.06L40.4766 132.333Z" fill="#A87E62"/>
<path d="M26.5625 110.993L27.4571 111.515L34.0421 107.71L33.1475 107.187L26.5625 110.993Z" fill="#A87E62"/>
<path d="M33.5879 111.117L34.5073 111.64L37.6632 109.799L36.7437 109.277L33.5879 111.117Z" fill="#A87E62"/>
<path d="M31.7285 112.186L32.6231 112.709L34.114 111.863L33.2195 111.341L31.7285 112.186Z" fill="#A87E62"/>
<path d="M24.0508 112.435L24.9454 112.957L26.8836 111.838L25.989 111.316L24.0508 112.435Z" fill="#A87E62"/>
<path d="M29.9395 113.231L30.834 113.753L32.325 112.883L31.4304 112.361L29.9395 113.231Z" fill="#A87E62"/>
<path d="M21.5137 113.903L22.4082 114.425L24.3465 113.306L23.4519 112.784L21.5137 113.903Z" fill="#A87E62"/>
<path d="M28.1465 114.251L29.0411 114.773L30.532 113.928L29.6374 113.405L28.1465 114.251Z" fill="#A87E62"/>
<path d="M33.791 115.196L34.7104 115.718L41.2955 111.913L40.4009 111.391L33.791 115.196Z" fill="#A87E62"/>
<path d="M22.332 115.644L23.2266 116.166L24.6679 115.345L23.7733 114.823L22.332 115.644Z" fill="#A87E62"/>
<path d="M28.9902 115.868L29.8848 116.39L39.4766 110.868L38.5572 110.346L28.9902 115.868Z" fill="#A87E62"/>
<path d="M38.9648 116.415L39.8843 116.937L41.3752 116.067L40.4558 115.544L38.9648 116.415Z" fill="#A87E62"/>
<path d="M31.2852 116.664L32.2046 117.186L34.1428 116.067L33.2234 115.545L31.2852 116.664Z" fill="#A87E62"/>
<path d="M37.1758 117.435L38.0952 117.957L39.5862 117.111L38.6916 116.589L37.1758 117.435Z" fill="#A87E62"/>
<path d="M35.4062 118.479L36.3008 119.001L37.7918 118.131L36.8972 117.609L35.4062 118.479Z" fill="#A87E62"/>
<path d="M31.6523 118.678L32.5469 119.2L43.2072 113.032L42.3127 112.51L31.6523 118.678Z" fill="#A87E62"/>
<path d="M41.0449 119.424L41.9395 119.946L48.5245 116.141L47.63 115.619L41.0449 119.424Z" fill="#A87E62"/>
<path d="M18.7598 119.698L19.6543 120.22L28.7989 114.947L27.8794 114.4L18.7598 119.698Z" fill="#A87E62"/>
<path d="M29.5879 119.872L30.4825 120.394L31.9237 119.548L31.0291 119.026L29.5879 119.872Z" fill="#A87E62"/>
<path d="M36.248 120.096L37.1426 120.618L46.7096 115.072L45.815 114.549L36.248 120.096Z" fill="#A87E62"/>
<path d="M46.2168 120.618L47.1114 121.14L48.6023 120.295L47.7078 119.772L46.2168 120.618Z" fill="#A87E62"/>
<path d="M20.5684 120.742L21.4629 121.265L29.5638 116.589L28.6444 116.067L20.5684 120.742Z" fill="#A87E62"/>
<path d="M38.5332 120.867L39.4278 121.389L41.366 120.27L40.4714 119.747L38.5332 120.867Z" fill="#A87E62"/>
<path d="M27.6816 120.966L28.6011 121.488L30.0423 120.668L29.1229 120.145L27.6816 120.966Z" fill="#A87E62"/>
<path d="M44.4277 121.663L45.3223 122.185L46.8133 121.314L45.9187 120.792L44.4277 121.663Z" fill="#A87E62"/>
<path d="M22.3828 121.812L23.2774 122.334L29.0673 118.977L28.1727 118.454L22.3828 121.812Z" fill="#A87E62"/>
<path d="M42.6387 122.682L43.5332 123.205L45.0242 122.359L44.1296 121.837L42.6387 122.682Z" fill="#A87E62"/>
<path d="M38.9102 122.881L39.8047 123.404L50.4651 117.26L49.5705 116.738L38.9102 122.881Z" fill="#A87E62"/>
<path d="M48.3008 123.627L49.1954 124.15L55.7804 120.344L54.8858 119.822L48.3008 123.627Z" fill="#A87E62"/>
<path d="M55.3379 123.752L56.2325 124.274L59.3883 122.459L58.4937 121.936L55.3379 123.752Z" fill="#A87E62"/>
<path d="M36.8242 124.075L37.7436 124.598L39.1849 123.777L38.2655 123.255L36.8242 124.075Z" fill="#A87E62"/>
<path d="M43.4766 124.299L44.396 124.821L53.9629 119.3L53.0684 118.778L43.4766 124.299Z" fill="#A87E62"/>
<path d="M53.4707 124.846L54.3653 125.369L55.8562 124.498L54.9617 123.976L53.4707 124.846Z" fill="#A87E62"/>
<path d="M27.8027 124.971L28.7222 125.493L36.7982 120.817L35.9036 120.295L27.8027 124.971Z" fill="#A87E62"/>
<path d="M45.7676 125.095L46.687 125.617L48.6252 124.498L47.7307 123.976L45.7676 125.095Z" fill="#A87E62"/>
<path d="M34.9355 125.169L35.8301 125.716L37.2714 124.871L36.3768 124.349L34.9355 125.169Z" fill="#A87E62"/>
<path d="M51.6816 125.866L52.5762 126.388L54.0672 125.543L53.1726 124.995L51.6816 125.866Z" fill="#A87E62"/>
<path d="M49.8984 126.911L50.793 127.433L52.284 126.562L51.3894 126.04L49.8984 126.911Z" fill="#A87E62"/>
<path d="M31.5566 127.134L32.4512 127.657L35.3586 125.99L34.4392 125.468L31.5566 127.134Z" fill="#A87E62"/>
<path d="M44.0801 128.303L44.9747 128.826L46.4159 127.98L45.5213 127.458L44.0801 128.303Z" fill="#A87E62"/>
<path d="M50.7422 128.527L51.6368 129.049L61.2286 123.503L60.3091 122.981L50.7422 128.527Z" fill="#A87E62"/>
<path d="M36.875 130.243L37.7696 130.765L43.5595 127.408L42.6649 126.885L36.875 130.243Z" fill="#A87E62"/>
<path d="M42.3145 133.402L43.209 133.924L51.285 129.248L50.3905 128.726L42.3145 133.402Z" fill="#A87E62"/>
<path d="M32.3699 101.74L8.51465 115.519L43.9745 136.138L67.805 122.359L32.3699 101.74Z" fill="#F4E9B8"/>
<path d="M8.51465 115.519V117.136L43.9745 137.754V136.137L8.51465 115.519Z" fill="#DDBE90"/>
<path d="M43.9805 136.138V137.754L67.8357 124.001L67.8109 122.359L43.9805 136.138Z" fill="#C7A37E"/>
<path d="M24.3926 112.833L25.312 113.355L35.9723 107.212L35.0529 106.69L24.3926 112.833Z" fill="#C1987D"/>
<path d="M40.8438 113.704L41.7383 114.226L44.8942 112.41L43.9996 111.888L40.8438 113.704Z" fill="#C1987D"/>
<path d="M20.4473 115.146L21.3418 115.668L22.7831 114.823L21.8885 114.301L20.4473 115.146Z" fill="#C1987D"/>
<path d="M15.1289 115.967L16.0235 116.489L21.8382 113.156L20.9188 112.634L15.1289 115.967Z" fill="#C1987D"/>
<path d="M17.0664 117.086L17.961 117.609L20.8435 115.942L19.9489 115.42L17.0664 117.086Z" fill="#C1987D"/>
<path d="M48.0801 117.932L48.9995 118.454L52.1554 116.613L51.2608 116.091L48.0801 117.932Z" fill="#C1987D"/>
<path d="M24.3027 121.314L25.1973 121.836L28.1047 120.145L27.2101 119.623L24.3027 121.314Z" fill="#C1987D"/>
<path d="M28.7734 116.489L29.668 117.011L31.6063 115.892L30.7117 115.37L28.7734 116.489Z" fill="#C1987D"/>
<path d="M25.9844 122.284L26.8789 122.806L36.0235 117.534L35.1289 117.011L25.9844 122.284Z" fill="#C1987D"/>
<path d="M29.6172 124.398L30.5366 124.92L36.3265 121.588L35.4319 121.065L29.6172 124.398Z" fill="#C1987D"/>
<path d="M46.1445 125.493L47.0639 126.015L57.6994 119.847L56.8049 119.324L46.1445 125.493Z" fill="#C1987D"/>
<path d="M36.0059 120.717L36.9004 121.24L38.8387 120.12L37.9441 119.598L36.0059 120.717Z" fill="#C1987D"/>
<path d="M33.2422 126.512L34.1368 127.035L43.2813 121.762L42.3619 121.215L33.2422 126.512Z" fill="#C1987D"/>
<path d="M35.0566 127.557L35.9512 128.079L44.0521 123.403L43.1575 122.881L35.0566 127.557Z" fill="#C1987D"/>
<path d="M42.1934 127.78L43.0879 128.303L44.5292 127.482L43.6346 126.935L42.1934 127.78Z" fill="#C1987D"/>
<path d="M38.7832 129.746L39.7026 130.268L42.5851 128.577L41.6906 128.054L38.7832 129.746Z" fill="#C1987D"/>
<path d="M43.2559 124.921L44.1504 125.443L46.0887 124.324L45.1941 123.802L43.2559 124.921Z" fill="#C1987D"/>
<path d="M40.4766 130.715L41.396 131.238L50.5157 125.965L49.6211 125.443L40.4766 130.715Z" fill="#C1987D"/>
<path d="M26.5625 109.376L27.4571 109.898L34.0421 106.093L33.1475 105.57L26.5625 109.376Z" fill="#C1987D"/>
<path d="M33.5879 109.5L34.5073 110.022L37.6632 108.182L36.7437 107.66L33.5879 109.5Z" fill="#C1987D"/>
<path d="M31.7285 110.57L32.6231 111.092L34.114 110.247L33.2195 109.724L31.7285 110.57Z" fill="#C1987D"/>
<path d="M24.0508 110.818L24.9454 111.341L26.8836 110.222L25.989 109.699L24.0508 110.818Z" fill="#C1987D"/>
<path d="M29.9395 111.614L30.834 112.137L32.325 111.266L31.4304 110.744L29.9395 111.614Z" fill="#C1987D"/>
<path d="M21.5137 112.286L22.4082 112.808L24.3465 111.689L23.4519 111.167L21.5137 112.286Z" fill="#C1987D"/>
<path d="M28.1465 112.634L29.0411 113.156L30.532 112.311L29.6374 111.788L28.1465 112.634Z" fill="#C1987D"/>
<path d="M33.791 113.579L34.7104 114.101L41.2955 110.296L40.4009 109.774L33.791 113.579Z" fill="#C1987D"/>
<path d="M22.332 114.027L23.2266 114.574L24.6679 113.728L23.7733 113.206L22.332 114.027Z" fill="#C1987D"/>
<path d="M28.9902 114.251L29.8848 114.773L39.4766 109.252L38.5572 108.729L28.9902 114.251Z" fill="#C1987D"/>
<path d="M38.9648 114.798L39.8843 115.32L41.3752 114.449L40.4558 113.927L38.9648 114.798Z" fill="#C1987D"/>
<path d="M31.2852 115.046L32.2046 115.569L34.1428 114.449L33.2234 113.927L31.2852 115.046Z" fill="#C1987D"/>
<path d="M37.1758 115.817L38.0952 116.34L39.5862 115.494L38.6916 114.972L37.1758 115.817Z" fill="#C1987D"/>
<path d="M35.4062 116.862L36.3008 117.384L37.7918 116.514L36.8972 115.991L35.4062 116.862Z" fill="#C1987D"/>
<path d="M31.6523 117.061L32.5469 117.584L43.2072 111.415L42.3127 110.893L31.6523 117.061Z" fill="#C1987D"/>
<path d="M41.0449 117.807L41.9395 118.33L48.5245 114.524L47.63 114.002L41.0449 117.807Z" fill="#C1987D"/>
<path d="M18.7598 118.081L19.6543 118.603L28.7989 113.33L27.8794 112.783L18.7598 118.081Z" fill="#C1987D"/>
<path d="M29.5879 118.255L30.4825 118.777L31.9237 117.932L31.0291 117.41L29.5879 118.255Z" fill="#C1987D"/>
<path d="M36.248 118.479L37.1426 119.001L46.7096 113.455L45.815 112.932L36.248 118.479Z" fill="#C1987D"/>
<path d="M46.2168 119.001L47.1114 119.523L48.6023 118.678L47.7078 118.155L46.2168 119.001Z" fill="#C1987D"/>
<path d="M20.5684 119.125L21.4629 119.648L29.5638 114.972L28.6444 114.45L20.5684 119.125Z" fill="#C1987D"/>
<path d="M38.5332 119.25L39.4278 119.772L41.366 118.653L40.4714 118.13L38.5332 119.25Z" fill="#C1987D"/>
<path d="M27.6816 119.349L28.6011 119.872L30.0423 119.051L29.1229 118.529L27.6816 119.349Z" fill="#C1987D"/>
<path d="M44.4277 120.046L45.3223 120.568L46.8133 119.698L45.9187 119.175L44.4277 120.046Z" fill="#C1987D"/>
<path d="M22.3828 120.195L23.2774 120.717L29.0673 117.36L28.1727 116.837L22.3828 120.195Z" fill="#C1987D"/>
<path d="M42.6387 121.066L43.5332 121.588L45.0242 120.742L44.1296 120.22L42.6387 121.066Z" fill="#C1987D"/>
<path d="M38.9102 121.264L39.8047 121.787L50.4651 115.643L49.5705 115.121L38.9102 121.264Z" fill="#C1987D"/>
<path d="M48.3008 122.011L49.1954 122.533L55.7804 118.728L54.8858 118.205L48.3008 122.011Z" fill="#C1987D"/>
<path d="M55.3379 122.135L56.2325 122.657L59.3883 120.842L58.4937 120.319L55.3379 122.135Z" fill="#C1987D"/>
<path d="M36.8242 122.458L37.7436 122.98L39.1849 122.16L38.2655 121.637L36.8242 122.458Z" fill="#C1987D"/>
<path d="M43.4766 122.682L44.396 123.204L53.9629 117.683L53.0684 117.161L43.4766 122.682Z" fill="#C1987D"/>
<path d="M53.4707 123.229L54.3653 123.752L55.8562 122.881L54.9617 122.359L53.4707 123.229Z" fill="#C1987D"/>
<path d="M27.8027 123.354L28.7222 123.876L36.7982 119.2L35.9036 118.678L27.8027 123.354Z" fill="#C1987D"/>
<path d="M45.7676 123.478L46.687 124L48.6252 122.881L47.7307 122.359L45.7676 123.478Z" fill="#C1987D"/>
<path d="M34.9355 123.577L35.8301 124.1L37.2714 123.254L36.3768 122.732L34.9355 123.577Z" fill="#C1987D"/>
<path d="M51.6816 124.249L52.5762 124.771L54.0672 123.926L53.1726 123.403L51.6816 124.249Z" fill="#C1987D"/>
<path d="M49.8984 125.293L50.793 125.816L52.284 124.945L51.3894 124.423L49.8984 125.293Z" fill="#C1987D"/>
<path d="M31.5566 125.517L32.4512 126.04L35.3586 124.373L34.4392 123.851L31.5566 125.517Z" fill="#C1987D"/>
<path d="M44.0801 126.686L44.9747 127.209L46.4159 126.363L45.5213 125.841L44.0801 126.686Z" fill="#C1987D"/>
<path d="M50.7422 126.91L51.6368 127.432L61.2286 121.886L60.3091 121.364L50.7422 126.91Z" fill="#C1987D"/>
<path d="M36.875 128.626L37.7696 129.148L43.5595 125.791L42.6649 125.268L36.875 128.626Z" fill="#C1987D"/>
<path d="M42.3145 131.785L43.209 132.307L51.285 127.631L50.3905 127.109L42.3145 131.785Z" fill="#C1987D"/>
<path d="M32.3699 100.223L8.51465 113.977L43.9745 134.62L67.805 120.841L32.3699 100.223Z" fill="#DBCF97"/>
<path d="M8.51465 113.977V115.618L43.9745 136.237V134.62L8.51465 113.977Z" fill="#C4A373"/>
<path d="M43.9805 134.62V136.237L67.8357 122.458L67.8109 120.842L43.9805 134.62Z" fill="#AE8963"/>
<path d="M24.3926 111.316L25.312 111.838L35.9723 105.695L35.0529 105.173L24.3926 111.316Z" fill="#A87E62"/>
<path d="M40.8438 112.186L41.7383 112.709L44.8942 110.893L43.9996 110.371L40.8438 112.186Z" fill="#A87E62"/>
<path d="M20.4473 113.604L21.3418 114.126L22.7831 113.306L21.8885 112.783L20.4473 113.604Z" fill="#A87E62"/>
<path d="M15.1289 114.45L16.0235 114.972L21.8382 111.614L20.9188 111.092L15.1289 114.45Z" fill="#A87E62"/>
<path d="M17.0664 115.569L17.961 116.091L20.8435 114.425L19.9489 113.902L17.0664 115.569Z" fill="#A87E62"/>
<path d="M48.0801 116.39L48.9995 116.937L52.1554 115.096L51.2608 114.574L48.0801 116.39Z" fill="#A87E62"/>
<path d="M24.3027 119.797L25.1973 120.319L28.1047 118.628L27.2101 118.106L24.3027 119.797Z" fill="#A87E62"/>
<path d="M28.7734 114.972L29.668 115.494L31.6063 114.375L30.7117 113.853L28.7734 114.972Z" fill="#A87E62"/>
<path d="M25.9844 120.767L26.8789 121.29L36.0235 116.017L35.1289 115.495L25.9844 120.767Z" fill="#A87E62"/>
<path d="M29.6172 122.881L30.5366 123.403L36.3265 120.046L35.4319 119.523L29.6172 122.881Z" fill="#A87E62"/>
<path d="M46.1445 123.976L47.0639 124.498L57.6994 118.33L56.8049 117.808L46.1445 123.976Z" fill="#A87E62"/>
<path d="M36.0059 119.2L36.9004 119.723L38.8387 118.603L37.9441 118.081L36.0059 119.2Z" fill="#A87E62"/>
<path d="M33.2422 124.995L34.1368 125.518L43.2813 120.22L42.3619 119.698L33.2422 124.995Z" fill="#A87E62"/>
<path d="M35.0566 126.04L35.9512 126.562L44.0521 121.886L43.1575 121.364L35.0566 126.04Z" fill="#A87E62"/>
<path d="M42.1934 126.263L43.0879 126.786L44.5292 125.94L43.6346 125.418L42.1934 126.263Z" fill="#A87E62"/>
<path d="M38.7832 128.203L39.7026 128.751L42.5851 127.059L41.6906 126.537L38.7832 128.203Z" fill="#A87E62"/>
<path d="M43.2559 123.404L44.1504 123.926L46.0887 122.807L45.1941 122.284L43.2559 123.404Z" fill="#A87E62"/>
<path d="M40.4766 129.198L41.396 129.721L50.5157 124.448L49.6211 123.926L40.4766 129.198Z" fill="#A87E62"/>
<path d="M26.5625 107.859L27.4571 108.381L34.0421 104.576L33.1475 104.053L26.5625 107.859Z" fill="#A87E62"/>
<path d="M33.5879 107.983L34.5073 108.505L37.6632 106.665L36.7437 106.143L33.5879 107.983Z" fill="#A87E62"/>
<path d="M31.7285 109.053L32.6231 109.575L34.114 108.705L33.2195 108.182L31.7285 109.053Z" fill="#A87E62"/>
<path d="M24.0508 109.302L24.9454 109.824L26.8836 108.705L25.989 108.182L24.0508 109.302Z" fill="#A87E62"/>
<path d="M29.9395 110.097L30.834 110.62L32.325 109.749L31.4304 109.227L29.9395 110.097Z" fill="#A87E62"/>
<path d="M21.5137 110.769L22.4082 111.291L24.3465 110.172L23.4519 109.65L21.5137 110.769Z" fill="#A87E62"/>
<path d="M28.1465 111.117L29.0411 111.639L30.532 110.794L29.6374 110.246L28.1465 111.117Z" fill="#A87E62"/>
<path d="M33.791 112.062L34.7104 112.585L41.2955 108.779L40.4009 108.257L33.791 112.062Z" fill="#A87E62"/>
<path d="M22.332 112.51L23.2266 113.032L24.6679 112.211L23.7733 111.689L22.332 112.51Z" fill="#A87E62"/>
<path d="M28.9902 112.733L29.8848 113.256L39.4766 107.734L38.5572 107.212L28.9902 112.733Z" fill="#A87E62"/>
<path d="M38.9648 113.281L39.8843 113.803L41.3752 112.933L40.4558 112.41L38.9648 113.281Z" fill="#A87E62"/>
<path d="M31.2852 113.529L32.2046 114.052L34.1428 112.933L33.2234 112.385L31.2852 113.529Z" fill="#A87E62"/>
<path d="M37.1758 114.3L38.0952 114.823L39.5862 113.952L38.6916 113.43L37.1758 114.3Z" fill="#A87E62"/>
<path d="M35.4062 115.345L36.3008 115.867L37.7918 114.997L36.8972 114.474L35.4062 115.345Z" fill="#A87E62"/>
<path d="M31.6523 115.544L32.5469 116.066L43.2072 109.898L42.3127 109.376L31.6523 115.544Z" fill="#A87E62"/>
<path d="M41.0449 116.29L41.9395 116.812L48.5245 113.007L47.63 112.485L41.0449 116.29Z" fill="#A87E62"/>
<path d="M18.7598 116.564L19.6543 117.086L28.7989 111.789L27.8794 111.266L18.7598 116.564Z" fill="#A87E62"/>
<path d="M29.5879 116.738L30.4825 117.26L31.9237 116.415L31.0291 115.892L29.5879 116.738Z" fill="#A87E62"/>
<path d="M36.248 116.962L37.1426 117.484L46.7096 111.938L45.815 111.415L36.248 116.962Z" fill="#A87E62"/>
<path d="M46.2168 117.484L47.1114 118.006L48.6023 117.136L47.7078 116.613L46.2168 117.484Z" fill="#A87E62"/>
<path d="M20.5684 117.608L21.4629 118.13L29.5638 113.455L28.6444 112.932L20.5684 117.608Z" fill="#A87E62"/>
<path d="M38.5332 117.733L39.4278 118.255L41.366 117.136L40.4714 116.614L38.5332 117.733Z" fill="#A87E62"/>
<path d="M27.6816 117.832L28.6011 118.355L30.0423 117.509L29.1229 116.987L27.6816 117.832Z" fill="#A87E62"/>
<path d="M44.4277 118.529L45.3223 119.051L46.8133 118.18L45.9187 117.658L44.4277 118.529Z" fill="#A87E62"/>
<path d="M22.3828 118.678L23.2774 119.2L29.0673 115.842L28.1727 115.32L22.3828 118.678Z" fill="#A87E62"/>
<path d="M42.6387 119.548L43.5332 120.071L45.0242 119.2L44.1296 118.678L42.6387 119.548Z" fill="#A87E62"/>
<path d="M38.9102 119.747L39.8047 120.27L50.4651 114.127L49.5705 113.604L38.9102 119.747Z" fill="#A87E62"/>
<path d="M48.3008 120.494L49.1954 121.016L55.7804 117.211L54.8858 116.688L48.3008 120.494Z" fill="#A87E62"/>
<path d="M55.3379 120.618L56.2325 121.14L59.3883 119.324L58.4937 118.802L55.3379 120.618Z" fill="#A87E62"/>
<path d="M36.8242 120.941L37.7436 121.463L39.1849 120.643L38.2655 120.12L36.8242 120.941Z" fill="#A87E62"/>
<path d="M43.4766 121.165L44.396 121.687L53.9629 116.166L53.0684 115.644L43.4766 121.165Z" fill="#A87E62"/>
<path d="M53.4707 121.712L54.3653 122.235L55.8562 121.364L54.9617 120.842L53.4707 121.712Z" fill="#A87E62"/>
<path d="M27.8027 121.836L28.7222 122.359L36.7982 117.683L35.9036 117.136L27.8027 121.836Z" fill="#A87E62"/>
<path d="M45.7676 121.936L46.687 122.483L48.6252 121.339L47.7307 120.817L45.7676 121.936Z" fill="#A87E62"/>
<path d="M34.9355 122.035L35.8301 122.558L37.2714 121.737L36.3768 121.215L34.9355 122.035Z" fill="#A87E62"/>
<path d="M51.6816 122.732L52.5762 123.254L54.0672 122.384L53.1726 121.861L51.6816 122.732Z" fill="#A87E62"/>
<path d="M49.8984 123.776L50.793 124.299L52.284 123.428L51.3894 122.906L49.8984 123.776Z" fill="#A87E62"/>
<path d="M31.5566 124L32.4512 124.523L35.3586 122.856L34.4392 122.334L31.5566 124Z" fill="#A87E62"/>
<path d="M44.0801 125.169L44.9747 125.692L46.4159 124.846L45.5213 124.324L44.0801 125.169Z" fill="#A87E62"/>
<path d="M50.7422 125.368L51.6368 125.915L61.2286 120.369L60.3091 119.847L50.7422 125.368Z" fill="#A87E62"/>
<path d="M36.875 127.084L37.7696 127.632L43.5595 124.274L42.6649 123.752L36.875 127.084Z" fill="#A87E62"/>
<path d="M42.3145 130.268L43.209 130.79L51.285 126.115L50.3905 125.567L42.3145 130.268Z" fill="#A87E62"/>
<path d="M32.3699 98.6067L8.51465 112.361L43.9745 133.004L67.805 119.225L32.3699 98.6067Z" fill="#F4E9B8"/>
<path d="M8.51465 112.36V114.002L43.9745 134.62V133.004L8.51465 112.36Z" fill="#DDBE90"/>
<path d="M43.9805 133.004V134.62L67.8357 120.841L67.8109 119.225L43.9805 133.004Z" fill="#C7A37E"/>
<path d="M24.3926 109.7L25.312 110.222L35.9723 104.079L35.0529 103.557L24.3926 109.7Z" fill="#C1987D"/>
<path d="M40.8438 110.57L41.7383 111.093L44.8942 109.277L43.9996 108.755L40.8438 110.57Z" fill="#C1987D"/>
<path d="M20.4473 111.988L21.3418 112.535L22.7831 111.689L21.8885 111.167L20.4473 111.988Z" fill="#C1987D"/>
<path d="M15.1289 112.833L16.0235 113.356L21.8382 110.023L20.9188 109.476L15.1289 112.833Z" fill="#C1987D"/>
<path d="M17.0664 113.953L17.961 114.475L20.8435 112.809L19.9489 112.286L17.0664 113.953Z" fill="#C1987D"/>
<path d="M48.0801 114.798L48.9995 115.321L52.1554 113.48L51.2608 112.958L48.0801 114.798Z" fill="#C1987D"/>
<path d="M24.3027 118.181L25.1973 118.703L28.1047 117.012L27.2101 116.49L24.3027 118.181Z" fill="#C1987D"/>
<path d="M28.7734 113.356L29.668 113.878L31.6063 112.759L30.7117 112.237L28.7734 113.356Z" fill="#C1987D"/>
<path d="M25.9844 119.151L26.8789 119.673L36.0235 114.4L35.1289 113.878L25.9844 119.151Z" fill="#C1987D"/>
<path d="M29.6172 121.265L30.5366 121.787L36.3265 118.43L35.4319 117.907L29.6172 121.265Z" fill="#C1987D"/>
<path d="M46.1445 122.359L47.0639 122.881L57.6994 116.713L56.8049 116.191L46.1445 122.359Z" fill="#C1987D"/>
<path d="M36.0059 117.584L36.9004 118.106L38.8387 116.987L37.9441 116.465L36.0059 117.584Z" fill="#C1987D"/>
<path d="M33.2422 123.379L34.1368 123.901L43.2813 118.604L42.3619 118.082L33.2422 123.379Z" fill="#C1987D"/>
<path d="M35.0566 124.424L35.9512 124.946L44.0521 120.27L43.1575 119.748L35.0566 124.424Z" fill="#C1987D"/>
<path d="M42.1934 124.648L43.0879 125.17L44.5292 124.324L43.6346 123.802L42.1934 124.648Z" fill="#C1987D"/>
<path d="M38.7832 126.587L39.7026 127.135L42.5851 125.443L41.6906 124.921L38.7832 126.587Z" fill="#C1987D"/>
<path d="M43.2559 121.787L44.1504 122.309L46.0887 121.19L45.1941 120.668L43.2559 121.787Z" fill="#C1987D"/>
<path d="M40.4766 127.583L41.396 128.105L50.5157 122.832L49.6211 122.31L40.4766 127.583Z" fill="#C1987D"/>
<path d="M26.5625 106.243L27.4571 106.765L34.0421 102.96L33.1475 102.438L26.5625 106.243Z" fill="#C1987D"/>
<path d="M33.5879 106.367L34.5073 106.889L37.6632 105.049L36.7437 104.527L33.5879 106.367Z" fill="#C1987D"/>
<path d="M31.7285 107.436L32.6231 107.959L34.114 107.113L33.2195 106.566L31.7285 107.436Z" fill="#C1987D"/>
<path d="M24.0508 107.685L24.9454 108.207L26.8836 107.088L25.989 106.566L24.0508 107.685Z" fill="#C1987D"/>
<path d="M29.9395 108.481L30.834 109.003L32.325 108.133L31.4304 107.61L29.9395 108.481Z" fill="#C1987D"/>
<path d="M21.5137 109.152L22.4082 109.675L24.3465 108.555L23.4519 108.033L21.5137 109.152Z" fill="#C1987D"/>
<path d="M28.1465 109.501L29.0411 110.023L30.532 109.177L29.6374 108.655L28.1465 109.501Z" fill="#C1987D"/>
<path d="M33.791 110.446L34.7104 110.968L41.2955 107.163L40.4009 106.641L33.791 110.446Z" fill="#C1987D"/>
<path d="M22.332 110.894L23.2266 111.416L24.6679 110.595L23.7733 110.073L22.332 110.894Z" fill="#C1987D"/>
<path d="M28.9902 111.117L29.8848 111.64L39.4766 106.118L38.5572 105.596L28.9902 111.117Z" fill="#C1987D"/>
<path d="M38.9648 111.665L39.8843 112.187L41.3752 111.316L40.4558 110.794L38.9648 111.665Z" fill="#C1987D"/>
<path d="M31.2852 111.913L32.2046 112.436L34.1428 111.317L33.2234 110.769L31.2852 111.913Z" fill="#C1987D"/>
<path d="M37.1758 112.684L38.0952 113.207L39.5862 112.361L38.6916 111.814L37.1758 112.684Z" fill="#C1987D"/>
<path d="M35.4062 113.729L36.3008 114.251L37.7918 113.381L36.8972 112.859L35.4062 113.729Z" fill="#C1987D"/>
<path d="M31.6523 113.928L32.5469 114.45L43.2072 108.282L42.3127 107.76L31.6523 113.928Z" fill="#C1987D"/>
<path d="M41.0449 114.674L41.9395 115.196L48.5245 111.391L47.63 110.869L41.0449 114.674Z" fill="#C1987D"/>
<path d="M18.7598 114.948L19.6543 115.47L28.7989 110.173L27.8794 109.65L18.7598 114.948Z" fill="#C1987D"/>
<path d="M29.5879 115.121L30.4825 115.644L31.9237 114.798L31.0291 114.276L29.5879 115.121Z" fill="#C1987D"/>
<path d="M36.248 115.346L37.1426 115.868L46.7096 110.322L45.815 109.799L36.248 115.346Z" fill="#C1987D"/>
<path d="M46.2168 115.868L47.1114 116.39L48.6023 115.52L47.7078 114.997L46.2168 115.868Z" fill="#C1987D"/>
<path d="M20.5684 115.992L21.4629 116.514L29.5638 111.839L28.6444 111.316L20.5684 115.992Z" fill="#C1987D"/>
<path d="M38.5332 116.117L39.4278 116.639L41.366 115.52L40.4714 114.998L38.5332 116.117Z" fill="#C1987D"/>
<path d="M27.6816 116.216L28.6011 116.738L30.0423 115.893L29.1229 115.37L27.6816 116.216Z" fill="#C1987D"/>
<path d="M44.4277 116.912L45.3223 117.435L46.8133 116.564L45.9187 116.042L44.4277 116.912Z" fill="#C1987D"/>
<path d="M22.3828 117.062L23.2774 117.584L29.0673 114.227L28.1727 113.704L22.3828 117.062Z" fill="#C1987D"/>
<path d="M42.6387 117.932L43.5332 118.454L45.0242 117.609L44.1296 117.062L42.6387 117.932Z" fill="#C1987D"/>
<path d="M38.9102 118.131L39.8047 118.653L50.4651 112.51L49.5705 111.988L38.9102 118.131Z" fill="#C1987D"/>
<path d="M48.3008 118.877L49.1954 119.4L55.7804 115.594L54.8858 115.072L48.3008 118.877Z" fill="#C1987D"/>
<path d="M55.3379 119.002L56.2325 119.524L59.3883 117.708L58.4937 117.186L55.3379 119.002Z" fill="#C1987D"/>
<path d="M36.8242 119.325L37.7436 119.847L39.1849 119.026L38.2655 118.504L36.8242 119.325Z" fill="#C1987D"/>
<path d="M43.4766 119.549L44.396 120.071L53.9629 114.55L53.0684 114.027L43.4766 119.549Z" fill="#C1987D"/>
<path d="M53.4707 120.096L54.3653 120.618L55.8562 119.748L54.9617 119.225L53.4707 120.096Z" fill="#C1987D"/>
<path d="M27.8027 120.22L28.7222 120.743L36.7982 116.067L35.9036 115.545L27.8027 120.22Z" fill="#C1987D"/>
<path d="M45.7676 120.345L46.687 120.867L48.6252 119.723L47.7307 119.201L45.7676 120.345Z" fill="#C1987D"/>
<path d="M34.9355 120.419L35.8301 120.941L37.2714 120.121L36.3768 119.598L34.9355 120.419Z" fill="#C1987D"/>
<path d="M51.6816 121.116L52.5762 121.638L54.0672 120.768L53.1726 120.245L51.6816 121.116Z" fill="#C1987D"/>
<path d="M49.8984 122.16L50.793 122.683L52.284 121.812L51.3894 121.29L49.8984 122.16Z" fill="#C1987D"/>
<path d="M31.5566 122.384L32.4512 122.906L35.3586 121.24L34.4392 120.718L31.5566 122.384Z" fill="#C1987D"/>
<path d="M44.0801 123.553L44.9747 124.075L46.4159 123.23L45.5213 122.707L44.0801 123.553Z" fill="#C1987D"/>
<path d="M50.7422 123.777L51.6368 124.299L61.2286 118.753L60.3091 118.231L50.7422 123.777Z" fill="#C1987D"/>
<path d="M36.875 125.493L37.7696 126.015L43.5595 122.658L42.6649 122.135L36.875 125.493Z" fill="#C1987D"/>
<path d="M42.3145 128.652L43.209 129.174L51.285 124.499L50.3905 123.976L42.3145 128.652Z" fill="#C1987D"/>
<path d="M147.619 122.135C147.553 122.185 147.478 122.243 147.395 122.309C147.395 122.309 147.387 122.309 147.371 122.309C147.304 122.375 147.23 122.433 147.147 122.483C147.13 122.483 147.122 122.491 147.122 122.508C147.023 122.558 146.932 122.607 146.849 122.657C146.766 122.707 146.675 122.757 146.575 122.806C146.559 122.823 146.534 122.839 146.501 122.856C146.418 122.889 146.335 122.931 146.252 122.98C146.252 122.98 146.244 122.98 146.227 122.98C146.145 123.03 146.054 123.072 145.954 123.105C145.921 123.121 145.896 123.13 145.88 123.13C145.797 123.179 145.714 123.213 145.631 123.229C145.615 123.246 145.598 123.254 145.581 123.254C145.482 123.304 145.383 123.345 145.283 123.378C145.267 123.378 145.242 123.387 145.209 123.403C145.142 123.42 145.076 123.436 145.01 123.453C144.944 123.47 144.877 123.494 144.811 123.528C144.761 123.544 144.703 123.561 144.637 123.577C144.571 123.594 144.505 123.61 144.438 123.627C144.389 123.644 144.339 123.652 144.289 123.652C144.223 123.668 144.157 123.685 144.09 123.702C144.024 123.718 143.966 123.735 143.917 123.751C143.85 123.768 143.776 123.776 143.693 123.776C143.643 123.793 143.585 123.809 143.519 123.826C143.486 123.826 143.453 123.826 143.42 123.826C143.337 123.843 143.246 123.859 143.146 123.876C143.13 123.876 143.113 123.876 143.096 123.876C142.981 123.892 142.873 123.909 142.773 123.925C142.74 123.925 142.707 123.934 142.674 123.95C142.608 123.95 142.542 123.95 142.475 123.95C142.392 123.967 142.31 123.975 142.227 123.975C142.16 123.975 142.103 123.984 142.053 124C141.97 124 141.879 124 141.779 124C141.73 124 141.68 124 141.63 124C141.564 124.017 141.49 124.025 141.407 124.025C141.357 124.025 141.299 124.025 141.233 124.025C141.15 124.025 141.067 124.025 140.984 124.025C140.935 124.025 140.885 124.025 140.835 124.025C140.769 124.008 140.694 124 140.612 124C140.562 124 140.512 124 140.462 124C140.38 124 140.297 123.992 140.214 123.975C140.164 123.975 140.115 123.975 140.065 123.975C139.965 123.959 139.866 123.95 139.767 123.95C139.734 123.95 139.709 123.942 139.692 123.925C139.56 123.909 139.427 123.892 139.295 123.876C139.278 123.876 139.261 123.876 139.245 123.876C139.129 123.859 139.021 123.843 138.922 123.826C138.872 123.809 138.822 123.801 138.773 123.801C138.69 123.785 138.607 123.768 138.524 123.751C138.491 123.751 138.45 123.743 138.4 123.727C138.317 123.71 138.234 123.685 138.151 123.652C138.102 123.652 138.052 123.644 138.002 123.627C137.92 123.61 137.837 123.586 137.754 123.552C137.688 123.536 137.621 123.519 137.555 123.503C137.522 123.503 137.489 123.494 137.456 123.478C137.356 123.445 137.257 123.411 137.158 123.378C137.141 123.378 137.124 123.37 137.108 123.353C137.025 123.337 136.942 123.312 136.859 123.279C136.826 123.262 136.801 123.246 136.785 123.229C136.719 123.213 136.652 123.188 136.586 123.154C136.536 123.138 136.487 123.121 136.437 123.105C136.387 123.088 136.329 123.063 136.263 123.03C136.23 123.014 136.188 122.997 136.139 122.98C136.072 122.947 136.006 122.914 135.94 122.881C135.907 122.864 135.874 122.848 135.84 122.831C135.741 122.781 135.65 122.723 135.567 122.657C135.269 122.491 135.004 122.317 134.772 122.135H133.182V127.855C133.182 129.024 133.952 130.218 135.542 131.138C135.625 131.188 135.716 131.238 135.816 131.287C135.849 131.304 135.882 131.321 135.915 131.337C135.981 131.37 136.048 131.403 136.114 131.437C136.164 131.453 136.205 131.478 136.238 131.511C136.304 131.528 136.362 131.553 136.412 131.586C136.462 131.602 136.511 131.619 136.561 131.636C136.594 131.652 136.636 131.669 136.685 131.685C136.702 131.702 136.727 131.71 136.76 131.71C136.776 131.727 136.801 131.743 136.834 131.76C136.917 131.777 137 131.801 137.083 131.835C137.1 131.851 137.116 131.859 137.133 131.859C137.232 131.893 137.34 131.926 137.456 131.959C137.472 131.959 137.497 131.967 137.53 131.984C137.563 132 137.605 132.009 137.655 132.009C137.671 132.025 137.696 132.034 137.729 132.034C137.812 132.067 137.895 132.092 137.978 132.108C138.027 132.125 138.077 132.133 138.127 132.133C138.209 132.166 138.292 132.191 138.375 132.208C138.408 132.208 138.441 132.216 138.475 132.233C138.491 132.233 138.508 132.233 138.524 132.233C138.59 132.249 138.665 132.266 138.748 132.282C138.798 132.282 138.847 132.291 138.897 132.307C138.996 132.324 139.104 132.34 139.22 132.357C139.237 132.357 139.253 132.357 139.27 132.357C139.402 132.373 139.535 132.39 139.667 132.407C139.7 132.407 139.725 132.407 139.742 132.407C139.841 132.423 139.941 132.44 140.04 132.456C140.09 132.456 140.139 132.456 140.189 132.456C140.272 132.456 140.355 132.465 140.438 132.481C140.487 132.481 140.537 132.481 140.587 132.481C140.67 132.481 140.744 132.481 140.81 132.481C140.827 132.481 140.835 132.481 140.835 132.481C140.885 132.481 140.926 132.481 140.959 132.481C141.042 132.498 141.125 132.506 141.208 132.506C141.274 132.49 141.332 132.481 141.382 132.481C141.465 132.481 141.539 132.481 141.606 132.481C141.622 132.481 141.639 132.481 141.655 132.481C141.688 132.481 141.721 132.481 141.755 132.481C141.854 132.481 141.945 132.473 142.028 132.456C142.078 132.456 142.136 132.456 142.202 132.456C142.285 132.456 142.368 132.448 142.45 132.431C142.484 132.431 142.517 132.431 142.55 132.431C142.583 132.431 142.616 132.423 142.649 132.407C142.682 132.407 142.715 132.407 142.749 132.407C142.848 132.39 142.956 132.373 143.072 132.357C143.088 132.357 143.105 132.357 143.121 132.357C143.221 132.34 143.312 132.324 143.395 132.307C143.428 132.307 143.461 132.307 143.494 132.307C143.511 132.291 143.535 132.282 143.569 132.282C143.602 132.282 143.635 132.274 143.668 132.257C143.751 132.241 143.825 132.233 143.892 132.233C143.941 132.216 143.999 132.199 144.066 132.183C144.132 132.166 144.198 132.15 144.264 132.133C144.314 132.116 144.372 132.1 144.438 132.083C144.505 132.067 144.571 132.05 144.637 132.034C144.687 132.017 144.737 132 144.786 131.984C144.852 131.967 144.919 131.951 144.985 131.934C145.018 131.934 145.043 131.926 145.06 131.909C145.109 131.893 145.151 131.876 145.184 131.859C145.217 131.859 145.242 131.851 145.258 131.835C145.358 131.801 145.457 131.768 145.557 131.735C145.573 131.735 145.59 131.727 145.606 131.71C145.689 131.677 145.772 131.644 145.855 131.611C145.871 131.611 145.896 131.602 145.929 131.586C146.029 131.553 146.12 131.511 146.203 131.462C146.219 131.462 146.227 131.453 146.227 131.437C146.31 131.403 146.393 131.362 146.476 131.312C146.509 131.312 146.534 131.304 146.551 131.287C146.65 131.238 146.741 131.188 146.824 131.138C146.857 131.122 146.89 131.105 146.923 131.088C146.973 131.055 147.031 131.014 147.097 130.964C147.097 130.964 147.105 130.964 147.122 130.964C147.205 130.914 147.279 130.856 147.346 130.79C147.362 130.79 147.371 130.79 147.371 130.79C147.453 130.724 147.528 130.666 147.594 130.616C147.611 130.616 147.619 130.608 147.619 130.591C147.685 130.541 147.752 130.483 147.818 130.417C147.834 130.417 147.843 130.417 147.843 130.417C147.876 130.384 147.901 130.359 147.917 130.342C147.95 130.309 147.983 130.276 148.017 130.243C148.033 130.243 148.041 130.235 148.041 130.218C148.108 130.152 148.166 130.094 148.215 130.044C148.232 130.027 148.24 130.011 148.24 129.994C148.29 129.944 148.34 129.895 148.389 129.845C148.389 129.828 148.398 129.82 148.414 129.82C148.414 129.82 148.414 129.812 148.414 129.795C148.464 129.745 148.505 129.696 148.538 129.646C148.555 129.629 148.563 129.613 148.563 129.596C148.613 129.546 148.654 129.488 148.688 129.422C148.688 129.405 148.696 129.397 148.712 129.397C148.712 129.364 148.721 129.339 148.737 129.323C148.77 129.289 148.795 129.248 148.812 129.198C148.845 129.132 148.878 129.057 148.911 128.974C148.928 128.941 148.944 128.908 148.961 128.875C148.961 128.842 148.969 128.809 148.986 128.775C149.019 128.709 149.044 128.634 149.06 128.552C149.06 128.502 149.069 128.46 149.085 128.427C149.085 128.394 149.085 128.369 149.085 128.353C149.102 128.336 149.11 128.328 149.11 128.328C149.11 128.261 149.118 128.195 149.135 128.129C149.135 128.112 149.135 128.104 149.135 128.104C149.135 128.054 149.135 128.004 149.135 127.955C149.135 127.938 149.135 127.913 149.135 127.88L149.16 122.135H147.619Z" fill="#1B1B1D"/>
<path d="M134.771 122.135C135.003 122.317 135.268 122.491 135.567 122.657C138.673 124.473 143.742 124.473 146.848 122.657C147.13 122.491 147.395 122.317 147.643 122.135H134.771Z" fill="#1B1B1D"/>
<path d="M156.617 120.171V121.19L141.211 130.144L141.236 129.124L156.617 120.171Z" fill="#1C1C20"/>
<path d="M141.236 129.124L141.211 130.144L125.705 121.19L125.73 120.171L141.236 129.124Z" fill="#1C1C20"/>
<path d="M156.622 120.17L141.24 129.124L125.734 120.17L141.116 111.192L156.622 120.17Z" fill="#2C2C32"/>
<path d="M148.917 132.606V125.393C148.917 124.946 148.668 124.498 148.271 124.274L142.009 120.469C142.257 120.245 142.208 119.946 141.885 119.747C141.487 119.524 140.866 119.524 140.468 119.747C140.071 119.971 140.071 120.344 140.468 120.568C140.791 120.767 141.288 120.792 141.661 120.668L148.097 124.573C148.37 124.747 148.569 125.07 148.569 125.393V132.606C148.122 132.83 147.774 133.8 147.699 135.043C147.674 135.392 147.948 135.715 148.32 135.715H149.19C149.538 135.715 149.836 135.392 149.811 135.043C149.712 133.775 149.364 132.805 148.917 132.606Z" fill="#FFE64C"/>
<path d="M131.696 132.556L129.783 133.65L129.683 133.078L128.689 133.004L130.603 131.909L131.696 132.556Z" fill="#B52D24"/>
<path d="M140.347 132.83C140.347 132.83 140.339 132.821 140.322 132.805C140.322 132.805 140.314 132.805 140.297 132.805C140.297 132.805 140.289 132.797 140.273 132.78C140.273 132.78 140.264 132.78 140.248 132.78C140.248 132.78 140.24 132.78 140.223 132.78C140.223 132.763 140.215 132.755 140.198 132.755C140.198 132.755 140.19 132.755 140.173 132.755C140.157 132.755 140.148 132.755 140.148 132.755C140.132 132.755 140.124 132.755 140.124 132.755C140.107 132.739 140.099 132.73 140.099 132.73C140.082 132.73 140.074 132.73 140.074 132.73C140.057 132.73 140.041 132.73 140.024 132.73C140.008 132.73 139.991 132.73 139.974 132.73C139.776 132.73 139.552 132.797 139.304 132.929C138.459 133.402 137.788 134.546 137.788 135.516C137.788 135.532 137.788 135.549 137.788 135.566C137.788 135.582 137.788 135.59 137.788 135.59C137.788 135.607 137.788 135.624 137.788 135.64C137.788 135.657 137.788 135.682 137.788 135.715C137.788 135.715 137.788 135.723 137.788 135.74C137.804 135.756 137.813 135.773 137.813 135.789C137.813 135.806 137.813 135.823 137.813 135.839C137.813 135.856 137.821 135.872 137.837 135.889C137.837 135.905 137.837 135.922 137.837 135.939C137.837 135.955 137.837 135.964 137.837 135.964C137.854 135.997 137.862 136.022 137.862 136.038C137.879 136.055 137.887 136.063 137.887 136.063C137.887 136.08 137.887 136.088 137.887 136.088C137.904 136.104 137.912 136.121 137.912 136.138C137.929 136.154 137.937 136.171 137.937 136.187C137.953 136.204 137.962 136.221 137.962 136.237C137.978 136.254 137.987 136.27 137.987 136.287C138.003 136.287 138.011 136.295 138.011 136.312C138.028 136.312 138.036 136.32 138.036 136.337C138.053 136.337 138.061 136.345 138.061 136.361C138.061 136.361 138.069 136.37 138.086 136.386C138.102 136.386 138.111 136.395 138.111 136.411C138.127 136.411 138.144 136.419 138.16 136.436C138.177 136.453 138.194 136.461 138.21 136.461L130.83 132.084L129.612 131.362L125.239 128.776C124.99 128.626 124.816 128.278 124.816 127.806C124.816 126.861 125.512 125.717 126.332 125.244C126.755 124.995 127.127 124.97 127.401 125.144L131.774 127.731L133.017 128.477L140.347 132.83Z" fill="white"/>
<path d="M133.789 128.95C133.64 128.983 133.482 129.049 133.317 129.148C132.348 129.671 131.577 131.014 131.577 132.108C131.577 132.274 131.594 132.423 131.627 132.556L130.409 131.835C130.327 131.669 130.285 131.462 130.285 131.213C130.285 130.168 131.031 128.925 131.925 128.427C132.157 128.295 132.364 128.22 132.546 128.203L133.789 128.95Z" fill="#E14637"/>
<path d="M139.307 132.929C140.127 132.457 140.798 132.855 140.798 133.8C140.798 134.745 140.127 135.914 139.282 136.386C138.462 136.859 137.791 136.461 137.791 135.516C137.791 134.546 138.462 133.402 139.307 132.929Z" fill="#B1CEDC"/>
<path d="M89.8051 122.334C89.4821 122.409 89.159 122.558 88.836 122.657C88.0574 122.889 87.2539 123.047 86.4256 123.13C85.9535 123.18 85.4565 123.204 85.0589 122.956C84.5868 122.657 84.5122 122.185 84.3134 121.687C84.0649 121.066 83.8413 120.419 83.7419 119.747C83.6922 119.474 83.6673 119.175 83.7916 118.902C83.8413 118.852 83.8661 118.777 83.9407 118.752C84.0649 118.678 84.214 118.752 84.3134 118.852C84.4128 118.951 84.4377 119.101 84.4874 119.225C84.6613 119.822 84.8601 120.394 85.1334 120.941C85.3571 121.439 85.6304 121.911 86.2268 122.011C86.5002 122.06 86.7735 122.035 87.0468 121.986C87.7923 121.886 88.5378 121.687 89.2584 121.488C89.6229 121.372 89.9873 121.264 90.3518 121.165C90.65 121.09 90.7991 120.991 90.9979 120.792C91.1221 120.643 91.3955 120.469 91.5694 120.668C91.8427 120.991 91.6936 121.662 91.4452 121.961C91.3209 122.11 91.1221 122.21 90.9233 122.259C90.6003 122.334 90.2275 122.259 89.8797 122.334C89.8631 122.334 89.8382 122.334 89.8051 122.334Z" fill="#F68D70"/>
<path d="M84.7087 118.006C84.7832 117.534 85.0814 117.111 85.3299 116.688C86.7215 114.325 88.0634 110.296 84.9075 108.854C83.3171 108.108 80.8571 108.108 79.6146 109.277C78.7697 110.072 78.3224 111.291 78.0988 112.41C77.9746 113.082 77.9497 113.778 78.0243 114.475C78.0988 115.022 78.4715 115.619 78.3721 116.166C78.3224 116.539 77.9 116.887 77.5521 116.738C77.2788 116.614 77.0303 116.265 76.8066 116.439C78.5709 119.15 82.3232 120.394 85.3796 119.225C84.8826 119.126 84.6342 118.529 84.7087 118.031C84.7087 118.031 84.7087 118.023 84.7087 118.006Z" fill="#9F4A41"/>
<path d="M86.3775 119.126C86.5266 120.17 86.6178 121.223 86.6509 122.284C86.0545 122.334 85.4581 122.259 84.8866 122.085C84.8369 122.06 84.7623 122.036 84.7126 121.986C84.6629 121.936 84.6629 121.861 84.6629 121.812C84.5387 120.966 84.4642 120.22 84.0417 119.474C83.8678 119.175 83.7187 118.877 83.6193 118.554C83.5447 118.23 83.5447 117.882 83.6938 117.584C83.7187 117.509 83.7684 117.459 83.8181 117.409C83.8678 117.36 83.9175 117.36 83.992 117.335C84.5635 117.186 85.2593 117.31 85.7563 117.633C86.2036 117.882 86.303 118.678 86.3775 119.126Z" fill="#1C99AD"/>
<path d="M84.9809 146.236C84.8815 145.937 84.7573 145.614 84.6579 145.29C84.3845 144.32 84.2851 143.276 84.3597 142.256C84.4342 141.435 84.633 140.615 84.6579 139.769C84.6827 137.108 82.9681 134.894 82.2475 132.382C81.7753 130.741 80.8311 126.985 84.1857 127.259C86.2482 127.433 86.0494 129.025 86.1488 130.368C86.2648 132.192 86.389 134.015 86.5216 135.839C86.6707 138.127 86.7452 140.465 87.0434 142.754C87.3416 145.017 86.9191 147.38 87.0682 149.693C87.1428 150.862 87.3664 152.006 87.8883 153.075C88.1119 153.523 88.7828 154.095 88.8822 154.543C89.0065 155.189 88.4598 155.314 87.9131 155.04C87.0931 154.642 86.621 154.244 86.1737 153.548C85.7512 152.901 84.7821 152.279 84.807 151.458C84.8318 151.085 85.0554 150.737 85.2542 150.414C85.9749 149.046 85.453 147.603 84.9809 146.236Z" fill="#FBB382"/>
<path d="M86.9464 152.776C86.524 152.428 86.2009 151.981 85.9027 151.533C85.7288 151.259 85.356 150.215 84.9833 150.712C84.3869 151.558 84.4615 152.702 84.536 153.672C84.536 153.821 84.536 153.97 84.6106 154.095C84.6851 154.219 84.8342 154.294 84.9833 154.269C85.0164 153.788 85.091 153.315 85.207 152.851C85.356 153.282 85.4969 153.713 85.6294 154.144C85.6542 154.269 85.7039 154.368 85.7536 154.468C85.9276 154.741 86.2506 154.866 86.5488 154.965C87.4185 155.239 88.338 155.487 89.2574 155.363C89.8786 155.264 90.0029 154.692 89.4313 154.318C89.2574 154.194 89.0337 154.119 88.8598 154.02C88.338 153.672 88.4374 153.224 87.7913 153.174C87.4185 153.15 87.2446 153.025 86.9464 152.776Z" fill="#282A2A"/>
<path d="M80.5088 148.648C80.4094 148.324 80.3348 148.001 80.2603 147.678C80.0367 146.683 80.0118 145.638 80.1858 144.618C80.31 143.798 80.5585 143.002 80.633 142.181C80.8567 139.52 79.2912 137.182 78.7693 134.62C78.4463 132.954 77.7505 129.148 81.0803 129.671C83.118 129.969 82.8198 131.561 82.8198 132.904C82.8032 134.728 82.7949 136.552 82.7949 138.376C82.7701 140.689 82.6707 143.002 82.8198 145.315C82.944 147.578 82.3476 149.916 82.3476 152.229C82.3228 153.398 82.4719 154.567 82.9192 155.661C83.0931 156.134 83.7143 156.756 83.7889 157.203C83.8634 157.85 83.3168 157.949 82.7949 157.651C81.9997 157.178 81.5525 156.756 81.1549 156.009C80.807 155.338 79.8627 154.642 79.9621 153.821C79.987 153.448 80.2603 153.149 80.4591 152.826C81.2791 151.508 80.8815 150.04 80.5088 148.648Z" fill="#FBB382"/>
<path d="M81.9777 155.313C81.6049 154.915 81.3067 154.468 81.0334 153.995C80.8843 153.697 80.5861 152.627 80.1885 153.1C79.5176 153.896 79.5176 155.04 79.5176 156.01C79.5176 156.159 79.5176 156.308 79.5673 156.433C79.6418 156.582 79.7909 156.681 79.9152 156.631C79.9814 156.167 80.0974 155.711 80.2631 155.264C80.3625 155.695 80.4619 156.134 80.5612 156.582C80.6109 156.681 80.6358 156.806 80.6855 156.905C80.8346 157.179 81.1328 157.353 81.431 157.452C82.2758 157.8 83.1953 158.124 84.1147 158.049C84.7359 157.999 84.9099 157.427 84.3632 157.029C84.1892 156.905 83.9904 156.806 83.7917 156.681C83.3195 156.308 83.4438 155.86 82.7977 155.761C82.4249 155.711 82.251 155.587 81.9777 155.313Z" fill="#282A2A"/>
<path d="M77.0577 134.173C76.685 136.66 76.4117 139.147 75.4177 141.485C75.3183 141.734 75.2189 142.032 75.3431 142.281C75.4177 142.405 75.5668 142.48 75.691 142.555C76.8341 143.152 78.2753 144.047 79.5675 144.196C80.636 144.321 81.8039 144.246 82.8725 144.246C83.9161 144.271 84.9846 144.271 85.9786 143.972C86.8732 143.674 87.6684 143.127 88.4635 142.604C89.4409 141.958 90.4101 141.303 91.3709 140.64C90.3272 138.119 89.2836 135.591 88.2399 133.054C87.7678 131.959 87.1714 130.94 86.6992 129.92C86.2271 128.875 85.9786 127.781 85.2083 126.886C84.9598 126.612 84.6616 126.339 84.4628 126.04C83.7422 125.045 84.5871 123.354 85.3077 122.508C85.7798 121.961 86.3514 121.464 86.4259 120.792C86.5005 119.996 85.8295 119.375 85.3822 118.778C85.2083 118.529 85.1089 118.28 84.9846 118.007C84.9101 117.833 84.8355 117.46 84.6368 117.36C84.5125 117.31 84.3634 117.335 84.2143 117.36C84.1315 117.36 84.0487 117.368 83.9658 117.385C83.1209 117.518 82.2761 117.642 81.4312 117.758C81.0585 117.808 80.7354 117.857 80.3875 117.833C80.139 117.808 79.9402 117.907 79.7912 118.106C79.2445 118.778 79.6421 119.996 79.8905 120.718C80.4372 122.359 80.9839 124.225 80.2136 125.891C79.8906 126.612 79.319 126.886 78.8717 127.458C78.3002 128.154 78.0517 129.273 77.8281 130.119C77.4553 131.462 77.2565 132.805 77.0577 134.173Z" fill="#1C99AD"/>
<path d="M83.646 117.808C83.7951 118.156 83.6461 118.579 83.2982 118.777C83.2153 118.811 83.1325 118.844 83.0497 118.877C83 118.894 82.9503 118.902 82.9006 118.902C82.5775 118.976 82.2048 118.952 81.9066 118.802C81.6084 118.653 81.3848 118.38 81.3848 118.081C81.3848 117.982 81.4096 117.882 81.4345 117.808C81.5007 117.575 81.5587 117.335 81.6084 117.086C81.7327 116.564 81.8321 116.042 82.0308 115.519C82.0557 115.445 82.1054 115.37 82.1799 115.32C82.2545 115.296 82.329 115.271 82.4036 115.271C82.7515 115.271 83.2982 115.32 83.5715 115.519C83.8945 115.743 83.6212 116.017 83.497 116.315C83.3479 116.663 83.1242 117.086 83.3479 117.434C83.3976 117.534 83.497 117.609 83.5715 117.683C83.5881 117.733 83.6129 117.774 83.646 117.808Z" fill="#FBB382"/>
<path d="M83.5705 117.683C83.5871 117.733 83.6119 117.774 83.6451 117.808C83.0735 117.907 82.4523 117.783 81.9305 117.385C81.8145 117.285 81.7068 117.186 81.6074 117.086C81.7317 116.564 81.8311 116.042 82.0299 115.519C82.0547 115.445 82.1044 115.37 82.179 115.32C82.2535 115.296 82.3281 115.271 82.4026 115.271C82.7505 115.271 83.2972 115.32 83.5705 115.519C83.8936 115.743 83.6202 116.017 83.496 116.315C83.3469 116.663 83.1232 117.086 83.3469 117.434C83.3966 117.534 83.496 117.609 83.5705 117.683Z" fill="#F68D70"/>
<path d="M80.7831 115.271C81.1558 115.669 81.6031 116.29 82.1746 116.738C83.1686 117.534 84.585 117.285 85.2062 116.315C85.7529 115.494 85.6287 114.475 85.9517 113.555C86.1008 113.132 86.2499 112.684 86.3244 112.211C86.3493 112.037 86.3741 111.838 86.3741 111.664C86.3493 111.59 86.2499 111.316 86.2748 111.241C86.2748 111.266 85.902 112.037 84.7341 112.162C83.591 112.261 81.5037 112.759 81.3049 113.53C81.3049 113.53 81.2552 111.988 80.2364 112.46C79.64 112.734 80.1867 114.176 80.5843 114.699C80.6588 114.823 80.7334 115.022 80.7831 115.271Z" fill="#FBB382"/>
<path d="M90.4526 120.742C90.3035 119.971 91.3472 118.404 91.3472 118.404L91.7199 118.454L90.6265 121.016L86.0543 121.961L85.8555 121.463C87.7937 120.518 90.4526 120.742 90.4526 120.742Z" fill="#FFF3DC"/>
<path d="M85.8549 121.463L84.6621 126.288L84.7864 126.587L86.1531 121.936L85.8549 121.463Z" fill="#DEBC90"/>
<path d="M84.7891 126.537L85.8576 121.961L90.6286 120.966L91.8959 118.081H91.9953L91.6723 118.877L90.8026 122.135L89.2619 125.692L84.9133 126.512L84.8885 126.662L84.7891 126.537Z" fill="#142038"/>
<path d="M90.7243 121.09L85.9533 122.085L84.8848 126.662L89.3825 125.692L90.7243 121.09Z" fill="#27354C"/>
<path d="M90.7266 121.09L91.9939 118.081L90.9006 122.16L89.3848 125.692L90.7266 121.09Z" fill="#31415B"/>
<path d="M79.767 124.921C79.8167 125.12 79.8664 125.31 79.9161 125.493C80.2888 126.861 81.9785 126.338 82.9477 126.04C83.5192 125.866 84.0659 125.717 84.5877 125.493C85.2586 125.194 86.1035 125.095 86.7993 125.244C86.849 125.269 86.9235 125.269 86.9484 125.219C86.9981 125.194 86.9981 125.145 86.9732 125.095C86.9484 125.045 86.8987 125.02 86.8738 124.995C86.7496 124.921 86.4266 124.722 86.3023 124.722C86.5508 124.738 86.8076 124.73 87.0726 124.697C87.1472 124.697 87.2466 124.647 87.2714 124.573C87.2714 124.473 87.172 124.423 87.0726 124.399C86.8241 124.349 86.5757 124.299 86.3272 124.249C86.5922 124.183 86.849 124.125 87.0975 124.075C87.172 124.05 87.2466 124.025 87.2714 123.976C87.2714 123.876 87.1472 123.826 87.0726 123.802C86.675 123.768 86.2857 123.727 85.9047 123.677C85.7556 123.677 85.6065 123.677 85.4823 123.603C85.4077 123.528 85.4326 123.354 85.2835 123.329C85.2089 123.329 85.1344 123.404 85.1095 123.478C84.8114 124.001 84.1901 124.423 83.6931 124.722C83.0719 125.095 82.3513 125.319 81.6307 125.294C81.5064 125.294 81.3573 125.269 81.2579 125.194C80.8355 124.921 80.9349 124.374 80.9597 123.976C80.9846 123.478 80.9846 122.956 80.91 122.459C80.8852 122.384 80.8852 122.284 80.8106 122.21C80.7361 122.135 80.587 122.135 80.4876 122.135C80.2391 122.135 79.9658 122.185 79.7918 122.334C79.4191 122.682 79.4688 123.23 79.5185 123.702C79.5682 124.1 79.6676 124.523 79.767 124.921Z" fill="#FBB382"/>
<path d="M81.9513 121.538C82.0176 121.804 82.0673 122.069 82.1004 122.334C82.1004 122.359 82.1501 122.881 82.1501 122.881C81.6034 123.13 81.0071 123.205 80.4107 123.279C80.0131 123.329 79.6155 123.379 79.2179 123.428C79.0357 122.483 78.9032 121.538 78.8203 120.593C78.7706 119.847 78.7209 118.927 79.2428 118.33C79.4416 118.106 79.9634 117.832 80.2864 117.857C80.5349 117.857 80.7089 118.031 80.8331 118.23C81.2556 118.827 81.4543 119.623 81.678 120.344C81.794 120.742 81.8851 121.14 81.9513 121.538Z" fill="#1C99AD"/>
<path d="M225.769 10.1792L216.152 0.400757C215.625 -0.133586 214.755 -0.133586 214.228 0.400757L204.585 10.1792C204.058 10.7136 204.058 11.5952 204.585 12.1296L214.228 21.9081C214.755 22.4424 215.625 22.4424 216.152 21.9081L225.769 12.1296C226.322 11.5952 226.322 10.7136 225.769 10.1792Z" fill="#9EACDE"/>
<path fill-rule="evenodd" clip-rule="evenodd" d="M237.958 15.5817L228.241 25.3087C227.737 25.8137 227.046 26.0795 226.356 26.0795C225.666 26.0795 224.976 25.8137 224.445 25.3087L214.728 15.5817C214.224 15.0768 213.932 14.3858 213.932 13.6682C213.932 12.9506 214.224 12.2597 214.728 11.7547L221.126 5.34975L224.445 2.05425C225.48 0.991192 227.206 0.991192 228.241 2.05425L237.958 11.7547C239.02 12.8178 239.02 14.5187 237.958 15.5817ZM236.073 13.6416L226.383 3.91461C226.365 3.91461 226.356 3.91461 226.356 3.91461C226.338 3.91461 226.321 3.91461 226.303 3.91461L223.011 7.23668L216.613 13.6416C216.595 13.6593 216.595 13.6771 216.613 13.6948L226.303 23.4218C226.321 23.4395 226.347 23.4395 226.383 23.4218L236.073 13.6948C236.09 13.6771 236.09 13.6593 236.073 13.6416Z" fill="#C7D7FF"/>
<path d="M258.804 179.057V185.105L254.688 189.224H228.277L222.841 183.784C221.891 182.833 221.891 181.328 222.841 180.377L239.78 163.423C240.73 162.473 242.234 162.473 243.184 163.423L258.804 179.057Z" fill="#9EACDE"/>
<path fill-rule="evenodd" clip-rule="evenodd" d="M239.098 141.704L233.953 146.853C233.689 147.118 233.32 147.276 232.951 147.276C232.581 147.276 232.212 147.118 231.948 146.853L226.803 141.704C226.539 141.44 226.381 141.07 226.381 140.7C226.381 140.304 226.539 139.961 226.803 139.697L231.948 134.547C232.502 133.993 233.399 133.993 233.953 134.547L239.098 139.697C239.652 140.251 239.652 141.149 239.098 141.704ZM237.594 140.674L232.951 136.053C232.951 136.035 232.951 136.035 232.951 136.053C232.951 136.035 232.942 136.035 232.924 136.053L228.307 140.674C228.289 140.692 228.289 140.7 228.307 140.7L232.924 145.348C232.942 145.348 232.951 145.348 232.951 145.348L237.594 140.7C237.612 140.7 237.612 140.692 237.594 140.674Z" fill="#C7D7FF"/>
<path d="M220.631 155.885C220.631 157.39 219.417 158.605 217.913 158.605C216.409 158.605 215.195 157.39 215.195 155.885C215.195 154.406 216.409 153.192 217.913 153.192C219.417 153.192 220.631 154.406 220.631 155.885Z" fill="#FFDF55"/>
<path d="M252.762 156.809C252.762 157.813 251.944 158.605 250.942 158.605C249.939 158.605 249.121 157.813 249.121 156.809C249.121 155.806 249.939 154.987 250.942 154.987C251.944 154.987 252.762 155.806 252.762 156.809Z" fill="#8EC2FE"/>
</svg>
