<svg width="53" height="62" viewBox="0 0 53 62" fill="none" xmlns="http://www.w3.org/2000/svg">
<path d="M4.44856 42.7965C4.44856 43.3882 3.97566 43.8813 3.38452 43.8813C2.79339 43.8813 2.30078 43.3882 2.30078 42.7965C2.30078 42.2049 2.79339 41.7316 3.38452 41.7316C3.97566 41.7316 4.44856 42.2049 4.44856 42.7965Z" fill="#C8C7FF"/>
<path d="M16.3489 57.0357L13.2357 51.5727C13.0583 51.2769 12.6642 51.1586 12.3687 51.3361L6.91054 54.4521C6.61497 54.6296 6.51645 55.0241 6.69379 55.3199L9.80708 60.7829C9.98442 61.0787 10.3588 61.1773 10.6544 60.9998L16.1125 57.8838C16.4081 57.7063 16.5263 57.3316 16.3489 57.0357Z" fill="#FFDF55"/>
<path d="M29.8669 10.8273C29.8669 12.7404 29.6108 14.5942 29.1379 16.3495C28.9671 16.9937 28.7569 17.6248 28.5073 18.2428C27.3842 21.2602 25.5517 23.9424 23.2463 26.0921C22.8259 26.4997 22.3793 26.8876 21.9064 27.2557C18.3399 30.0759 13.8473 31.7523 8.96057 31.7523C4.50738 31.7523 0.389157 30.352 -3 27.9854V0H26.8719C28.7832 3.15551 29.8669 6.86323 29.8669 10.8273Z" fill="#DEE3F5"/>
<path d="M52.9997 10.8273C52.9997 11.7542 52.2312 12.5233 51.2854 12.5233C50.3593 12.5233 49.5908 11.7542 49.5908 10.8273C49.5908 9.88061 50.3593 9.11145 51.2854 9.11145C52.2312 9.11145 52.9997 9.88061 52.9997 10.8273Z" fill="#7881A3"/>
<path d="M24.3893 46.0309C24.3893 47.2142 23.4238 48.1806 22.2415 48.1806C21.0593 48.1806 20.0938 47.2142 20.0938 46.0309C20.0938 44.8476 21.0593 43.8812 22.2415 43.8812C23.4238 43.8812 24.3893 44.8476 24.3893 46.0309Z" fill="#C8C7FF"/>
<path fill-rule="evenodd" clip-rule="evenodd" d="M34.9901 24.7707L28.4876 31.2986C28.133 31.6536 27.6798 31.8114 27.2069 31.8114C26.7537 31.8114 26.2808 31.6536 25.9261 31.2986L21.9064 27.2557L20.2906 25.6385L19.4236 24.7707C19.0886 24.4354 18.8916 23.9818 18.8916 23.4888C18.8916 23.0154 19.0886 22.5618 19.4236 22.2266L21.9655 19.6824L25.9261 15.6986C26.6354 15.0083 27.798 15.0083 28.4876 15.6986L34.9901 22.2266C35.6995 22.9168 35.6995 24.0804 34.9901 24.7707ZM33.7487 23.469L28.5073 18.2427L27.2266 16.9608C27.2266 16.9608 27.22 16.9608 27.2069 16.9608C27.2069 16.9608 27.2003 16.9608 27.1872 16.9608L23.2266 20.9446L20.6847 23.469C20.6716 23.4953 20.6716 23.5151 20.6847 23.5282L27.1872 30.0364C27.2069 30.0364 27.2266 30.0364 27.2266 30.0364L33.7487 23.5282C33.7619 23.5151 33.7619 23.4953 33.7487 23.469Z" fill="#9EACDE"/>
</svg>
