<svg width="100" height="100" viewBox="0 0 100 100" fill="none" xmlns="http://www.w3.org/2000/svg">
<g clip-path="url(#clip0_1137_189)">
<path d="M55.825 4.54376C54.3062 -1.51874 45.7 -1.51874 44.1749 4.54376L43.7312 6.33126C43.4716 7.37006 42.9387 8.32045 42.1878 9.08381C41.437 9.84717 40.4955 10.3957 39.4611 10.6725C38.4268 10.9492 37.3372 10.9442 36.3055 10.6578C35.2737 10.3714 34.3374 9.81409 33.5937 9.04376L32.3125 7.72501C27.9687 3.23126 20.5125 7.53751 22.2312 13.5438L22.7312 15.3188C23.025 16.3472 23.0386 17.4354 22.7705 18.4708C22.5024 19.5063 21.9624 20.4512 21.2064 21.2078C20.4505 21.9644 19.506 22.5052 18.4708 22.7741C17.4356 23.0431 16.3474 23.0304 15.3187 22.7375L13.5437 22.2313C7.5437 20.5125 3.2312 27.9688 7.72495 32.3125L9.0437 33.5938C9.81403 34.3375 10.3713 35.2738 10.6577 36.3055C10.9441 37.3373 10.9492 38.4268 10.6724 39.4612C10.3956 40.4956 9.84711 41.437 9.08375 42.1879C8.32038 42.9387 7.37 43.4716 6.3312 43.7313L4.5437 44.175C-1.5188 45.6938 -1.5188 54.3 4.5437 55.825L6.3312 56.2688C7.37 56.5284 8.32038 57.0613 9.08375 57.8122C9.84711 58.563 10.3956 59.5045 10.6724 60.5388C10.9492 61.5732 10.9441 62.6628 10.6577 63.6945C10.3713 64.7262 9.81403 65.6626 9.0437 66.4063L7.72495 67.6875C3.2312 72.0313 7.53745 79.4875 13.5437 77.7688L15.3187 77.2688C16.3478 76.9744 17.4368 76.9607 18.473 77.229C19.5091 77.4973 20.4546 78.0379 21.2115 78.7948C21.9683 79.5516 22.5089 80.4971 22.7772 81.5332C23.0455 82.5694 23.0318 83.6585 22.7375 84.6875L22.2312 86.4563C20.5125 92.4563 27.9687 96.7688 32.3125 92.275L33.5937 90.9563C34.3374 90.1859 35.2737 89.6287 36.3055 89.3423C37.3372 89.0559 38.4268 89.0508 39.4611 89.3276C40.4955 89.6043 41.437 90.1529 42.1878 90.9162C42.9387 91.6796 43.4716 92.63 43.7312 93.6688L44.1749 95.4563C45.6937 101.519 54.2999 101.519 55.825 95.4563L56.2687 93.6688C56.5283 92.63 57.0612 91.6796 57.8121 90.9162C58.5629 90.1529 59.5044 89.6043 60.5388 89.3276C61.5731 89.0508 62.6627 89.0559 63.6945 89.3423C64.7262 89.6287 65.6625 90.1859 66.4062 90.9563L67.6874 92.275C72.0312 96.7688 79.4874 92.4625 77.7687 86.4563L77.2687 84.6813C76.9743 83.6522 76.9606 82.5631 77.2289 81.527C77.4973 80.4908 78.0379 79.5453 78.7947 78.7885C79.5515 78.0317 80.497 77.4911 81.5332 77.2227C82.5693 76.9544 83.6584 76.9682 84.6875 77.2625L86.4562 77.7688C92.4562 79.4875 96.7687 72.0313 92.2749 67.6875L90.9562 66.4063C90.1859 65.6626 89.6286 64.7262 89.3422 63.6945C89.0558 62.6628 89.0507 61.5732 89.3275 60.5388C89.6043 59.5045 90.1528 58.563 90.9162 57.8122C91.6795 57.0613 92.6299 56.5284 93.6687 56.2688L95.4562 55.825C101.519 54.3063 101.519 45.7 95.4562 44.175L93.6687 43.7313C92.6299 43.4716 91.6795 42.9387 90.9162 42.1879C90.1528 41.437 89.6043 40.4956 89.3275 39.4612C89.0507 38.4268 89.0558 37.3373 89.3422 36.3055C89.6286 35.2738 90.1859 34.3375 90.9562 33.5938L92.2749 32.3125C96.7687 27.9688 92.4624 20.5125 86.4562 22.2313L84.6812 22.7313C83.6528 23.0251 82.5645 23.0386 81.5291 22.7705C80.4937 22.5025 79.5488 21.9625 78.7922 21.2065C78.0356 20.4505 77.4948 19.5061 77.2258 18.4709C76.9569 17.4357 76.9695 16.3474 77.2625 15.3188L77.7687 13.5438C79.4874 7.54376 72.0312 3.23126 67.6874 7.72501L66.4062 9.04376C65.6625 9.81409 64.7262 10.3714 63.6945 10.6578C62.6627 10.9442 61.5731 10.9492 60.5388 10.6725C59.5044 10.3957 58.5629 9.84717 57.8121 9.08381C57.0612 8.32045 56.5283 7.37006 56.2687 6.33126L55.825 4.54376ZM50 81.2313C45.861 81.2898 41.7517 80.5252 37.9109 78.9818C34.07 77.4384 30.5742 75.147 27.6266 72.2408C24.679 69.3346 22.3384 65.8716 20.7409 62.0529C19.1433 58.2343 18.3206 54.1362 18.3206 49.9969C18.3206 45.8575 19.1433 41.7595 20.7409 37.9408C22.3384 34.1222 24.679 30.6592 27.6266 27.753C30.5742 24.8468 34.07 22.5554 37.9109 21.012C41.7517 19.4686 45.861 18.704 50 18.7625C58.2846 18.7625 66.23 22.0536 72.0882 27.9118C77.9464 33.7699 81.2374 41.7153 81.2374 50C81.2374 58.2847 77.9464 66.2301 72.0882 72.0883C66.23 77.9464 58.2846 81.2375 50 81.2375V81.2313Z" fill="#F2C94C"/>
</g>
<defs>
<clipPath id="clip0_1137_189">
<rect width="100" height="100" fill="white"/>
</clipPath>
</defs>
</svg>
