<svg width="350" height="112" viewBox="0 0 350 112" fill="none" xmlns="http://www.w3.org/2000/svg">
<path d="M20.0247 99.3425H329.875C340.877 99.3425 349.678 90.4425 349.678 79.5425V19.8425C349.678 8.94247 340.877 0.0424805 329.875 0.0424805H20.0247C9.02294 0.0424805 0.221516 8.94247 0.221516 19.8425V79.5425C0.221516 90.4425 9.02294 99.3425 20.0247 99.3425Z" fill="url(#paint0_linear_205_250)"/>
<path d="M329.775 93.5425H329.875C331.009 93.5425 332.109 93.4092 333.176 93.1425L333.476 94.3425C332.342 94.6091 331.142 94.7425 329.875 94.7425H329.775V93.5425ZM322.974 93.5425H326.375V94.7425H322.974V93.5425ZM316.073 93.5425H319.474V94.8425H316.073V93.5425ZM309.172 93.5425H312.672V94.8425H309.172V93.5425ZM302.371 93.5425H305.771V94.8425H302.371V93.5425ZM295.47 93.5425H298.87V94.8425H295.47V93.5425ZM288.568 93.5425H292.069V94.8425H288.568V93.5425ZM281.767 93.5425H285.168V94.8425H281.767V93.5425ZM274.866 93.5425H278.267V94.8425H274.866V93.5425ZM267.965 93.5425H271.466V94.8425H267.965V93.5425ZM261.164 93.5425H264.565V94.8425H261.164V93.5425ZM254.263 93.5425H257.663V94.8425H254.263V93.5425ZM247.362 93.5425H250.862V94.7425H247.362V93.5425ZM240.561 93.5425H243.961V94.8425H240.561V93.5425ZM233.659 93.5425H237.06V94.8425H233.659V93.5425ZM226.758 93.5425H230.259V94.8425H226.758V93.5425ZM219.957 93.5425H223.358V94.8425H219.957V93.5425ZM213.056 93.5425H216.457V94.8425H213.056V93.5425ZM206.155 93.5425H209.656V94.8425H206.155V93.5425ZM199.354 93.5425H202.754V94.8425H199.354V93.5425ZM192.453 93.5425H195.853V94.8425H192.453V93.5425ZM185.552 93.5425H189.052V94.8425H185.552V93.5425ZM178.751 93.5425H182.151V94.8425H178.751V93.5425ZM171.849 93.5425H175.25V94.7425H171.849V93.5425ZM164.948 93.5425H168.449V94.8425H164.948V93.5425ZM158.147 93.5425H161.548V94.8425H158.147V93.5425ZM151.246 93.5425H154.647V94.8425H151.246V93.5425ZM144.345 93.5425H147.846V94.8425H144.345V93.5425ZM137.544 93.5425H140.944V94.8425H137.544V93.5425ZM130.643 93.5425H134.043V94.8425H130.643V93.5425ZM123.742 93.5425H127.242V94.8425H123.742V93.5425ZM116.941 93.5425H120.341V94.8425H116.941V93.5425ZM110.039 93.5425H113.44V94.8425H110.039V93.5425ZM103.138 93.5425H106.639V94.7425H103.138V93.5425ZM96.3371 93.5425H99.7377V94.8425H96.3371V93.5425ZM89.4361 93.5425H92.8366V94.8425H89.4361V93.5425ZM82.5349 93.5425H86.0355V94.8425H82.5349V93.5425ZM75.7338 93.5425H79.1343V94.8425H75.7338V93.5425ZM68.8327 93.5425H72.2332V94.8425H68.8327V93.5425ZM61.9316 93.5425H65.4321V94.8425H61.9316V93.5425ZM55.1304 93.5425H58.531V94.8425H55.1304V93.5425ZM48.2293 93.5425H51.6298V94.8425H48.2293V93.5425ZM41.3282 93.5425H44.8288V94.8425H41.3282V93.5425ZM34.5271 93.5425H37.9277V94.8425H34.5271V93.5425ZM27.6259 93.5425H31.0265V94.7425H27.6259V93.5425ZM20.7249 93.5425H24.2254V94.8425H20.7249V93.5425ZM14.3238 92.3425C15.324 92.8091 16.3575 93.1425 17.4243 93.3425L17.2243 94.6425C16.0241 94.3758 14.8905 94.0091 13.8237 93.5425L14.3238 92.3425ZM9.12293 88.4425C9.85638 89.3091 10.6565 90.0758 11.5233 90.7425L10.7232 91.7425C9.78974 91.0091 8.9229 90.1758 8.12277 89.2425L9.12293 88.4425ZM6.32248 82.6425C6.58919 83.7092 6.95596 84.7425 7.4227 85.7425L6.22249 86.2425C5.68907 85.1758 5.32231 84.0425 5.12228 82.8425L6.32248 82.6425ZM6.02245 75.9425V79.3425H4.72225V75.9425H6.02245ZM6.02245 69.0425V72.4425H4.72225V69.0425H6.02245ZM6.02245 62.1425V65.6425H4.72225V62.1425H6.02245ZM6.02245 55.3425V58.7425H4.72225V55.3425H6.02245ZM6.02245 48.4425V51.8425H4.72225V48.4425H6.02245ZM6.02245 41.5425V45.0425H4.72225V41.5425H6.02245ZM6.02245 34.7425V38.1425H4.82224V34.7425H6.02245ZM6.02245 27.8425V31.2425H4.72225V27.8425H6.02245ZM6.02245 20.9425V24.4425H4.72225V20.9425H6.02245ZM7.1226 14.5425C6.65586 15.5425 6.35585 16.5758 6.22249 17.6425L4.92229 17.4425C5.12233 16.2425 5.45571 15.1091 5.92246 14.0425L7.1226 14.5425ZM10.9233 9.24248C10.1231 9.97581 9.38968 10.7758 8.7229 11.6425L7.72274 10.9425C8.38951 9.94247 9.18961 9.0758 10.1231 8.34247L10.9233 9.24248ZM16.7242 6.24248C15.6574 6.50914 14.6238 6.8758 13.6237 7.34247L13.1236 6.24248C14.1237 5.70914 15.224 5.30915 16.4242 5.04248L16.7242 6.24248ZM23.4253 5.84247H20.0247V4.54248H23.4253V5.84247ZM30.3264 5.84247H26.8258V4.54248H30.3264V5.84247ZM37.1275 5.84247H33.727V4.54248H37.1275V5.84247ZM44.0286 5.84247H40.6281V4.54248H44.0286V5.84247ZM50.9298 5.84247H47.4292V4.54248H50.9298V5.84247ZM57.7309 5.84247H54.3303V4.54248H57.7309V5.84247ZM64.632 5.84247H61.2314V4.64247H64.632V5.84247ZM71.5331 5.84247H68.0325V4.54248H71.5331V5.84247ZM78.3342 5.84247H74.9337V4.54248H78.3342V5.84247ZM85.2354 5.84247H81.8348V4.54248H85.2354V5.84247ZM92.1364 5.84247H88.6359V4.54248H92.1364V5.84247ZM98.9376 5.84247H95.537V4.54248H98.9376V5.84247ZM105.839 5.84247H102.438V4.54248H105.839V5.84247ZM112.74 5.84247H109.239V4.54248H112.74V5.84247ZM119.541 5.84247H116.14V4.54248H119.541V5.84247ZM126.442 5.84247H123.042V4.54248H126.442V5.84247ZM133.343 5.84247H129.843V4.64247H133.343V5.84247ZM140.144 5.84247H136.744V4.54248H140.144V5.84247ZM147.045 5.84247H143.645V4.54248H147.045V5.84247ZM153.947 5.84247H150.446V4.54248H153.947V5.84247ZM160.748 5.84247H157.347V4.54248H160.748V5.84247ZM167.649 5.84247H164.248V4.54248H167.649V5.84247ZM174.55 5.84247H171.049V4.54248H174.55V5.84247ZM181.351 5.84247H177.95V4.54248H181.351V5.84247ZM188.252 5.84247H184.852V4.54248H188.252V5.84247ZM195.153 5.84247H191.653V4.54248H195.153V5.84247ZM201.954 5.84247H198.554V4.54248H201.954V5.84247ZM208.855 5.84247H205.455V4.64247H208.855V5.84247ZM215.757 5.84247H212.256V4.54248H215.757V5.84247ZM222.558 5.84247H219.157V4.54248H222.558V5.84247ZM229.459 5.84247H226.058V4.54248H229.459V5.84247ZM236.36 5.84247H232.859V4.54248H236.36V5.84247ZM243.161 5.84247H239.761V4.54248H243.161V5.84247ZM250.062 5.84247H246.662V4.54248H250.062V5.84247ZM256.963 5.84247H253.463V4.54248H256.963V5.84247ZM263.764 5.84247H260.364V4.54248H263.764V5.84247ZM270.666 5.84247H267.265V4.54248H270.666V5.84247ZM277.567 5.84247H274.066V4.54248H277.567V5.84247ZM284.368 5.84247H280.967V4.64247H284.368V5.84247ZM291.269 5.84247H287.868V4.54248H291.269V5.84247ZM298.17 5.84247H294.669V4.54248H298.17V5.84247ZM304.971 5.84247H301.571V4.54248H304.971V5.84247ZM311.872 5.84247H308.472V4.54248H311.872V5.84247ZM318.773 5.84247H315.273V4.54248H318.773V5.84247ZM325.574 5.84247H322.174V4.54248H325.574V5.84247ZM332.376 6.04248C331.575 5.90915 330.742 5.84247 329.875 5.84247H329.075V4.54248H329.875C330.809 4.54248 331.709 4.64247 332.576 4.84247L332.376 6.04248ZM338.277 8.74248C337.41 8.07581 336.476 7.50915 335.476 7.04248L335.976 5.84247C337.11 6.30913 338.143 6.90914 339.077 7.64247L338.277 8.74248ZM342.477 13.7425C341.944 12.7425 341.344 11.8091 340.677 10.9425L341.677 10.1425C342.411 11.0758 343.044 12.0758 343.577 13.1425L342.477 13.7425ZM343.877 20.1425V19.8425C343.877 18.8425 343.777 17.8425 343.577 16.8425L344.878 16.5425C345.078 17.6091 345.178 18.7091 345.178 19.8425V20.1425H343.877ZM343.877 26.9425V23.5425H345.178V26.9425H343.877ZM343.877 33.8425V30.4425H345.178V33.8425H343.877ZM343.877 40.7425V37.2425H345.178V40.7425H343.877ZM343.877 47.5425V44.1425H345.178V47.5425H343.877ZM343.877 54.4425V51.0425H345.178V54.4425H343.877ZM343.877 61.3425V57.8425H345.178V61.3425H343.877ZM343.877 68.1425V64.7425H345.178V68.1425H343.877ZM343.877 75.0425V71.6425H345.078V75.0425H343.877ZM343.777 81.7425C343.844 81.0091 343.877 80.2758 343.877 79.5425V78.4425H345.178V79.5425C345.178 80.3425 345.111 81.1758 344.978 82.0425L343.777 81.7425ZM341.177 87.7425C341.844 86.8758 342.411 85.9425 342.877 84.9425L343.977 85.4425C343.511 86.5758 342.944 87.6091 342.277 88.5425L341.177 87.7425ZM336.276 92.0425C337.276 91.5091 338.177 90.8758 338.977 90.1425L339.777 91.1425C338.91 91.9425 337.943 92.6092 336.876 93.1425L336.276 92.0425Z" fill="white"/>
<path d="M16.4988 62V39.56H23.8428C27.4241 39.5147 30.3708 40.546 32.6828 42.654C34.9948 44.7393 36.1281 47.4253 36.0828 50.712C36.1281 53.976 34.9835 56.6847 32.6488 58.838C30.3141 60.9913 27.3788 62.0453 23.8428 62H16.4988ZM21.0888 57.852H23.8088C26.0755 57.852 27.9001 57.206 29.2828 55.914C30.6655 54.5993 31.3568 52.8653 31.3568 50.712C31.3568 48.536 30.6768 46.8247 29.3168 45.578C27.9568 44.3313 26.1208 43.708 23.8088 43.708H21.0888V57.852ZM39.6674 62V45.17H44.2574V62H39.6674ZM39.0214 39.05C39.0214 38.234 39.3048 37.554 39.8714 37.01C40.4381 36.466 41.1294 36.194 41.9454 36.194C42.7614 36.194 43.4528 36.466 44.0194 37.01C44.6088 37.554 44.9034 38.234 44.9034 39.05C44.9034 39.8433 44.6088 40.512 44.0194 41.056C43.4528 41.6 42.7614 41.872 41.9454 41.872C41.1294 41.872 40.4381 41.6 39.8714 41.056C39.3048 40.512 39.0214 39.8433 39.0214 39.05ZM70.4223 45.17H75.2503L67.4303 62.408H65.9343L61.1063 52.616L56.2443 62.408H54.7483L46.9283 45.17H51.7563L55.7343 54.758L60.3243 44.796H61.8543L66.5123 54.554L70.4223 45.17ZM91.3966 52.004V62H87.1806V60.368C85.8659 61.728 84.1546 62.408 82.0466 62.408C80.2786 62.408 78.8619 61.9433 77.7966 61.014C76.7539 60.0847 76.2326 58.872 76.2326 57.376C76.2326 55.8573 76.7992 54.6673 77.9326 53.806C79.0886 52.922 80.6412 52.48 82.5906 52.48H86.8066V51.732C86.8066 50.78 86.5346 50.0547 85.9906 49.556C85.4692 49.0347 84.6986 48.774 83.6786 48.774C82.8399 48.774 82.0806 48.9553 81.4006 49.318C80.7206 49.6807 79.9952 50.27 79.2246 51.086L76.8446 48.264C78.7939 45.952 81.2419 44.796 84.1886 44.796C86.4099 44.796 88.1666 45.4307 89.4586 46.7C90.7506 47.9467 91.3966 49.7147 91.3966 52.004ZM86.8066 55.71V55.506H83.2026C81.6386 55.506 80.8566 56.0727 80.8566 57.206C80.8566 57.7727 81.0719 58.226 81.5026 58.566C81.9559 58.8833 82.5452 59.042 83.2706 59.042C84.2906 59.042 85.1292 58.736 85.7866 58.124C86.4666 57.4893 86.8066 56.6847 86.8066 55.71ZM95.8139 62V36.5H100.404V62H95.8139ZM104.945 62V45.17H109.535V62H104.945ZM104.299 39.05C104.299 38.234 104.582 37.554 105.149 37.01C105.715 36.466 106.407 36.194 107.223 36.194C108.039 36.194 108.73 36.466 109.297 37.01C109.886 37.554 110.181 38.234 110.181 39.05C110.181 39.8433 109.886 40.512 109.297 41.056C108.73 41.6 108.039 41.872 107.223 41.872C106.407 41.872 105.715 41.6 105.149 41.056C104.582 40.512 104.299 39.8433 104.299 39.05ZM123.911 62V39.56H128.501V57.852H138.327V62H123.911ZM156.772 55.132H144.974C145.246 56.1973 145.79 57.0247 146.606 57.614C147.445 58.1807 148.476 58.464 149.7 58.464C151.355 58.464 152.919 57.8973 154.392 56.764L156.296 59.892C154.279 61.5693 152.035 62.408 149.564 62.408C146.98 62.4533 144.782 61.6147 142.968 59.892C141.178 58.1467 140.305 56.05 140.35 53.602C140.305 51.1767 141.155 49.0913 142.9 47.346C144.646 45.6007 146.731 44.7507 149.156 44.796C151.468 44.796 153.361 45.544 154.834 47.04C156.33 48.536 157.078 50.3947 157.078 52.616C157.078 53.432 156.976 54.2707 156.772 55.132ZM144.974 51.902H152.624C152.602 50.882 152.239 50.066 151.536 49.454C150.856 48.8193 150.006 48.502 148.986 48.502C148.012 48.502 147.162 48.808 146.436 49.42C145.711 50.032 145.224 50.8593 144.974 51.902ZM174.77 52.004V62H170.554V60.368C169.239 61.728 167.528 62.408 165.42 62.408C163.652 62.408 162.235 61.9433 161.17 61.014C160.127 60.0847 159.606 58.872 159.606 57.376C159.606 55.8573 160.172 54.6673 161.306 53.806C162.462 52.922 164.014 52.48 165.964 52.48H170.18V51.732C170.18 50.78 169.908 50.0547 169.364 49.556C168.842 49.0347 168.072 48.774 167.052 48.774C166.213 48.774 165.454 48.9553 164.774 49.318C164.094 49.6807 163.368 50.27 162.598 51.086L160.218 48.264C162.167 45.952 164.615 44.796 167.562 44.796C169.783 44.796 171.54 45.4307 172.832 46.7C174.124 47.9467 174.77 49.7147 174.77 52.004ZM170.18 55.71V55.506H166.576C165.012 55.506 164.23 56.0727 164.23 57.206C164.23 57.7727 164.445 58.226 164.876 58.566C165.329 58.8833 165.918 59.042 166.644 59.042C167.664 59.042 168.502 58.736 169.16 58.124C169.84 57.4893 170.18 56.6847 170.18 55.71ZM189.523 45.17V49.216H188.299C186.894 49.216 185.783 49.59 184.967 50.338C184.174 51.086 183.777 52.174 183.777 53.602V62H179.187V45.17H183.403V47.176C184.582 45.7027 186.123 44.966 188.027 44.966C188.594 44.966 189.092 45.034 189.523 45.17ZM207.839 51.562V62H203.283V52.174C203.283 51.1993 202.988 50.4173 202.399 49.828C201.832 49.216 201.084 48.91 200.155 48.91C199.225 48.91 198.455 49.216 197.843 49.828C197.253 50.4173 196.959 51.1993 196.959 52.174V62H192.369V45.17H196.585V46.7C197.854 45.4307 199.497 44.796 201.515 44.796C203.464 44.796 205.005 45.408 206.139 46.632C207.272 47.856 207.839 49.4993 207.839 51.562ZM212.257 62V45.17H216.847V62H212.257ZM211.611 39.05C211.611 38.234 211.895 37.554 212.461 37.01C213.028 36.466 213.719 36.194 214.535 36.194C215.351 36.194 216.043 36.466 216.609 37.01C217.199 37.554 217.493 38.234 217.493 39.05C217.493 39.8433 217.199 40.512 216.609 41.056C216.043 41.6 215.351 41.872 214.535 41.872C213.719 41.872 213.028 41.6 212.461 41.056C211.895 40.512 211.611 39.8433 211.611 39.05ZM236.858 51.562V62H232.302V52.174C232.302 51.1993 232.007 50.4173 231.418 49.828C230.851 49.216 230.103 48.91 229.174 48.91C228.245 48.91 227.474 49.216 226.862 49.828C226.273 50.4173 225.978 51.1993 225.978 52.174V62H221.388V45.17H225.604V46.7C226.873 45.4307 228.517 44.796 230.534 44.796C232.483 44.796 234.025 45.408 235.158 46.632C236.291 47.856 236.858 49.4993 236.858 51.562ZM253.959 45.17H258.175V60.13C258.175 62.8273 257.393 64.9013 255.829 66.352C254.265 67.8027 252.145 68.528 249.471 68.528C246.32 68.528 243.566 67.4853 241.209 65.4L243.623 62.204C245.572 63.6547 247.397 64.38 249.097 64.38C250.479 64.38 251.567 64.04 252.361 63.36C253.177 62.68 253.585 61.694 253.585 60.402V59.484C252.361 60.8213 250.649 61.49 248.451 61.49C246.116 61.49 244.189 60.708 242.671 59.144C241.152 57.58 240.393 55.574 240.393 53.126C240.393 50.6553 241.152 48.6493 242.671 47.108C244.189 45.5667 246.116 44.796 248.451 44.796C250.899 44.796 252.735 45.6233 253.959 47.278V45.17ZM253.653 53.058C253.653 51.6753 253.245 50.61 252.429 49.862C251.635 49.0913 250.627 48.706 249.403 48.706C248.133 48.706 247.091 49.1027 246.275 49.896C245.459 50.6893 245.051 51.7547 245.051 53.092C245.051 54.4293 245.459 55.5173 246.275 56.356C247.113 57.1947 248.156 57.614 249.403 57.614C250.604 57.614 251.613 57.206 252.429 56.39C253.245 55.574 253.653 54.4633 253.653 53.058ZM270.997 57.444L274.159 55.064C275.746 57.24 277.582 58.328 279.667 58.328C280.665 58.328 281.447 58.1127 282.013 57.682C282.58 57.2287 282.863 56.6167 282.863 55.846C282.863 55.2113 282.671 54.724 282.285 54.384C281.9 54.0213 281.141 53.5793 280.007 53.058L277.593 51.97C273.967 50.3607 272.153 48.2073 272.153 45.51C272.153 43.606 272.856 42.076 274.261 40.92C275.667 39.7413 277.446 39.152 279.599 39.152C281.277 39.152 282.75 39.5373 284.019 40.308C285.289 41.056 286.286 42.0873 287.011 43.402L283.883 45.816C282.727 44.0933 281.299 43.232 279.599 43.232C278.783 43.232 278.115 43.4247 277.593 43.81C277.072 44.1953 276.811 44.728 276.811 45.408C276.811 45.9747 276.993 46.4393 277.355 46.802C277.741 47.142 278.432 47.5387 279.429 47.992L281.979 49.114C283.906 49.9753 285.311 50.916 286.195 51.936C287.079 52.9333 287.521 54.18 287.521 55.676C287.521 57.6933 286.785 59.3253 285.311 60.572C283.838 61.796 281.957 62.408 279.667 62.408C277.786 62.408 276.086 61.966 274.567 61.082C273.071 60.198 271.881 58.9853 270.997 57.444ZM305.358 52.004V62H301.142V60.368C299.827 61.728 298.116 62.408 296.008 62.408C294.24 62.408 292.823 61.9433 291.758 61.014C290.715 60.0847 290.194 58.872 290.194 57.376C290.194 55.8573 290.76 54.6673 291.894 53.806C293.05 52.922 294.602 52.48 296.552 52.48H300.768V51.732C300.768 50.78 300.496 50.0547 299.952 49.556C299.43 49.0347 298.66 48.774 297.64 48.774C296.801 48.774 296.042 48.9553 295.362 49.318C294.682 49.6807 293.956 50.27 293.186 51.086L290.806 48.264C292.755 45.952 295.203 44.796 298.15 44.796C300.371 44.796 302.128 45.4307 303.42 46.7C304.712 47.9467 305.358 49.7147 305.358 52.004ZM300.768 55.71V55.506H297.164C295.6 55.506 294.818 56.0727 294.818 57.206C294.818 57.7727 295.033 58.226 295.464 58.566C295.917 58.8833 296.506 59.042 297.232 59.042C298.252 59.042 299.09 58.736 299.748 58.124C300.428 57.4893 300.768 56.6847 300.768 55.71ZM309.775 62V36.5H314.365V62H309.775ZM334.376 55.132H322.578C322.85 56.1973 323.394 57.0247 324.21 57.614C325.048 58.1807 326.08 58.464 327.304 58.464C328.958 58.464 330.522 57.8973 331.996 56.764L333.9 59.892C331.882 61.5693 329.638 62.408 327.168 62.408C324.584 62.4533 322.385 61.6147 320.572 59.892C318.781 58.1467 317.908 56.05 317.954 53.602C317.908 51.1767 318.758 49.0913 320.504 47.346C322.249 45.6007 324.334 44.7507 326.76 44.796C329.072 44.796 330.964 45.544 332.438 47.04C333.934 48.536 334.682 50.3947 334.682 52.616C334.682 53.432 334.58 54.2707 334.376 55.132ZM322.578 51.902H330.228C330.205 50.882 329.842 50.066 329.14 49.454C328.46 48.8193 327.61 48.502 326.59 48.502C325.615 48.502 324.765 48.808 324.04 49.42C323.314 50.032 322.827 50.8593 322.578 51.902Z" fill="white"/>
<path d="M75.4232 16.1406V13H88.9466V16.1406H84.0951V29H80.2826V16.1406H75.4232ZM103.456 22.1562V29H99.6353V13H103.331V19.2031H103.463C103.734 18.4635 104.177 17.8854 104.792 17.4687C105.411 17.0521 106.169 16.8438 107.065 16.8438C107.909 16.8438 108.643 17.0313 109.268 17.4063C109.893 17.776 110.377 18.2995 110.721 18.9766C111.07 19.6536 111.242 20.4453 111.237 21.3516V29H107.417V22.1016C107.422 21.4349 107.255 20.9141 106.917 20.5391C106.578 20.1641 106.101 19.9766 105.487 19.9766C105.086 19.9766 104.732 20.0651 104.424 20.2422C104.122 20.4141 103.885 20.6615 103.713 20.9844C103.547 21.3073 103.461 21.6979 103.456 22.1562ZM128.031 29.2266C126.776 29.2266 125.692 28.9792 124.781 28.4844C123.875 27.9844 123.177 27.2734 122.687 26.3516C122.203 25.4245 121.961 24.3229 121.961 23.0469C121.961 21.8073 122.205 20.724 122.695 19.7969C123.185 18.8646 123.875 18.1406 124.765 17.625C125.656 17.1042 126.705 16.8438 127.914 16.8438C128.768 16.8438 129.549 16.9766 130.258 17.2422C130.966 17.5078 131.578 17.901 132.094 18.4219C132.609 18.9427 133.01 19.5859 133.297 20.3516C133.583 21.112 133.726 21.9844 133.726 22.9687V23.9219H123.297V21.7031H130.172C130.166 21.2969 130.07 20.9349 129.883 20.6172C129.695 20.2995 129.437 20.0521 129.109 19.875C128.786 19.6927 128.414 19.6016 127.992 19.6016C127.565 19.6016 127.182 19.6979 126.844 19.8906C126.505 20.0781 126.237 20.3359 126.039 20.6641C125.841 20.987 125.737 21.3542 125.726 21.7656V24.0234C125.726 24.513 125.823 24.9427 126.015 25.3125C126.208 25.6771 126.482 25.9609 126.836 26.1641C127.19 26.3672 127.612 26.4687 128.101 26.4687C128.44 26.4687 128.747 26.4219 129.023 26.3281C129.299 26.2344 129.536 26.0964 129.734 25.9141C129.932 25.7318 130.08 25.5078 130.179 25.2422L133.687 25.3437C133.541 26.1302 133.221 26.8151 132.726 27.3984C132.237 27.9766 131.594 28.4271 130.797 28.75C130 29.0677 129.078 29.2266 128.031 29.2266ZM168.504 18.2266C168.416 17.8984 168.285 17.6094 168.113 17.3594C167.942 17.1042 167.731 16.888 167.481 16.7109C167.231 16.5339 166.944 16.401 166.621 16.3125C166.298 16.2187 165.944 16.1719 165.559 16.1719C164.783 16.1719 164.111 16.3594 163.543 16.7344C162.981 17.1094 162.546 17.6562 162.238 18.375C161.931 19.0885 161.777 19.9557 161.777 20.9766C161.777 22.0026 161.926 22.8776 162.223 23.6016C162.52 24.3255 162.949 24.8776 163.512 25.2578C164.074 25.638 164.757 25.8281 165.559 25.8281C166.267 25.8281 166.866 25.7135 167.356 25.4844C167.85 25.25 168.225 24.9193 168.481 24.4922C168.736 24.0651 168.863 23.5625 168.863 22.9844L169.582 23.0703H165.692V20.25H172.59V22.3672C172.59 23.7995 172.285 25.026 171.676 26.0469C171.072 27.0677 170.238 27.8516 169.176 28.3984C168.119 28.9453 166.902 29.2187 165.527 29.2187C164.001 29.2187 162.66 28.888 161.504 28.2266C160.348 27.5651 159.447 26.6224 158.801 25.3984C158.155 24.1693 157.832 22.7109 157.832 21.0234C157.832 19.7109 158.027 18.5469 158.418 17.5313C158.809 16.5104 159.353 15.6458 160.051 14.9375C160.754 14.2292 161.567 13.6927 162.488 13.3281C163.416 12.9635 164.413 12.7812 165.481 12.7812C166.408 12.7812 167.27 12.9141 168.067 13.1797C168.869 13.4453 169.577 13.8203 170.192 14.3047C170.811 14.7891 171.314 15.3646 171.699 16.0313C172.085 16.6979 172.324 17.4297 172.418 18.2266H168.504ZM183.669 29V17H187.38V19.1875H187.505C187.724 18.3958 188.081 17.8073 188.576 17.4219C189.07 17.0312 189.646 16.8359 190.302 16.8359C190.479 16.8359 190.661 16.849 190.849 16.875C191.036 16.8958 191.211 16.9297 191.372 16.9766V20.2969C191.19 20.2344 190.951 20.1849 190.654 20.1484C190.362 20.112 190.102 20.0937 189.872 20.0937C189.419 20.0937 189.01 20.1953 188.646 20.3984C188.286 20.5964 188.003 20.875 187.794 21.2344C187.591 21.5885 187.49 22.0052 187.49 22.4844V29H183.669ZM206.715 29.2266C205.46 29.2266 204.377 28.9792 203.465 28.4844C202.559 27.9844 201.861 27.2734 201.372 26.3516C200.887 25.4245 200.645 24.3229 200.645 23.0469C200.645 21.8073 200.89 20.724 201.379 19.7969C201.869 18.8646 202.559 18.1406 203.45 17.625C204.34 17.1042 205.39 16.8438 206.598 16.8438C207.452 16.8438 208.234 16.9766 208.942 17.2422C209.65 17.5078 210.262 17.901 210.778 18.4219C211.294 18.9427 211.695 19.5859 211.981 20.3516C212.267 21.112 212.411 21.9844 212.411 22.9687V23.9219H201.981V21.7031H208.856C208.851 21.2969 208.754 20.9349 208.567 20.6172C208.379 20.2995 208.122 20.0521 207.794 19.875C207.471 19.6927 207.098 19.6016 206.676 19.6016C206.249 19.6016 205.866 19.6979 205.528 19.8906C205.189 20.0781 204.921 20.3359 204.723 20.6641C204.525 20.987 204.421 21.3542 204.411 21.7656V24.0234C204.411 24.513 204.507 24.9427 204.7 25.3125C204.892 25.6771 205.166 25.9609 205.52 26.1641C205.874 26.3672 206.296 26.4687 206.786 26.4687C207.124 26.4687 207.432 26.4219 207.708 26.3281C207.984 26.2344 208.221 26.0964 208.419 25.9141C208.616 25.7318 208.765 25.5078 208.864 25.2422L212.372 25.3437C212.226 26.1302 211.905 26.8151 211.411 27.3984C210.921 27.9766 210.278 28.4271 209.481 28.75C208.684 29.0677 207.762 29.2266 206.715 29.2266ZM226.545 29.2031C225.779 29.2031 225.099 29.0755 224.506 28.8203C223.917 28.5599 223.451 28.1693 223.107 27.6484C222.769 27.1224 222.599 26.4635 222.599 25.6719C222.599 25.0052 222.717 24.4427 222.951 23.9844C223.185 23.526 223.508 23.1536 223.92 22.8672C224.331 22.5807 224.805 22.3646 225.342 22.2187C225.878 22.0677 226.451 21.9661 227.06 21.9141C227.743 21.8516 228.292 21.7865 228.709 21.7188C229.125 21.6458 229.427 21.5443 229.615 21.4141C229.808 21.2786 229.904 21.0885 229.904 20.8437V20.8047C229.904 20.4036 229.766 20.0937 229.49 19.875C229.214 19.6562 228.842 19.5469 228.373 19.5469C227.868 19.5469 227.461 19.6562 227.154 19.875C226.847 20.0937 226.651 20.3958 226.568 20.7812L223.045 20.6562C223.149 19.9271 223.417 19.276 223.849 18.7031C224.287 18.125 224.886 17.6719 225.646 17.3437C226.412 17.0104 227.331 16.8438 228.404 16.8438C229.17 16.8438 229.875 16.9349 230.521 17.1172C231.167 17.2943 231.73 17.5547 232.209 17.8984C232.688 18.237 233.058 18.6536 233.318 19.1484C233.584 19.6432 233.717 20.2083 233.717 20.8437V29H230.123V27.3281H230.029C229.816 27.7344 229.542 28.0781 229.209 28.3594C228.881 28.6406 228.493 28.8516 228.045 28.9922C227.602 29.1328 227.102 29.2031 226.545 29.2031ZM227.724 26.7031C228.136 26.7031 228.506 26.6198 228.834 26.4531C229.167 26.2865 229.433 26.0573 229.631 25.7656C229.829 25.4687 229.927 25.125 229.927 24.7344V23.5937C229.818 23.651 229.685 23.7031 229.529 23.75C229.378 23.7969 229.211 23.8411 229.029 23.8828C228.847 23.9245 228.659 23.9609 228.467 23.9922C228.274 24.0234 228.089 24.0521 227.912 24.0781C227.552 24.1354 227.245 24.224 226.99 24.3437C226.74 24.4635 226.547 24.6198 226.412 24.8125C226.282 25 226.217 25.224 226.217 25.4844C226.217 25.8802 226.357 26.1823 226.638 26.3906C226.925 26.599 227.287 26.7031 227.724 26.7031ZM251.626 17V19.8125H244.056V17H251.626ZM245.642 14.125H249.462V25.2266C249.462 25.4609 249.498 25.651 249.571 25.7969C249.649 25.9375 249.761 26.0391 249.907 26.1016C250.053 26.1589 250.227 26.1875 250.431 26.1875C250.576 26.1875 250.73 26.1745 250.892 26.1484C251.058 26.1172 251.183 26.0911 251.267 26.0703L251.845 28.8281C251.662 28.8802 251.405 28.9453 251.071 29.0234C250.743 29.1016 250.35 29.151 249.892 29.1719C248.996 29.2135 248.227 29.1094 247.587 28.8594C246.951 28.6042 246.464 28.2083 246.126 27.6719C245.793 27.1354 245.631 26.4609 245.642 25.6484V14.125Z" fill="#FFDF00"/>
<rect width="139" height="38" rx="19" transform="matrix(-1 0 0 1 236.45 74)" fill="#FFDF00"/>
<path d="M108.749 92.74C108.705 90.672 109.446 88.8973 110.971 87.416C112.497 85.9347 114.301 85.2087 116.383 85.238C117.703 85.238 118.913 85.5387 120.013 86.14C121.113 86.7413 121.979 87.5553 122.609 88.582L120.849 89.88C119.779 88.208 118.297 87.372 116.405 87.372C114.909 87.372 113.663 87.8853 112.665 88.912C111.668 89.924 111.169 91.2 111.169 92.74C111.169 94.28 111.668 95.5633 112.665 96.59C113.663 97.602 114.909 98.108 116.405 98.108C118.297 98.108 119.779 97.272 120.849 95.6L122.609 96.898C121.979 97.9393 121.113 98.7607 120.013 99.362C118.928 99.9487 117.718 100.242 116.383 100.242C114.301 100.271 112.497 99.5453 110.971 98.064C109.446 96.5827 108.705 94.808 108.749 92.74ZM134.683 93.246V100H132.373V93.576C132.373 92.828 132.16 92.2267 131.735 91.772C131.31 91.3027 130.738 91.068 130.019 91.068C129.3 91.068 128.706 91.3027 128.237 91.772C127.782 92.2413 127.555 92.8427 127.555 93.576V100H125.245V83.5H127.555V90.276C128.303 89.396 129.344 88.956 130.679 88.956C131.896 88.956 132.864 89.352 133.583 90.144C134.316 90.9213 134.683 91.9553 134.683 93.246ZM147.623 95.358H139.571C139.718 96.238 140.107 96.9347 140.737 97.448C141.383 97.9467 142.167 98.196 143.091 98.196C144.235 98.196 145.284 97.7707 146.237 96.92L147.337 98.504C146.12 99.6627 144.683 100.242 143.025 100.242C141.383 100.242 140.004 99.7067 138.889 98.636C137.775 97.5507 137.217 96.2087 137.217 94.61C137.188 93.0553 137.731 91.7207 138.845 90.606C139.96 89.4767 141.28 88.9267 142.805 88.956C144.228 88.956 145.416 89.4327 146.369 90.386C147.323 91.3247 147.799 92.498 147.799 93.906C147.799 94.3313 147.741 94.8153 147.623 95.358ZM139.615 93.554H145.489C145.475 92.7473 145.203 92.1093 144.675 91.64C144.147 91.156 143.495 90.914 142.717 90.914C141.955 90.914 141.287 91.156 140.715 91.64C140.158 92.1093 139.791 92.7473 139.615 93.554ZM149.764 94.588C149.735 93.048 150.292 91.7207 151.436 90.606C152.58 89.4767 153.93 88.9267 155.484 88.956C157.508 88.956 159.026 89.792 160.038 91.464L158.41 92.74C157.648 91.64 156.68 91.09 155.506 91.09C154.538 91.09 153.732 91.4273 153.086 92.102C152.441 92.7767 152.118 93.6053 152.118 94.588C152.118 95.5853 152.441 96.4213 153.086 97.096C153.732 97.7707 154.538 98.108 155.506 98.108C156.65 98.108 157.618 97.5653 158.41 96.48L160.038 97.734C159.554 98.526 158.916 99.142 158.124 99.582C157.332 100.022 156.452 100.242 155.484 100.242C153.886 100.242 152.529 99.692 151.414 98.592C150.314 97.492 149.764 96.1573 149.764 94.588ZM162.585 100V83.5H164.895V100H162.585ZM167.689 93.95L172.419 100H169.647L164.961 93.928L169.185 89.198H172.045L167.689 93.95ZM190.271 85.48H192.603V100.242H191.811L182.967 90.166V100H180.635V85.238H181.449L190.271 95.27V85.48ZM195.333 94.588C195.303 93.048 195.853 91.7207 196.983 90.606C198.127 89.4767 199.476 88.9267 201.031 88.956C202.6 88.9267 203.957 89.4767 205.101 90.606C206.245 91.7353 206.802 93.0627 206.773 94.588C206.802 96.128 206.245 97.4627 205.101 98.592C203.957 99.7213 202.6 100.271 201.031 100.242C199.476 100.271 198.127 99.7213 196.983 98.592C195.853 97.448 195.303 96.1133 195.333 94.588ZM204.397 94.61C204.397 93.6127 204.074 92.7767 203.429 92.102C202.783 91.4127 201.991 91.068 201.053 91.068C200.099 91.068 199.3 91.4127 198.655 92.102C198.009 92.7767 197.687 93.6127 197.687 94.61C197.687 95.6073 198.002 96.4433 198.633 97.118C199.278 97.778 200.077 98.108 201.031 98.108C201.984 98.108 202.783 97.7707 203.429 97.096C204.074 96.4213 204.397 95.5927 204.397 94.61ZM223.225 89.198H225.689L220.893 100.242H220.101L216.713 93.048L213.325 100.242H212.533L207.737 89.198H210.201L213.039 96.26L216.317 88.956H217.109L220.431 96.172L223.225 89.198Z" fill="black"/>
<defs>
<linearGradient id="paint0_linear_205_250" x1="160.855" y1="-28.8945" x2="160.855" y2="100.74" gradientUnits="userSpaceOnUse">
<stop stop-color="#EA1818"/>
<stop offset="1" stop-color="#B50E0E"/>
</linearGradient>
</defs>
</svg>
