<svg width="30" height="24" viewBox="0 0 30 24" fill="none" xmlns="http://www.w3.org/2000/svg">
<g clip-path="url(#clip0_1051_1826)">
<path d="M0 0H30V30H0V0Z" fill="#A5DCF0"/>
<path d="M26.5996 3.8999C26.5329 3.8999 26.4663 3.93324 26.3996 3.9999C26.3996 3.93324 26.3996 3.8999 26.3996 3.8999C26.3996 3.0999 25.6996 2.3999 24.7996 2.3999C24.0996 2.3999 23.3996 2.9999 23.2996 3.6999C23.1663 3.63324 23.0329 3.5999 22.8996 3.5999C22.1996 3.5999 21.5996 4.1999 21.5996 4.8999C21.5996 5.5999 22.0996 6.0999 22.6996 6.1999C22.7996 6.6999 23.2996 7.0999 23.8996 7.0999C24.3996 7.0999 24.7996 6.8999 24.9996 6.4999C25.1996 6.6999 25.3996 6.7999 25.6996 6.7999C26.1996 6.7999 26.5996 6.4999 26.5996 5.9999C26.5996 5.93324 26.5996 5.86657 26.5996 5.7999C27.1996 5.7999 27.5996 5.3999 27.5996 4.8999C27.5996 4.3999 27.1996 3.8999 26.5996 3.8999Z" fill="#E4F2F2"/>
<path d="M27.2883 19.038C27.1682 19.038 27.0781 19.038 27.018 19.038C27.018 18.9789 27.018 18.8903 27.018 18.7722C27.018 17.7975 26.2072 17 25.1261 17C24.3153 17 23.5946 17.6203 23.4144 18.4177C23.1742 18.2405 22.9039 18.1519 22.6036 18.1519C21.973 18.1519 21.4324 18.5063 21.1622 19.038C21.042 19.038 20.9219 19.038 20.8018 19.038C19.8108 19.038 19 19.8354 19 20.8101C19 21.7848 19.8108 22.5823 20.8018 22.5823C21.1622 22.5823 21.4625 22.4937 21.7027 22.3165C21.7027 23.2025 22.5135 24 23.4144 24C24.045 24 24.5856 23.6456 24.9459 23.2025C25.1261 23.2616 25.3063 23.2911 25.4865 23.2911C26.1171 23.2911 26.5676 22.8481 26.6577 22.3165C26.8378 22.3755 27.048 22.4051 27.2883 22.4051C28.1892 22.4051 29 21.6962 29 20.7215C29 19.7468 28.1892 19.038 27.2883 19.038Z" fill="#E4F2F2"/>
<path fill-rule="evenodd" clip-rule="evenodd" d="M8.50039 14.4999C8.50039 15.2999 7.80039 15.8999 7.00039 15.8999C6.80039 15.8999 6.63372 15.8666 6.50039 15.7999C6.30039 16.2999 5.80039 16.6999 5.30039 16.6999C4.80039 16.6999 4.40039 16.3999 4.10039 16.0999C3.90039 16.3999 3.50039 16.5999 3.00039 16.5999C2.20039 16.5999 1.50039 15.8999 1.50039 15.0999C1.50039 15.0332 1.50039 14.9666 1.50039 14.8999C1.43372 14.9666 1.33372 14.9999 1.20039 14.9999C0.50039 14.9999 -0.0996094 14.3999 -0.0996094 13.6999C-0.0996094 12.9999 0.50039 12.3999 1.20039 12.3999C1.40039 12.3999 1.56706 12.4332 1.70039 12.4999C1.90039 11.9999 2.40039 11.6999 2.90039 11.6999C3.30039 11.6999 3.60039 11.7999 3.80039 11.9999C4.10039 11.6999 4.60039 11.3999 5.00039 11.3999C5.90039 11.3999 6.60039 12.0999 6.60039 12.9999C6.73372 12.9999 6.86706 12.9999 7.00039 12.9999C7.80039 12.9999 8.50039 13.5999 8.50039 14.4999ZM4.40039 14.3999C4.33372 14.3332 4.30039 14.2999 4.30039 14.2999C4.30039 14.2999 4.30039 14.3332 4.30039 14.3999C4.30039 14.3999 4.33372 14.3999 4.40039 14.3999Z" fill="#E4F2F2"/>
<path d="M7 3C6.8 2.4 6.1 2 5.4 2C4.8 2.1 4.3 2.4 4.1 2.9C3.9 2.6 3.5 2.5 3.1 2.5C2.5 2.6 2.1 3 2.1 3.6C2.1 3.6 2.1 3.63333 2.1 3.7C1.5 3.8 1 4.3 1 4.8C1.1 5.4 1.6 5.9 2.3 5.8C2.43333 5.8 2.53333 5.76667 2.6 5.7C2.6 5.76667 2.6 5.8 2.6 5.8C2.7 6.7 3.6 7.4 4.6 7.3C5.6 7.3 6.3 6.6 6.4 5.7C6.6 5.76667 6.76667 5.8 6.9 5.8C7.8 5.7 8.5 5 8.4 4.3C8.4 3.6 7.7 3 7 3Z" fill="#E4F2F2"/>
<path fill-rule="evenodd" clip-rule="evenodd" d="M5.8 22.5C5.8 22.8 5.5 23.2 5.2 23.2C5.13333 23.2 5.06667 23.2 5 23.2C4.9 23.4 4.7 23.6 4.4 23.6C4.2 23.6 4.03333 23.5667 3.9 23.5C3.8 23.7 3.6 23.8 3.3 23.8C2.9 23.9 2.6 23.5 2.5 23.1C2.43333 23.1 2.36667 23.1 2.3 23.1C1.9 23.2 1.5 22.9 1.5 22.5C1.5 22.1 1.8 21.7 2.2 21.7C2.26667 21.7 2.33333 21.7 2.4 21.7C2.5 21.5 2.7 21.3 3 21.2C3.2 21.2 3.5 21.3 3.6 21.5C3.73333 21.3 3.9 21.2 4.1 21.2C4.5 21.1 4.9 21.4 4.9 21.8C4.9 21.8667 4.9 21.9 4.9 21.9C4.96667 21.9 5.03333 21.9 5.1 21.9C5.4 21.9 5.7 22.1 5.8 22.5ZM3.6 22.4C3.6 22.3334 3.6 22.3 3.6 22.3C3.6 22.3667 3.6 22.4 3.6 22.4Z" fill="#E4F2F2"/>
<path d="M19.4998 3.29989L18.5998 4.49989C18.2998 4.79989 17.1998 5.29989 17.6998 5.69989C18.2998 6.29989 18.9998 6.29989 19.1998 6.09989L20.7998 4.29989C21.0998 3.99989 21.3998 3.39989 20.8998 2.99989C20.2998 2.39989 19.6998 2.99989 19.4998 3.29989Z" fill="#F69D5E"/>
<path d="M10.5998 7.39985C10.5998 9.29985 10.3998 13.4998 10.3998 13.4998C10.3998 13.4998 10.2998 14.3998 10.6998 14.7998C10.9998 15.1998 11.5998 15.3998 11.5998 15.3998L10.6998 17.1998L15.8998 18.2998L18.4998 14.5998L11.6998 8.19985C11.6998 8.19985 11.8998 7.29985 10.5998 7.39985Z" fill="#F69D5E"/>
<path d="M11.7002 3C11.7002 2.4 12.2002 2 12.7002 2H18.2002C18.8002 2 19.2002 2.4 19.2002 3V14C19.2002 14.5 18.8002 15 18.2002 15H12.7002C12.2002 15 11.7002 14.5 11.7002 14V3Z" fill="#221F1F"/>
<path d="M12.2002 3.6001H18.8002V13.1001H12.2002V3.6001Z" fill="#1E75BA"/>
<path d="M15.5002 3.1001C15.3002 3.1001 15.2002 3.0001 15.2002 2.9001C15.2002 2.7001 15.3002 2.6001 15.5002 2.6001C15.6002 2.6001 15.8002 2.7001 15.8002 2.9001C15.8002 3.0001 15.6002 3.1001 15.5002 3.1001Z" fill="#403F41"/>
<path d="M16.0002 13.7998H15.0002C14.8002 13.7998 14.7002 13.8998 14.7002 14.0998C14.7002 14.1998 14.8002 14.3998 15.0002 14.3998H16.0002C16.1002 14.3998 16.3002 14.1998 16.3002 14.0998C16.3002 13.8998 16.1002 13.7998 16.0002 13.7998Z" fill="#403F41"/>
<path d="M18.9004 11.2999L18.6004 11.6999C18.3004 11.9999 18.1004 12.4999 18.5004 12.9999C19.1004 13.4999 19.7004 12.8999 19.9004 12.6999L20.2004 12.3999C20.4004 12.0999 20.8004 11.4999 20.3004 10.9999C19.7004 10.4999 19.1004 11.0999 18.9004 11.2999Z" fill="#F69D5E"/>
<path d="M18.9004 9.00009L18.6004 9.30009C18.3004 9.60009 18.1004 10.1001 18.5004 10.6001C19.1004 11.2001 19.7004 10.6001 19.9004 10.3001L20.2004 10.0001C20.4004 9.70009 20.8004 9.10009 20.3004 8.70009C19.7004 8.10009 19.1004 8.70009 18.9004 9.00009Z" fill="#F69D5E"/>
<path d="M18.9004 6.60018L18.6004 6.90018C18.3004 7.20018 18.1004 7.80018 18.5004 8.20018C19.1004 8.80018 19.7004 8.20018 19.9004 7.90018L20.2004 7.60018C20.4004 7.30018 20.8004 6.70018 20.3004 6.30018C19.7004 5.70018 19.1004 6.30018 18.9004 6.60018Z" fill="#F69D5E"/>
<path d="M10.2002 16.7999L15.7002 19.7999L16.5002 18.3999L10.9002 15.3999L10.2002 16.7999Z" fill="#E6E6E7"/>
<path d="M10.2002 16.7999L13.0002 18.2999L13.7002 16.8999L10.9002 15.3999L10.2002 16.7999Z" fill="white"/>
<path d="M10.1 16.3999L6 24.2999H13.7L16.1 19.5999L10.1 16.3999Z" fill="#221F1F"/>
<path d="M14.9 20C14.7 20 14.5 20.1 14.5 20.2C14.5 20.4 14.6 20.6 14.7 20.6C14.9 20.6 15 20.6 15.1 20.4C15.1 20.2 15 20.1 14.9 20Z" fill="#F0F1F1"/>
<path d="M14.4 20.8999C14.2 20.8999 14.1 20.9999 14 21.0999C14 21.2999 14.1 21.4999 14.2 21.4999C14.4 21.4999 14.6 21.3999 14.6 21.2999C14.6 21.0999 14.5 20.9999 14.4 20.8999Z" fill="#F0F1F1"/>
<path d="M13.8998 21.7998C13.7998 21.7998 13.5998 21.8998 13.5998 21.9998C13.4998 22.1998 13.5998 22.2998 13.7998 22.3998C13.8998 22.3998 14.0998 22.2998 14.0998 22.1998C14.1998 21.9998 14.0998 21.8998 13.8998 21.7998Z" fill="#F0F1F1"/>
<path d="M10.1 16.3999L6 24.2999H9.8L13.1 17.9999L10.1 16.3999Z" fill="#403F41"/>
<path d="M14 11.7002V16.5002H17.6V12.5002L16.8 11.7002H14Z" fill="#F0F1F1"/>
<path d="M16.7998 12.5002H17.5998L16.7998 11.7002V12.5002Z" fill="#D0D2D3"/>
<path d="M14.5996 13.1001H17.0996V13.3001H14.5996V13.1001Z" fill="#929597"/>
<path d="M14.5996 13.5H17.0996V13.7H14.5996V13.5Z" fill="#BBBDBF"/>
<path d="M14.5996 13.9004H17.0996V14.1004H14.5996V13.9004Z" fill="#BBBDBF"/>
<path d="M14.5996 12.4004H16.0996V12.6004H14.5996V12.4004Z" fill="#929597"/>
<path d="M14.5996 14.3003H17.0996V14.5003H14.5996V14.3003Z" fill="#BBBDBF"/>
<path d="M14.5996 14.9004H17.0996V15.1004H14.5996V14.9004Z" fill="#929597"/>
<path d="M14.5996 15.3003H17.0996V15.5003H14.5996V15.3003Z" fill="#BBBDBF"/>
<path d="M14.5996 15.7002H17.0996V15.9002H14.5996V15.7002Z" fill="#BBBDBF"/>
<path d="M17.9994 15.5005C17.9327 15.5005 17.8994 15.5005 17.8994 15.5005L17.3994 15.9005C17.3994 15.9672 17.3994 16.0338 17.3994 16.1005L17.7994 16.4005C17.8661 16.4672 17.8994 16.4672 17.8994 16.4005L18.3994 16.0005C18.3994 15.9338 18.3994 15.8672 18.3994 15.8005L17.9994 15.5005Z" fill="#F45D81"/>
<path d="M15.6998 14.3004L16.1998 13.7004L15.2998 13.4004L15.6998 14.3004Z" fill="#F7CF9C"/>
<path d="M15.3998 13.7004L15.5998 13.5004L15.2998 13.4004L15.3998 13.7004Z" fill="#221F1F"/>
<path d="M15.7002 14.3002L17.5002 16.1002L18.0002 15.5002L16.2002 13.7002L15.7002 14.3002Z" fill="#FFDC24"/>
<path d="M17.5 16.1005L17.6 16.2005L18.2 15.7005L18 15.5005L17.5 16.1005Z" fill="#F0F1F1"/>
<path d="M15.7002 14.3005L17.5002 16.1005L17.7002 15.8005L16.0002 14.0005L15.7002 14.3005Z" fill="#E8BF15"/>
</g>
<defs>
<clipPath id="clip0_1051_1826">
<rect width="30" height="24" fill="white"/>
</clipPath>
</defs>
</svg>
