<?xml version="1.0" encoding="utf-8"?>
<!-- Generator: Adobe Illustrator 27.5.0, SVG Export Plug-In . SVG Version: 6.00 Build 0)  -->
<svg version="1.1" id="Layer_1" xmlns="http://www.w3.org/2000/svg" xmlns:xlink="http://www.w3.org/1999/xlink" x="0px" y="0px"
	 viewBox="0 0 1080 1080" style="enable-background:new 0 0 1080 1080;" xml:space="preserve">
<style type="text/css">
	.st0{fill-rule:evenodd;clip-rule:evenodd;fill:#EA1F27;}
	.st1{fill-rule:evenodd;clip-rule:evenodd;fill:#FFFFFF;}
	.st2{fill-rule:evenodd;clip-rule:evenodd;fill:#252159;}
	.st3{fill:none;stroke:#EA1F27;stroke-width:1.4387;stroke-miterlimit:2.6131;}
	.st4{fill:#EA1F27;}
	.st5{fill:#252159;}
	.st6{fill:#FFFFFF;}
</style>
<g>
	<path class="st0" d="M736.84,777.63c32.23-12.47,81.2-62.74,103.12-91.38c69.42-90.71,97.51-214.34,60.99-328
		C855.71,217.43,732,95.48,547.91,97.05C219.4,99.86,50.65,502.42,310.13,740.43c14.49,13.29,50.83,36.89,54.04,39.99L283.9,921.61
		l112.48-29.31l29.96,112.05c10.01-10.97,30.56-50.62,39.87-66.71c12.97-22.43,25.3-44.3,38.95-67.42l4.34-7.53
		c5.4-9.67,13.01-24.83,19.64-32.91l43.43,0.1l90.83,154.87c6.96-9.37,24.33-91.66,31.55-111.35l112.09,29.3l-37.18-64.99
		C761.9,823.46,740.54,791.1,736.84,777.63 M550.21,243.05c121.77,0,220.47,98.71,220.47,220.47c0,121.76-98.7,220.47-220.47,220.47
		c-121.76,0-220.47-98.71-220.47-220.47C329.73,341.77,428.44,243.05,550.21,243.05z M352.57,868.34
		c7.37-19.56,35.73-57.6,40.12-72.6c8.23,1.96,26.26,8.82,31.31,13.28l-13.24,19.28c6.67,4.86,20.67,14.3,28.3,17.19l17.05-27.33
		l36.02,7.65l-53.33,90.83c-5.47-8.21-16.34-52.59-18.51-65.94L352.57,868.34z"/>
	<path class="st1" d="M352.53,868.98l67.73-17.64c2.18,13.35,13.04,57.73,18.51,65.94l53.37-91.46l-36.02-7.65l-14.87,25.01
		c-7.63-2.89-21.63-12.33-28.3-17.19l11.06-16.96c-5.05-4.46-23.08-11.32-31.31-13.28C388.3,810.74,359.9,849.42,352.53,868.98"/>
	<path class="st1" d="M741.54,862.32l-67.73-17.65l-13.04,73.84l-55.21-92.7l36.03-7.65l9.82,17.89
		c7.63-2.89,21.63-12.33,28.29-17.19l-6-9.84c5.05-4.46,23.08-11.32,31.31-13.28C709.41,810.74,734.17,842.75,741.54,862.32"/>
	<path class="st1" d="M550.21,211.07c139.44,0,252.46,113.03,252.46,252.46c0,139.43-113.03,252.46-252.46,252.46
		c-139.43,0-252.46-113.04-252.46-252.46C297.75,324.1,410.78,211.07,550.21,211.07"/>
	<g>
		<polygon class="st2" points="58.03,327.24 986.67,181.97 1021.97,392.93 93.33,538.22 		"/>
		<polygon class="st3" points="58.03,327.24 986.67,181.97 1021.97,392.93 93.33,538.21 		"/>
	</g>
	<g>
		<path class="st4" d="M484.71,508.93l6.9-1.09l3.61,22.95c0.31,1.98,0.71,3.35,1.19,4.11c0.48,0.76,1.17,1.33,2.05,1.69
			c0.89,0.36,1.91,0.45,3.05,0.27c1.21-0.19,2.21-0.63,3-1.31c0.79-0.68,1.29-1.48,1.49-2.37c0.2-0.9,0.12-2.53-0.26-4.91
			l-3.48-22.11l6.9-1.09l3.33,21.16c0.56,3.57,0.75,6.08,0.56,7.53c-0.19,1.45-0.76,2.91-1.72,4.38c-0.95,1.47-2.13,2.63-3.54,3.49
			c-1.41,0.86-3.11,1.44-5.11,1.76c-2.62,0.41-5,0.18-7.12-0.7c-2.13-0.88-3.75-2.14-4.86-3.78c-1.12-1.64-2.01-4.58-2.67-8.81
			L484.71,508.93z"/>
		<path class="st4" d="M517.15,503.82l7.3-1.15c3.95-0.62,6.85-0.71,8.71-0.27c1.86,0.44,3.42,1.38,4.68,2.82
			c1.26,1.44,2.06,3.28,2.42,5.52c0.39,2.48,0.05,4.64-1.01,6.49c-1.06,1.85-2.67,3.27-4.83,4.27c-1.27,0.58-3.66,1.15-7.16,1.7
			l2.37,15.03l-6.88,1.08L517.15,503.82z M526.21,516.61l2.19-0.34c1.72-0.27,2.9-0.58,3.53-0.93c0.63-0.35,1.1-0.83,1.4-1.45
			c0.3-0.62,0.38-1.32,0.26-2.11c-0.22-1.37-0.91-2.29-2.09-2.75c-0.86-0.34-2.35-0.35-4.48-0.01l-1.94,0.31L526.21,516.61z"/>
		<path class="st4" d="M555.87,497.72l19.98-3.15l1.05,6.66l-6.58,1.04l4.54,28.83l-6.98,1.1l-4.54-28.83l-6.41,1.01L555.87,497.72z
			"/>
		<path class="st4" d="M597.49,490.26c5.11-0.81,9.8,0.32,14.05,3.38c4.25,3.06,6.79,7.2,7.61,12.43c0.82,5.18-0.31,9.85-3.38,14.01
			c-3.07,4.16-7.19,6.65-12.37,7.46c-5.43,0.85-10.22-0.28-14.39-3.4c-4.17-3.12-6.65-7.21-7.45-12.28
			c-0.53-3.39-0.19-6.65,1.03-9.76c1.22-3.11,3.17-5.73,5.83-7.85C591.09,492.12,594.12,490.79,597.49,490.26z M598.46,496.88
			c-3.35,0.53-5.98,2.11-7.9,4.76c-1.92,2.64-2.6,5.72-2.05,9.25c0.62,3.92,2.54,6.8,5.77,8.64c2.51,1.44,5.21,1.92,8.09,1.47
			c3.26-0.51,5.86-2.11,7.79-4.79c1.93-2.68,2.63-5.71,2.1-9.11c-0.53-3.38-2.14-6.05-4.82-8.03
			C604.77,497.08,601.77,496.36,598.46,496.88z"/>
	</g>
	<g>
		<path class="st5" d="M429.17,584.19l22.71-3.58l12.32,78.29l-15.07,2.37l-10.12-64.29l-16.42,2.59L429.17,584.19z"/>
		<path class="st5" d="M503.61,570.45c5.82-0.92,11.05-0.3,15.7,1.84c4.65,2.14,8.58,5.91,11.78,11.32
			c3.2,5.4,5.61,13.25,7.23,23.54c1.64,10.4,1.74,18.67,0.32,24.82c-1.42,6.15-3.89,10.89-7.4,14.23
			c-3.51,3.33-8.27,5.47-14.26,6.42c-6,0.94-11.25,0.37-15.77-1.72c-4.51-2.09-8.37-5.74-11.55-10.94
			c-3.19-5.21-5.59-12.95-7.21-23.24c-2.26-14.37-1.64-25.14,1.86-32.31C488.21,576.51,494.64,571.86,503.61,570.45z M506.19,584.55
			c-2.56,0.4-4.71,1.57-6.43,3.49c-1.73,1.93-2.81,4.94-3.23,9.04c-0.43,4.1-0.04,9.95,1.15,17.54c1.56,9.9,3.83,16.55,6.83,19.95
			c2.99,3.4,6.4,4.8,10.22,4.2c3.68-0.58,6.32-2.83,7.92-6.76c1.95-4.74,2.13-12.19,0.53-22.34c-1.62-10.29-3.92-17.2-6.89-20.73
			C513.3,585.43,509.94,583.96,506.19,584.55z"/>
		<path class="st5" d="M565.78,560.66c5.82-0.92,11.05-0.3,15.7,1.84c4.65,2.14,8.58,5.91,11.78,11.32
			c3.2,5.4,5.61,13.25,7.23,23.54c1.64,10.4,1.75,18.67,0.32,24.82c-1.42,6.15-3.89,10.89-7.4,14.23
			c-3.51,3.33-8.27,5.47-14.26,6.42s-11.25,0.37-15.77-1.72c-4.51-2.09-8.37-5.74-11.55-10.94c-3.19-5.21-5.59-12.95-7.21-23.24
			c-2.26-14.37-1.64-25.14,1.86-32.31C550.38,566.72,556.81,562.07,565.78,560.66z M568.36,574.77c-2.56,0.4-4.71,1.57-6.43,3.49
			c-1.73,1.93-2.81,4.94-3.23,9.04c-0.43,4.1-0.04,9.95,1.15,17.54c1.56,9.9,3.83,16.55,6.83,19.95c2.99,3.4,6.4,4.8,10.22,4.2
			c3.68-0.58,6.32-2.83,7.92-6.76c1.95-4.74,2.13-12.19,0.53-22.34c-1.62-10.29-3.92-17.2-6.89-20.73
			C575.47,575.65,572.11,574.17,568.36,574.77z"/>
		<path class="st5" d="M670.2,542.7l10.95-1.72L631.61,638l-10.95,1.72l42.34-83.3c-3.18,1.05-6.18,1.93-9,2.64
			c-2.82,0.72-5.45,1.27-7.87,1.65c-2.5,0.39-5.17,0.68-8,0.87c1.19,2.36,1.94,4.55,2.26,6.57c0.82,5.18-0.33,9.87-3.42,14.07
			c-3.1,4.2-7.28,6.71-12.56,7.54c-5.31,0.84-10.11-0.26-14.41-3.29c-4.29-3.03-6.84-7.12-7.65-12.27
			c-0.52-3.33-0.18-6.56,1.03-9.68c1.21-3.12,3.19-5.79,5.93-8.02c2.74-2.23,5.6-3.58,8.56-4.05c2.24-0.35,5.4-0.41,9.48-0.18
			c7.21,0.39,13.48,0.17,18.79-0.67c4.81-0.76,9.22-1.88,13.23-3.36C663.38,546.76,666.99,544.91,670.2,542.7z M619.93,562.06
			c-2.53,0.4-4.55,1.62-6.06,3.67c-1.51,2.05-2.07,4.3-1.68,6.77c0.39,2.5,1.62,4.49,3.69,5.98c2.07,1.49,4.36,2.03,6.9,1.63
			c2.53-0.4,4.55-1.62,6.06-3.67c1.51-2.05,2.07-4.32,1.68-6.82s-1.62-4.48-3.69-5.95C624.75,562.2,622.46,561.67,619.93,562.06z
			 M678.33,589.03c5.24-0.82,10.01,0.3,14.3,3.37c4.3,3.07,6.85,7.19,7.67,12.37c0.81,5.14-0.36,9.84-3.5,14.08
			s-7.34,6.77-12.58,7.6c-5.28,0.83-10.05-0.29-14.33-3.36c-4.28-3.07-6.82-7.18-7.63-12.32c-0.82-5.18,0.34-9.89,3.47-14.13
			C668.85,592.4,673.05,589.86,678.33,589.03z M679.83,598.72c-2.57,0.41-4.62,1.63-6.13,3.68s-2.08,4.31-1.69,6.79
			s1.62,4.46,3.69,5.95c2.07,1.49,4.4,2.03,6.97,1.62c2.54-0.4,4.56-1.62,6.08-3.67c1.51-2.05,2.08-4.32,1.69-6.79
			s-1.62-4.46-3.69-5.94C684.67,598.87,682.36,598.32,679.83,598.72z"/>
	</g>
	<g>
		<path class="st6" d="M171.86,394.47l-9.74,11.76c-4.84-4.9-9.32-7.03-13.43-6.38c-2,0.32-3.56,1.11-4.66,2.38
			c-1.11,1.27-1.55,2.58-1.34,3.93c0.21,1.34,0.87,2.55,1.97,3.6c1.49,1.41,5.76,4.25,12.82,8.54c6.59,3.95,10.61,6.47,12.05,7.55
			c3.59,2.64,6.25,5.28,7.99,7.93c1.74,2.65,2.88,5.66,3.41,9.04c1.04,6.58-0.38,12.37-4.26,17.38c-3.87,5-9.47,8.08-16.78,9.23
			c-5.71,0.9-10.91,0.28-15.59-1.85s-9-5.96-12.97-11.48l11.61-9.76c4.97,6.48,9.97,9.33,15,8.53c2.62-0.41,4.7-1.52,6.25-3.33
			c1.54-1.81,2.16-3.71,1.84-5.71c-0.29-1.82-1.25-3.53-2.88-5.13c-1.63-1.6-5.04-3.92-10.22-6.94
			c-9.86-5.75-16.37-10.36-19.53-13.83c-3.16-3.47-5.04-7.13-5.65-10.98c-0.88-5.56,0.49-10.67,4.11-15.31
			c3.61-4.65,8.53-7.46,14.75-8.44c4-0.63,7.96-0.3,11.87,0.98C162.42,387.46,166.87,390.23,171.86,394.47z"/>
		<path class="st6" d="M262.05,383.54l-9.07,11.86c-8.47-6.53-17.25-9.08-26.32-7.66c-7.66,1.21-13.71,4.84-18.13,10.91
			c-4.42,6.06-6.03,12.94-4.82,20.61c0.84,5.35,2.75,9.91,5.73,13.7c2.98,3.78,6.78,6.52,11.4,8.22c4.62,1.7,9.53,2.13,14.72,1.32
			c4.43-0.7,8.35-2.16,11.76-4.4c3.41-2.23,6.96-5.88,10.67-10.94l12.05,9.17c-5.01,6.72-9.98,11.61-14.9,14.67
			c-4.92,3.07-10.76,5.13-17.52,6.2c-12.47,1.96-23.29-0.38-32.48-7.04c-9.19-6.66-14.75-16.16-16.7-28.52
			c-1.26-8-0.57-15.39,2.07-22.17c2.64-6.79,7.03-12.6,13.18-17.44s13.11-7.88,20.89-9.1c6.61-1.04,13.2-0.65,19.77,1.18
			C250.9,375.94,256.8,379.09,262.05,383.54z"/>
		<path class="st6" d="M273.13,367.35l15.48-2.44l4.76,30.26l26.77-4.21l-4.76-30.26l15.43-2.43l12.63,80.2l-15.43,2.43l-5.54-35.17
			l-26.77,4.21l5.54,35.17l-15.48,2.44L273.13,367.35z"/>
		<path class="st6" d="M386.68,347.41c11.35-1.79,21.75,0.79,31.21,7.71c9.46,6.93,15.12,16.3,16.98,28.11
			c1.84,11.71-0.63,22.24-7.41,31.62c-6.78,9.37-15.92,14.97-27.41,16.77c-12.04,1.9-22.7-0.69-31.97-7.76s-14.81-16.33-16.62-27.78
			c-1.21-7.67-0.46-15.01,2.23-22.03c2.7-7.02,7-12.92,12.9-17.7C372.49,351.57,379.19,348.59,386.68,347.41z M388.87,362.37
			c-7.42,1.17-13.26,4.73-17.5,10.69c-4.25,5.96-5.74,12.92-4.49,20.88c1.4,8.87,5.68,15.38,12.86,19.54
			c5.58,3.26,11.58,4.38,17.98,3.37c7.24-1.14,13-4.73,17.26-10.76c4.27-6.04,5.8-12.89,4.6-20.56c-1.2-7.63-4.79-13.69-10.75-18.17
			S396.22,361.22,388.87,362.37z"/>
		<path class="st6" d="M442.91,340.62l15.27-2.4l10.33,65.64l22.24-3.5l2.29,14.56l-37.51,5.9L442.91,340.62z"/>
		<path class="st6" d="M516.5,329.04l15.48-2.44l43.47,75.34l-15.86,2.5l-8.88-15.53l-32.72,5.15l-3.92,17.55l-15.87,2.5
			L516.5,329.04z M527.69,349.07l-6.43,29.23l21.46-3.38L527.69,349.07z"/>
		<path class="st6" d="M575.67,319.73l16.17-2.55c8.86-1.39,15.29-1.6,19.3-0.61c4.01,0.99,7.44,3.14,10.31,6.45
			s4.69,7.47,5.48,12.49c0.83,5.27,0.26,9.88-1.71,13.82c-1.97,3.94-5.35,7.22-10.15,9.84l24.61,32.67l-16.69,2.63l-23.38-31.13
			l-1.4,0.22l5.35,33.97l-15.27,2.4L575.67,319.73z M595.87,348.67l4.78-0.75c4.86-0.76,8.1-1.93,9.73-3.49s2.21-3.82,1.75-6.78
			c-0.28-1.75-0.97-3.2-2.08-4.35c-1.11-1.15-2.47-1.89-4.08-2.22c-1.61-0.33-4.45-0.17-8.5,0.47l-4.19,0.66L595.87,348.67z"/>
		<path class="st6" d="M683.21,313.97l-9.74,11.76c-4.84-4.9-9.32-7.03-13.43-6.38c-2,0.32-3.56,1.11-4.66,2.38
			c-1.11,1.27-1.55,2.58-1.34,3.93c0.21,1.34,0.87,2.55,1.97,3.6c1.49,1.41,5.76,4.25,12.82,8.54c6.59,3.95,10.61,6.47,12.05,7.55
			c3.59,2.64,6.25,5.28,7.99,7.93c1.74,2.65,2.88,5.66,3.41,9.05c1.04,6.58-0.38,12.37-4.26,17.37c-3.87,5.01-9.47,8.08-16.78,9.23
			c-5.71,0.9-10.91,0.28-15.59-1.85c-4.68-2.13-9-5.96-12.97-11.48l11.61-9.76c4.97,6.48,9.97,9.33,15,8.53
			c2.62-0.41,4.7-1.52,6.25-3.33c1.54-1.81,2.16-3.71,1.84-5.71c-0.29-1.82-1.25-3.53-2.88-5.14c-1.63-1.6-5.04-3.92-10.22-6.94
			c-9.86-5.75-16.37-10.36-19.53-13.83c-3.16-3.47-5.04-7.13-5.65-10.98c-0.88-5.56,0.49-10.67,4.11-15.31
			c3.61-4.65,8.53-7.46,14.75-8.44c4-0.63,7.96-0.3,11.87,0.98C673.76,306.97,678.22,309.73,683.21,313.97z"/>
		<path class="st6" d="M697.41,300.56l15.48-2.44l4.76,30.26l26.77-4.21l-4.76-30.26l15.43-2.43l12.62,80.2l-15.43,2.43l-5.54-35.17
			l-26.77,4.21l5.54,35.17l-15.48,2.44L697.41,300.56z"/>
		<path class="st6" d="M772.33,288.77l15.16-2.39l12.63,80.2l-15.16,2.39L772.33,288.77z"/>
		<path class="st6" d="M804.6,283.69l16.19-2.55c8.76-1.38,15.2-1.56,19.33-0.56c4.13,1.01,7.59,3.15,10.4,6.41
			c2.8,3.27,4.61,7.42,5.4,12.48c0.88,5.6,0.15,10.48-2.19,14.65c-2.34,4.17-5.91,7.37-10.69,9.62c-2.81,1.3-8.11,2.56-15.89,3.79
			l5.35,33.97l-15.27,2.4L804.6,283.69z M824.8,312.63l4.85-0.76c3.82-0.6,6.43-1.29,7.83-2.07c1.4-0.78,2.43-1.87,3.09-3.26
			c0.66-1.39,0.84-2.98,0.56-4.77c-0.49-3.1-2.04-5.17-4.67-6.22c-1.91-0.78-5.23-0.8-9.95-0.06l-4.31,0.68L824.8,312.63z"/>
		<path class="st6" d="M911,278.11l-9.74,11.76c-4.84-4.9-9.32-7.03-13.43-6.38c-2,0.31-3.56,1.11-4.66,2.38
			c-1.11,1.27-1.55,2.58-1.34,3.93c0.21,1.34,0.87,2.55,1.97,3.6c1.49,1.41,5.76,4.25,12.82,8.54c6.59,3.95,10.61,6.47,12.05,7.55
			c3.59,2.64,6.25,5.28,7.99,7.93c1.74,2.65,2.88,5.66,3.41,9.05c1.04,6.58-0.38,12.37-4.26,17.38c-3.87,5-9.47,8.08-16.78,9.23
			c-5.71,0.9-10.91,0.28-15.59-1.85s-9-5.96-12.97-11.48l11.61-9.76c4.97,6.48,9.97,9.33,15,8.53c2.62-0.41,4.7-1.52,6.25-3.33
			c1.54-1.81,2.16-3.71,1.84-5.71c-0.29-1.82-1.25-3.53-2.88-5.14c-1.63-1.6-5.04-3.92-10.22-6.94
			c-9.86-5.75-16.37-10.36-19.53-13.83c-3.16-3.47-5.04-7.13-5.65-10.98c-0.88-5.56,0.49-10.67,4.11-15.31
			c3.61-4.65,8.53-7.46,14.75-8.44c4-0.63,7.96-0.3,11.87,0.98C901.55,271.11,906,273.87,911,278.11z"/>
		<path class="st6" d="M933.82,261.27l13.85-2.18l-1.72,17.09l10.49-13.55l8.27,10.99l-15.96,6.9l17.38,2.15l-5.33,12.96
			l-13.75-9.96l6.77,15.7l-13.36,2.1l1.62-17.02l-10.3,13.75l-9.11-10.69l15.93-7.4l-17.42-2.04l5.34-13.3l14.07,10.24
			L933.82,261.27z"/>
	</g>
</g>
<g>
</g>
<g>
</g>
<g>
</g>
<g>
</g>
<g>
</g>
<g>
</g>
</svg>
